M48
;DRILL file {KiCad (2017-02-04 revision 9a6e5734b)-master} date Fri Mar 24 17:35:17 2017
;FORMAT={-:-/ absolute / inch / decimal}
FMAT,2
INCH,TZ
T1C0.012
T2C0.032
T3C0.032
T4C0.040
T5C0.091
T6C0.138
%
G90
G05
M72
T1
X4.32Y-3.42
X4.32Y-3.47
X4.32Y-3.52
X4.36Y-3.38
X4.39Y-3.683
X4.4Y-3.34
X4.44Y-3.3
X4.44Y-3.683
X4.49Y-3.683
X4.52Y-3.75
X4.54Y-3.683
X4.5815Y-3.7875
X4.59Y-3.683
X4.67Y-3.45
X4.67Y-3.52
X4.67Y-3.58
X4.68Y-3.21
X4.69Y-3.09
X4.7Y-3.25
X4.7Y-3.3
X4.7Y-3.35
X4.7Y-3.4
X4.73Y-3.13
X4.73Y-3.45
X4.76Y-3.5
X4.77Y-3.17
X4.8085Y-3.4685
X4.823Y-3.631
X4.825Y-3.025
X4.825Y-3.075
X4.825Y-3.125
X4.825Y-3.175
X4.825Y-3.225
X4.825Y-3.275
X4.825Y-3.325
X4.825Y-3.375
X4.875Y-3.
X4.875Y-3.375
X4.925Y-3.
X4.925Y-3.375
X4.975Y-3.
X4.975Y-3.375
X4.99Y-3.55
X5.025Y-3.
X5.025Y-3.375
X5.075Y-3.
X5.075Y-3.375
X5.098Y-3.529
X5.125Y-3.025
X5.125Y-3.35
X5.142Y-3.529
X5.15Y-3.075
X5.15Y-3.125
X5.175Y-3.3
X5.23Y-2.85
X5.23Y-2.9
X5.271Y-3.058
X5.275Y-2.63
X5.31Y-2.9
X5.31Y-2.85
X5.3825Y-3.015
X5.385Y-3.055
X5.43Y-3.44
X5.43Y-3.51
X5.435Y-3.631
X5.467Y-2.898
X5.48Y-3.44
X5.48Y-3.51
X5.499Y-3.006
X5.53Y-3.44
X5.53Y-3.51
X5.53Y-3.743
X5.539Y-3.006
X5.563Y-2.88
X5.563Y-3.714
X5.58Y-3.44
X5.58Y-3.51
X5.593Y-3.685
X5.5988Y-2.899
X5.624Y-3.655
X5.63Y-3.44
X5.63Y-3.51
X5.6521Y-3.6235
X5.667Y-2.76
X5.68Y-3.44
X5.68Y-3.51
X5.686Y-3.651
X5.719Y-3.008
X5.7195Y-3.6277
X5.725Y-3.725
X5.73Y-3.44
X5.73Y-3.51
X5.775Y-3.725
X5.78Y-3.46
X5.8Y-3.51
X5.825Y-3.725
X5.8359Y-3.015
X5.8751Y-3.0068
X5.8766Y-3.093
X5.885Y-2.76
X5.89Y-3.3677
X5.9246Y-2.68
X5.925Y-2.775
X5.925Y-3.75
X5.925Y-3.8
X6.03Y-3.338
X6.1287Y-3.1183
X6.2Y-2.975
X6.2Y-3.025
X6.2Y-3.075
X6.2288Y-3.4332
X6.25Y-2.8
X6.25Y-2.975
X6.25Y-3.025
X6.25Y-3.075
X6.3Y-2.75
X6.3Y-2.8
X6.3Y-2.975
X6.3Y-3.025
X6.3Y-3.075
X6.33Y-3.433
X6.35Y-2.7
X6.35Y-2.75
X6.35Y-2.8
X6.35Y-2.975
X6.35Y-3.025
X6.35Y-3.075
X6.4Y-3.025
X6.4Y-3.075
X6.43Y-3.146
X6.45Y-3.075
X6.5233Y-3.4647
X6.627Y-3.466
X6.731Y-3.31
X6.83Y-3.541
X6.9Y-3.05
X6.93Y-3.596
X7.Y-2.75
X7.Y-2.85
X7.Y-2.95
X7.Y-3.05
X7.031Y-3.652
X7.1Y-2.65
X7.1Y-2.75
X7.1Y-2.85
X7.1Y-2.95
X7.1Y-3.05
X7.2Y-2.65
X7.2Y-2.75
X7.2Y-2.85
X7.2Y-2.95
X7.2Y-3.05
X7.3Y-2.95
X7.3Y-3.05
X7.4Y-2.95
X7.4Y-3.05
X7.5Y-2.95
X7.5Y-3.05
T2
X4.3989Y-3.468
X4.5911Y-3.468
X5.08Y-3.0939
X5.08Y-3.2861
X6.7Y-3.05
X6.8Y-3.05
T3
X4.1336Y-2.9622
X4.1336Y-3.1622
X4.4336Y-2.9622
X4.4336Y-3.1622
X4.475Y-2.7
X4.475Y-2.8
X4.9Y-2.7
X4.9Y-2.8
X6.625Y-2.7813
X6.625Y-2.86
X6.725Y-2.7813
X6.725Y-2.86
T4
X4.23Y-3.88
X4.23Y-4.07
X4.33Y-3.88
X4.33Y-4.07
X4.43Y-3.88
X4.43Y-4.07
X4.53Y-3.88
X4.53Y-4.07
X4.63Y-3.88
X4.63Y-4.07
X4.73Y-3.88
X4.73Y-4.07
X4.83Y-3.88
X4.83Y-4.07
X4.93Y-3.88
X4.93Y-4.07
X5.03Y-3.88
X5.03Y-4.07
X5.13Y-3.88
X5.13Y-4.07
X5.23Y-3.88
X5.23Y-4.07
X5.33Y-3.88
X5.33Y-4.07
X5.4Y-2.7
X5.4Y-2.8
X5.43Y-3.88
X5.43Y-4.07
X5.5Y-2.7
X5.5Y-2.8
X5.53Y-3.88
X5.53Y-4.07
X5.6Y-2.7
X5.6Y-2.8
X5.63Y-3.88
X5.63Y-4.07
X5.73Y-3.88
X5.73Y-4.07
X5.83Y-3.88
X5.83Y-4.07
X5.93Y-3.88
X5.93Y-4.07
X6.03Y-3.88
X6.03Y-4.07
X6.13Y-3.88
X6.13Y-4.07
X6.23Y-3.88
X6.23Y-4.07
X6.33Y-3.88
X6.33Y-4.07
X6.43Y-3.88
X6.43Y-4.07
X6.53Y-3.88
X6.53Y-4.07
X6.63Y-3.88
X6.63Y-4.07
X6.73Y-3.88
X6.73Y-4.07
X6.83Y-3.88
X6.83Y-4.07
X6.93Y-3.88
X6.93Y-4.07
X7.03Y-3.88
X7.03Y-4.07
X7.13Y-3.88
X7.13Y-4.07
X7.23Y-3.88
X7.23Y-4.07
X7.33Y-3.88
X7.33Y-4.07
T5
X6.4388Y-2.675
X6.9112Y-2.675
T6
X4.2Y-2.725
X4.2Y-4.875
X7.375Y-2.725
X7.375Y-4.875
T0
M30
