G04 #@! TF.GenerationSoftware,KiCad,Pcbnew,(2017-02-04 revision 9a6e5734b)-master*
G04 #@! TF.CreationDate,2017-03-24T17:35:15+01:00*
G04 #@! TF.ProjectId,mega-prog,6D6567612D70726F672E6B696361645F,Proto 1*
G04 #@! TF.FileFunction,Copper,L1,Top,Signal*
G04 #@! TF.FilePolarity,Positive*
%FSLAX46Y46*%
G04 Gerber Fmt 4.6, Leading zero omitted, Abs format (unit mm)*
G04 Created by KiCad (PCBNEW (2017-02-04 revision 9a6e5734b)-master) date Fri Mar 24 17:35:15 2017*
%MOMM*%
%LPD*%
G01*
G04 APERTURE LIST*
%ADD10C,0.100000*%
%ADD11C,0.010000*%
%ADD12R,0.500000X1.500000*%
%ADD13R,1.500000X0.500000*%
%ADD14C,1.524000*%
%ADD15C,2.700020*%
%ADD16C,1.397000*%
%ADD17R,1.250000X1.000000*%
%ADD18C,1.778000*%
%ADD19R,1.000000X1.250000*%
%ADD20C,1.676400*%
%ADD21R,0.700000X1.300000*%
%ADD22C,1.501140*%
%ADD23R,1.998980X1.998980*%
%ADD24C,1.998980*%
%ADD25R,1.727200X1.727200*%
%ADD26O,1.727200X1.727200*%
%ADD27R,1.060000X0.650000*%
%ADD28C,0.812800*%
%ADD29C,0.762000*%
%ADD30C,0.254000*%
%ADD31C,0.381000*%
%ADD32C,0.508000*%
G04 APERTURE END LIST*
D10*
D11*
G36*
X115765980Y-115180340D02*
X116110770Y-114870930D01*
X116000150Y-116083550D01*
X115875740Y-116198990D01*
X115691330Y-116004990D01*
X115765980Y-115180340D01*
X115765980Y-115180340D01*
G37*
X115765980Y-115180340D02*
X116110770Y-114870930D01*
X116000150Y-116083550D01*
X115875740Y-116198990D01*
X115691330Y-116004990D01*
X115765980Y-115180340D01*
G36*
X112191551Y-114821340D02*
X113853380Y-114821340D01*
X113513380Y-115139540D01*
X112480559Y-115139540D01*
X112191551Y-114821340D01*
X112191551Y-114821340D01*
G37*
X112191551Y-114821340D02*
X113853380Y-114821340D01*
X113513380Y-115139540D01*
X112480559Y-115139540D01*
X112191551Y-114821340D01*
G36*
X113446760Y-116107690D02*
X113589120Y-116257430D01*
X113418120Y-116407170D01*
X112352576Y-116407170D01*
X112220523Y-116257430D01*
X112383391Y-116107690D01*
X113446760Y-116107690D01*
X113446760Y-116107690D01*
G37*
X113446760Y-116107690D02*
X113589120Y-116257430D01*
X113418120Y-116407170D01*
X112352576Y-116407170D01*
X112220523Y-116257430D01*
X112383391Y-116107690D01*
X113446760Y-116107690D01*
G36*
X112052825Y-116126620D02*
X112162526Y-114879010D01*
X112450285Y-115197200D01*
X112375632Y-116045620D01*
X112161820Y-116245380D01*
X112052825Y-116126620D01*
X112052825Y-116126620D01*
G37*
X112052825Y-116126620D02*
X112162526Y-114879010D01*
X112450285Y-115197200D01*
X112375632Y-116045620D01*
X112161820Y-116245380D01*
X112052825Y-116126620D01*
G36*
X113567430Y-117701550D02*
X111965477Y-117701550D01*
X112300003Y-117383299D01*
X113293440Y-117383299D01*
X113567430Y-117701550D01*
X113567430Y-117701550D01*
G37*
X113567430Y-117701550D02*
X111965477Y-117701550D01*
X112300003Y-117383299D01*
X113293440Y-117383299D01*
X113567430Y-117701550D01*
G36*
X114120480Y-117632811D02*
X114227630Y-116413840D01*
X114351930Y-116293290D01*
X114530150Y-116488660D01*
X114461300Y-117320744D01*
X114120480Y-117632811D01*
X114120480Y-117632811D01*
G37*
X114120480Y-117632811D02*
X114227630Y-116413840D01*
X114351930Y-116293290D01*
X114530150Y-116488660D01*
X114461300Y-117320744D01*
X114120480Y-117632811D01*
G36*
X112332773Y-116502870D02*
X112262406Y-117321721D01*
X111914370Y-117628796D01*
X112023745Y-116429250D01*
X112150752Y-116310650D01*
X112332773Y-116502870D01*
X112332773Y-116502870D01*
G37*
X112332773Y-116502870D02*
X112262406Y-117321721D01*
X111914370Y-117628796D01*
X112023745Y-116429250D01*
X112150752Y-116310650D01*
X112332773Y-116502870D01*
G36*
X113462660Y-115996370D02*
X113537150Y-115148010D01*
X113885340Y-114828660D01*
X113775050Y-116077200D01*
X113646690Y-116195970D01*
X113462660Y-115996370D01*
X113462660Y-115996370D01*
G37*
X113462660Y-115996370D02*
X113537150Y-115148010D01*
X113885340Y-114828660D01*
X113775050Y-116077200D01*
X113646690Y-116195970D01*
X113462660Y-115996370D01*
G36*
X113743410Y-116437660D02*
X113634150Y-117681964D01*
X113347040Y-117362846D01*
X113417250Y-116514050D01*
X113633340Y-116314670D01*
X113743410Y-116437660D01*
X113743410Y-116437660D01*
G37*
X113743410Y-116437660D02*
X113634150Y-117681964D01*
X113347040Y-117362846D01*
X113417250Y-116514050D01*
X113633340Y-116314670D01*
X113743410Y-116437660D01*
G36*
X120101590Y-116007870D02*
X120176090Y-115187440D01*
X120519190Y-114879720D01*
X120409700Y-116086050D01*
X120285580Y-116200950D01*
X120101590Y-116007870D01*
X120101590Y-116007870D01*
G37*
X120101590Y-116007870D02*
X120176090Y-115187440D01*
X120519190Y-114879720D01*
X120409700Y-116086050D01*
X120285580Y-116200950D01*
X120101590Y-116007870D01*
G36*
X118955500Y-116504660D02*
X118885290Y-117340331D01*
X118537800Y-117653753D01*
X118647010Y-116429520D01*
X118773750Y-116308480D01*
X118955500Y-116504660D01*
X118955500Y-116504660D01*
G37*
X118955500Y-116504660D02*
X118885290Y-117340331D01*
X118537800Y-117653753D01*
X118647010Y-116429520D01*
X118773750Y-116308480D01*
X118955500Y-116504660D01*
G36*
X120431450Y-116416670D02*
X120321160Y-117608722D01*
X120038400Y-117303710D01*
X120109410Y-116489960D01*
X120325400Y-116298660D01*
X120431450Y-116416670D01*
X120431450Y-116416670D01*
G37*
X120431450Y-116416670D02*
X120321160Y-117608722D01*
X120038400Y-117303710D01*
X120109410Y-116489960D01*
X120325400Y-116298660D01*
X120431450Y-116416670D01*
G36*
X120564380Y-114822650D02*
X120224910Y-115128860D01*
X119193940Y-115128860D01*
X118905410Y-114822650D01*
X120564380Y-114822650D01*
X120564380Y-114822650D01*
G37*
X120564380Y-114822650D02*
X120224910Y-115128860D01*
X119193940Y-115128860D01*
X118905410Y-114822650D01*
X120564380Y-114822650D01*
G36*
X120135730Y-116082300D02*
X120279770Y-116241370D01*
X120106910Y-116400500D01*
X119032750Y-116400500D01*
X118896900Y-116241370D01*
X119061560Y-116082300D01*
X120135730Y-116082300D01*
X120135730Y-116082300D01*
G37*
X120135730Y-116082300D02*
X120279770Y-116241370D01*
X120106910Y-116400500D01*
X119032750Y-116400500D01*
X118896900Y-116241370D01*
X119061560Y-116082300D01*
X120135730Y-116082300D01*
G36*
X118731540Y-116079260D02*
X118841770Y-114861760D01*
X119128830Y-115172260D01*
X119057980Y-116000590D01*
X118841770Y-116195260D01*
X118731540Y-116079260D01*
X118731540Y-116079260D01*
G37*
X118731540Y-116079260D02*
X118841770Y-114861760D01*
X119128830Y-115172260D01*
X119057980Y-116000590D01*
X118841770Y-116195260D01*
X118731540Y-116079260D01*
G36*
X120273470Y-117676159D02*
X118680650Y-117676159D01*
X119010680Y-117357908D01*
X120000520Y-117357908D01*
X120273470Y-117676159D01*
X120273470Y-117676159D01*
G37*
X120273470Y-117676159D02*
X118680650Y-117676159D01*
X119010680Y-117357908D01*
X120000520Y-117357908D01*
X120273470Y-117676159D01*
G36*
X115973180Y-116422960D02*
X115864020Y-117642468D01*
X115581200Y-117330456D01*
X115651450Y-116497940D01*
X115867330Y-116302410D01*
X115973180Y-116422960D01*
X115973180Y-116422960D01*
G37*
X115973180Y-116422960D02*
X115864020Y-117642468D01*
X115581200Y-117330456D01*
X115651450Y-116497940D01*
X115867330Y-116302410D01*
X115973180Y-116422960D01*
G36*
X116056510Y-114817330D02*
X115727690Y-115126620D01*
X114728770Y-115126620D01*
X114449260Y-114817330D01*
X116056510Y-114817330D01*
X116056510Y-114817330D01*
G37*
X116056510Y-114817330D02*
X115727690Y-115126620D01*
X114728770Y-115126620D01*
X114449260Y-114817330D01*
X116056510Y-114817330D01*
G36*
X115680160Y-116088050D02*
X115824040Y-116242730D01*
X115651300Y-116397410D01*
X114576860Y-116397410D01*
X114441010Y-116242730D01*
X114605720Y-116088050D01*
X115680160Y-116088050D01*
X115680160Y-116088050D01*
G37*
X115680160Y-116088050D02*
X115824040Y-116242730D01*
X115651300Y-116397410D01*
X114576860Y-116397410D01*
X114441010Y-116242730D01*
X114605720Y-116088050D01*
X115680160Y-116088050D01*
G36*
X114280800Y-116083490D02*
X114390180Y-114870810D01*
X114675060Y-115180120D01*
X114604800Y-116005090D01*
X114390180Y-116198990D01*
X114280800Y-116083490D01*
X114280800Y-116083490D01*
G37*
X114280800Y-116083490D02*
X114390180Y-114870810D01*
X114675060Y-115180120D01*
X114604800Y-116005090D01*
X114390180Y-116198990D01*
X114280800Y-116083490D01*
G36*
X115805760Y-117686847D02*
X114158400Y-117686847D01*
X114499660Y-117390894D01*
X115523470Y-117390894D01*
X115805760Y-117686847D01*
X115805760Y-117686847D01*
G37*
X115805760Y-117686847D02*
X114158400Y-117686847D01*
X114499660Y-117390894D01*
X115523470Y-117390894D01*
X115805760Y-117686847D01*
G36*
X117890980Y-116017740D02*
X117965480Y-115182400D01*
X118308580Y-114869040D01*
X118199090Y-116097330D01*
X118074970Y-116214300D01*
X117890980Y-116017740D01*
X117890980Y-116017740D01*
G37*
X117890980Y-116017740D02*
X117965480Y-115182400D01*
X118308580Y-114869040D01*
X118199090Y-116097330D01*
X118074970Y-116214300D01*
X117890980Y-116017740D01*
G36*
X118170060Y-116422850D02*
X118060860Y-117647079D01*
X117777930Y-117333874D01*
X117848180Y-116498100D01*
X118064160Y-116301810D01*
X118170060Y-116422850D01*
X118170060Y-116422850D01*
G37*
X118170060Y-116422850D02*
X118060860Y-117647079D01*
X117777930Y-117333874D01*
X117848180Y-116498100D01*
X118064160Y-116301810D01*
X118170060Y-116422850D01*
G36*
X118261430Y-114819980D02*
X117922020Y-115133360D01*
X116890980Y-115133360D01*
X116602470Y-114819980D01*
X118261430Y-114819980D01*
X118261430Y-114819980D01*
G37*
X118261430Y-114819980D02*
X117922020Y-115133360D01*
X116890980Y-115133360D01*
X116602470Y-114819980D01*
X118261430Y-114819980D01*
G36*
X117888980Y-116088760D02*
X118037520Y-116245380D01*
X117859190Y-116402070D01*
X116747810Y-116402070D01*
X116610010Y-116245380D01*
X116779930Y-116088760D01*
X117888980Y-116088760D01*
X117888980Y-116088760D01*
G37*
X117888980Y-116088760D02*
X118037520Y-116245380D01*
X117859190Y-116402070D01*
X116747810Y-116402070D01*
X116610010Y-116245380D01*
X116779930Y-116088760D01*
X117888980Y-116088760D01*
G36*
X116477410Y-116099980D02*
X116586950Y-114871520D01*
X116874220Y-115184840D01*
X116799680Y-116020230D01*
X116586190Y-116216950D01*
X116477410Y-116099980D01*
X116477410Y-116099980D01*
X116477410Y-116099980D01*
G37*
X116477410Y-116099980D02*
X116586950Y-114871520D01*
X116874220Y-115184840D01*
X116799680Y-116020230D01*
X116586190Y-116216950D01*
X116477410Y-116099980D01*
X116477410Y-116099980D01*
G36*
X118026680Y-117686847D02*
X116360830Y-117686847D01*
X116708750Y-117373533D01*
X117741840Y-117373533D01*
X118026680Y-117686847D01*
X118026680Y-117686847D01*
G37*
X118026680Y-117686847D02*
X116360830Y-117686847D01*
X116708750Y-117373533D01*
X117741840Y-117373533D01*
X118026680Y-117686847D01*
G36*
X116684010Y-117336315D02*
X116336560Y-117649738D01*
X116445790Y-116425510D01*
X116572520Y-116304470D01*
X116754220Y-116500650D01*
X116684010Y-117336315D01*
X116684010Y-117336315D01*
G37*
X116684010Y-117336315D02*
X116336560Y-117649738D01*
X116445790Y-116425510D01*
X116572520Y-116304470D01*
X116754220Y-116500650D01*
X116684010Y-117336315D01*
D12*
X149256000Y-74904000D03*
X148456000Y-74904000D03*
X147656000Y-74904000D03*
X146856000Y-74904000D03*
X146056000Y-74904000D03*
X145256000Y-74904000D03*
X144456000Y-74904000D03*
X143656000Y-74904000D03*
X142856000Y-74904000D03*
X142056000Y-74904000D03*
X141256000Y-74904000D03*
X140456000Y-74904000D03*
X139656000Y-74904000D03*
X138856000Y-74904000D03*
X138056000Y-74904000D03*
X137256000Y-74904000D03*
D13*
X135356000Y-76804000D03*
X135356000Y-77604000D03*
X135356000Y-78404000D03*
X135356000Y-79204000D03*
X135356000Y-80004000D03*
X135356000Y-80804000D03*
X135356000Y-81604000D03*
X135356000Y-82404000D03*
X135356000Y-83204000D03*
X135356000Y-84004000D03*
X135356000Y-84804000D03*
X135356000Y-85604000D03*
X135356000Y-86404000D03*
X135356000Y-87204000D03*
X135356000Y-88004000D03*
X135356000Y-88804000D03*
D12*
X137256000Y-90704000D03*
X138056000Y-90704000D03*
X138856000Y-90704000D03*
X139656000Y-90704000D03*
X140456000Y-90704000D03*
X141256000Y-90704000D03*
X142056000Y-90704000D03*
X142856000Y-90704000D03*
X143656000Y-90704000D03*
X144456000Y-90704000D03*
X145256000Y-90704000D03*
X146056000Y-90704000D03*
X146856000Y-90704000D03*
X147656000Y-90704000D03*
X148456000Y-90704000D03*
X149256000Y-90704000D03*
D13*
X151156000Y-88804000D03*
X151156000Y-88004000D03*
X151156000Y-87204000D03*
X151156000Y-86404000D03*
X151156000Y-85604000D03*
X151156000Y-84804000D03*
X151156000Y-84004000D03*
X151156000Y-83204000D03*
X151156000Y-82404000D03*
X151156000Y-81604000D03*
X151156000Y-80804000D03*
X151156000Y-80004000D03*
X151156000Y-79204000D03*
X151156000Y-78404000D03*
X151156000Y-77604000D03*
X151156000Y-76804000D03*
D14*
X168275000Y-72644000D03*
X170815000Y-72644000D03*
X170815000Y-70645020D03*
X168275000Y-70645020D03*
D15*
X163545520Y-67945000D03*
X175544480Y-67945000D03*
D16*
X104993294Y-80320142D03*
X104993294Y-75240142D03*
X112613294Y-80320142D03*
X112613294Y-75240142D03*
D17*
X125095000Y-80121000D03*
X125095000Y-78121000D03*
D18*
X107442000Y-103378000D03*
X109982000Y-103378000D03*
X112522000Y-103378000D03*
X115062000Y-103378000D03*
X117602000Y-103378000D03*
X120142000Y-103378000D03*
X122682000Y-103378000D03*
X125222000Y-103378000D03*
X127762000Y-103378000D03*
X130302000Y-103378000D03*
X132842000Y-103378000D03*
X135382000Y-103378000D03*
X137922000Y-103378000D03*
X140462000Y-103378000D03*
X143002000Y-103378000D03*
X145542000Y-103378000D03*
X148082000Y-103378000D03*
X150622000Y-103378000D03*
X153162000Y-103378000D03*
X155702000Y-103378000D03*
X158242000Y-103378000D03*
X160782000Y-103378000D03*
X163322000Y-103378000D03*
X165862000Y-103378000D03*
X168402000Y-103378000D03*
X170942000Y-103378000D03*
X173482000Y-103378000D03*
X176022000Y-103378000D03*
X178562000Y-103378000D03*
X181102000Y-103378000D03*
X183642000Y-103378000D03*
X186182000Y-103378000D03*
X115062000Y-98552000D03*
X107442000Y-98552000D03*
X109982000Y-98552000D03*
X112522000Y-98552000D03*
X117602000Y-98552000D03*
X127762000Y-98552000D03*
X120142000Y-98552000D03*
X122682000Y-98552000D03*
X125222000Y-98552000D03*
X130302000Y-98552000D03*
X132842000Y-98552000D03*
X143002000Y-98552000D03*
X135382000Y-98552000D03*
X137922000Y-98552000D03*
X140462000Y-98552000D03*
X145542000Y-98552000D03*
X148082000Y-98552000D03*
X170942000Y-98552000D03*
X173482000Y-98552000D03*
X176022000Y-98552000D03*
X178562000Y-98552000D03*
X181102000Y-98552000D03*
X183642000Y-98552000D03*
X168402000Y-98552000D03*
X186182000Y-98552000D03*
X150622000Y-98552000D03*
X153162000Y-98552000D03*
X155702000Y-98552000D03*
X158242000Y-98552000D03*
X160782000Y-98552000D03*
X163322000Y-98552000D03*
X165862000Y-98552000D03*
D17*
X145415000Y-72120000D03*
X145415000Y-70120000D03*
X125095000Y-81931000D03*
X125095000Y-83931000D03*
D19*
X153940000Y-77470000D03*
X155940000Y-77470000D03*
X153940000Y-74930000D03*
X155940000Y-74930000D03*
D17*
X147955000Y-72120000D03*
X147955000Y-70120000D03*
X132715000Y-79010000D03*
X132715000Y-81010000D03*
D19*
X109585000Y-93345000D03*
X107585000Y-93345000D03*
X184150000Y-93345000D03*
X186150000Y-93345000D03*
D20*
X124460000Y-68580000D03*
X124460000Y-71120000D03*
X113665000Y-68580000D03*
X113665000Y-71120000D03*
D21*
X152720000Y-70485000D03*
X154620000Y-70485000D03*
X152720000Y-67945000D03*
X154620000Y-67945000D03*
X146873000Y-67818000D03*
X144973000Y-67818000D03*
X131125000Y-71120000D03*
X129225000Y-71120000D03*
X119695000Y-71120000D03*
X117795000Y-71120000D03*
D22*
X129032000Y-83466940D03*
X129032000Y-78585060D03*
D23*
X170180000Y-77470000D03*
D24*
X172720000Y-77470000D03*
D19*
X115332000Y-78740000D03*
X117332000Y-78740000D03*
X117078000Y-91770200D03*
X115078000Y-91770200D03*
X111268000Y-91770200D03*
X113268000Y-91770200D03*
D25*
X137160000Y-71120000D03*
D26*
X137160000Y-68580000D03*
X139700000Y-71120000D03*
X139700000Y-68580000D03*
X142240000Y-71120000D03*
X142240000Y-68580000D03*
D22*
X111732060Y-88087200D03*
X116613940Y-88087200D03*
D27*
X117432000Y-82484000D03*
X117432000Y-81534000D03*
X117432000Y-80584000D03*
X115232000Y-80584000D03*
X115232000Y-82484000D03*
X115232000Y-81534000D03*
D21*
X115382000Y-84455000D03*
X117282000Y-84455000D03*
D28*
X112776000Y-83820000D03*
X111760000Y-84836000D03*
X110744000Y-85852000D03*
X109728000Y-86868000D03*
X109728000Y-88138000D03*
X109728000Y-89408000D03*
X150484838Y-68071980D03*
X150495000Y-70485000D03*
X118618000Y-90932000D03*
X119126000Y-78486012D03*
X120142000Y-79502008D03*
X121158000Y-80518000D03*
X111506000Y-93548200D03*
X112776000Y-93548200D03*
X114046000Y-93548200D03*
X115316000Y-93548200D03*
X116586000Y-93548200D03*
X118618000Y-89408000D03*
X118618000Y-87630000D03*
X120904000Y-88900000D03*
X120142000Y-87630000D03*
X119380000Y-86360000D03*
X119380000Y-85090000D03*
X119380000Y-83820000D03*
X119380000Y-82550000D03*
X118872000Y-81534000D03*
X146812000Y-87884000D03*
X145542000Y-87376000D03*
X144272000Y-87376000D03*
X143002000Y-87376000D03*
X141732000Y-87376000D03*
X140462000Y-87376000D03*
X139192000Y-87376000D03*
X137922000Y-87376000D03*
X147320000Y-89154000D03*
X137922000Y-89154000D03*
X139192000Y-89154000D03*
X140462000Y-89154000D03*
X141732000Y-89154000D03*
X143002000Y-89154000D03*
X145542002Y-89154000D03*
X144272000Y-89153998D03*
X134873998Y-73660000D03*
X134874000Y-72390000D03*
X132842000Y-72390000D03*
X132842000Y-73660000D03*
X145262600Y-76403190D03*
X182880000Y-67310000D03*
X180340000Y-67310000D03*
X177800000Y-69850000D03*
X180340000Y-69850000D03*
X182880000Y-69850000D03*
X182880000Y-72390000D03*
X180340000Y-72390000D03*
X177800000Y-72390000D03*
X177800000Y-74930000D03*
X180340000Y-74930000D03*
X182880000Y-74930000D03*
X185420000Y-74930000D03*
X187960000Y-74930000D03*
X190500000Y-74930000D03*
X190500000Y-77470000D03*
X187960000Y-77470000D03*
X185420000Y-77470000D03*
X182880000Y-77470000D03*
X180340000Y-77470000D03*
X177800000Y-77470000D03*
X175260000Y-77470000D03*
X145415000Y-94615000D03*
X146685000Y-94615000D03*
X147955000Y-94615000D03*
X150495000Y-95250000D03*
X150495000Y-96520000D03*
X161290000Y-76835000D03*
X160020000Y-76835000D03*
X149606000Y-85540390D03*
X130810000Y-79375000D03*
X130810000Y-78105000D03*
X130175000Y-76835000D03*
X128905000Y-76200000D03*
X127635000Y-76200000D03*
X126365000Y-76200000D03*
X125095000Y-76200000D03*
X123825000Y-76200000D03*
X122555000Y-76835000D03*
X122555000Y-78105000D03*
X122555000Y-79375000D03*
X122555000Y-80645000D03*
X122555000Y-81915000D03*
X122555000Y-83185000D03*
X122555000Y-84455000D03*
X122555000Y-85725000D03*
X123825000Y-85725000D03*
X125095000Y-85725000D03*
X126365000Y-85725000D03*
X127635000Y-85725000D03*
X128905000Y-85725000D03*
X130175000Y-85089994D03*
X131444994Y-83820000D03*
X143941800Y-70104000D03*
X149479000Y-70104000D03*
X158750000Y-71120000D03*
X160020000Y-71120000D03*
X160020000Y-69850000D03*
X161290000Y-68580000D03*
X161290000Y-69850000D03*
X161290000Y-71120000D03*
X158750000Y-76835000D03*
X157480000Y-76835000D03*
X157480000Y-75565000D03*
X158750000Y-75565000D03*
X160020000Y-75565000D03*
X161290000Y-75565000D03*
X162560000Y-76835000D03*
X163830000Y-78105000D03*
X162560000Y-78105000D03*
X161290000Y-78105000D03*
X160020000Y-78105000D03*
X158750000Y-78105000D03*
X157480000Y-78105000D03*
X149265602Y-78562200D03*
X116370269Y-96202669D03*
X122504200Y-92227398D03*
X138049000Y-92227400D03*
X126746000Y-90170000D03*
X145274996Y-92142668D03*
X129489198Y-89636600D03*
X136715602Y-76581000D03*
X130606798Y-89636600D03*
X136779000Y-77597000D03*
X149227190Y-76373467D03*
X148232596Y-76580984D03*
X142208940Y-73634610D03*
X138861800Y-73609198D03*
X114808000Y-95250000D03*
X144424400Y-92735400D03*
X143562299Y-92036266D03*
X142062196Y-93599030D03*
X142849598Y-92837020D03*
X141300200Y-94335640D03*
X140462000Y-95072250D03*
X170967400Y-84074000D03*
X176022006Y-91338400D03*
X178587400Y-92760800D03*
X168325800Y-88036400D03*
X153162000Y-84785200D03*
X155669800Y-79204000D03*
X158210800Y-87204000D03*
X160782000Y-87198202D03*
X163322000Y-79908400D03*
X133985004Y-66802000D03*
X133883400Y-77673200D03*
X173482000Y-89941400D03*
X165691200Y-88004000D03*
X139674600Y-76352400D03*
X141300200Y-73152000D03*
X140690603Y-76352400D03*
X122135738Y-88099738D03*
D29*
X111760000Y-84836000D02*
X112776000Y-83820000D01*
X110744000Y-85852000D02*
X111760000Y-84836000D01*
X109728000Y-86868000D02*
X110744000Y-85852000D01*
D30*
X109728000Y-90043000D02*
X109728000Y-89408000D01*
X109728000Y-88138000D02*
X109728000Y-86868000D01*
D29*
X115232000Y-81534000D02*
X114147600Y-81534000D01*
X114147600Y-81534000D02*
X114046000Y-81432400D01*
X114046000Y-77216000D02*
X114046000Y-81432400D01*
X132715000Y-79010000D02*
X132715000Y-76799402D01*
X113309400Y-82169000D02*
X103505000Y-82169000D01*
X132715000Y-76799402D02*
X130566208Y-74650610D01*
X130566208Y-74650610D02*
X120827790Y-74650610D01*
X120827790Y-74650610D02*
X118948200Y-76530200D01*
X118948200Y-76530200D02*
X114731800Y-76530200D01*
X114731800Y-76530200D02*
X114046000Y-77216000D01*
X114046000Y-81432400D02*
X113309400Y-82169000D01*
X103505000Y-82169000D02*
X103479600Y-82194400D01*
X103479600Y-82194400D02*
X103479600Y-82931000D01*
X103479600Y-86842600D02*
X103479600Y-82931000D01*
X103479600Y-82931000D02*
X103479600Y-82550000D01*
X103479600Y-78765400D02*
X103479600Y-82550000D01*
X103479600Y-82550000D02*
X103479600Y-88341200D01*
X109585000Y-91948000D02*
X108585000Y-91948000D01*
X108585000Y-91948000D02*
X103479600Y-86842600D01*
X109585000Y-93345000D02*
X109585000Y-91948000D01*
D31*
X113665000Y-68580000D02*
X108839000Y-73406000D01*
X108839000Y-73406000D02*
X105210978Y-73406000D01*
X105210978Y-73406000D02*
X103479600Y-75137378D01*
X103479600Y-75137378D02*
X103479600Y-78765400D01*
X124460000Y-68580000D02*
X123317000Y-67437000D01*
D29*
X123317000Y-67437000D02*
X114808000Y-67437000D01*
D31*
X114808000Y-67437000D02*
X113665000Y-68580000D01*
D30*
X150230858Y-67818000D02*
X150484838Y-68071980D01*
X146873000Y-67818000D02*
X150230858Y-67818000D01*
D32*
X143662400Y-80168400D02*
X143662400Y-82067400D01*
X143662400Y-82067400D02*
X147999000Y-86404000D01*
X147999000Y-86404000D02*
X151156000Y-86404000D01*
X150018000Y-76804000D02*
X149377400Y-77444600D01*
X151156000Y-76804000D02*
X150018000Y-76804000D01*
X147656000Y-74904000D02*
X147656000Y-75881070D01*
X147656000Y-75881070D02*
X146837400Y-76699670D01*
X146837400Y-76699670D02*
X146837400Y-77012800D01*
X147269200Y-77444600D02*
X146837400Y-77012800D01*
X149377400Y-77444600D02*
X147269200Y-77444600D01*
X146837400Y-77012800D02*
X146583400Y-77266800D01*
X146583400Y-77266800D02*
X143662400Y-77266800D01*
X143662400Y-77266800D02*
X143662400Y-76737984D01*
D30*
X148860000Y-72120000D02*
X150495000Y-70485000D01*
X147955000Y-72120000D02*
X148860000Y-72120000D01*
D29*
X103479600Y-88341200D02*
X103479600Y-89814400D01*
X168379140Y-77470000D02*
X168379140Y-79032100D01*
X171033440Y-81686400D02*
X183464200Y-81686400D01*
X168379140Y-79032100D02*
X171033440Y-81686400D01*
X107315000Y-111887000D02*
X103479600Y-108051600D01*
X183464200Y-81686400D02*
X190601600Y-88823800D01*
X190601600Y-88823800D02*
X190601600Y-106121200D01*
X190601600Y-106121200D02*
X184835800Y-111887000D01*
X184835800Y-111887000D02*
X107315000Y-111887000D01*
X103479600Y-108051600D02*
X103479600Y-88341200D01*
D32*
X151156000Y-76804000D02*
X152066000Y-76804000D01*
X152066000Y-76804000D02*
X153940000Y-74930000D01*
D29*
X168275000Y-72644000D02*
X168275000Y-77365860D01*
X168275000Y-77365860D02*
X168379140Y-77470000D01*
X109982000Y-98552000D02*
X109601000Y-98171000D01*
X109601000Y-98171000D02*
X109601000Y-93361000D01*
X109601000Y-93361000D02*
X109585000Y-93345000D01*
D32*
X147656000Y-74904000D02*
X147656000Y-72419000D01*
X147656000Y-72419000D02*
X147955000Y-72120000D01*
X135356000Y-80004000D02*
X133709000Y-80004000D01*
X133709000Y-80004000D02*
X132715000Y-79010000D01*
X143662400Y-75983362D02*
X143662400Y-76737984D01*
X143662400Y-76737984D02*
X143662400Y-80168400D01*
X135356000Y-80004000D02*
X143498000Y-80004000D01*
X143498000Y-80004000D02*
X143662400Y-80168400D01*
X143656000Y-74904000D02*
X143656000Y-75976962D01*
X143656000Y-75976962D02*
X143662400Y-75983362D01*
D30*
X115078000Y-91770200D02*
X115078000Y-93310200D01*
X115078000Y-93310200D02*
X115316000Y-93548200D01*
D29*
X115316000Y-93548200D02*
X116586000Y-93548200D01*
X114046000Y-93548200D02*
X115316000Y-93548200D01*
X112776000Y-93548200D02*
X114046000Y-93548200D01*
X111506000Y-93548200D02*
X112776000Y-93548200D01*
X118618000Y-89408000D02*
X118618000Y-90932000D01*
X119126004Y-78486012D02*
X119126000Y-78486012D01*
X120142000Y-79502008D02*
X119126004Y-78486012D01*
X119380000Y-86868000D02*
X118618000Y-87630000D01*
D32*
X119380000Y-86360000D02*
X119380000Y-86868000D01*
X119380000Y-86868000D02*
X120142000Y-87630000D01*
X119380000Y-83820000D02*
X119380000Y-85090000D01*
X119380000Y-82550000D02*
X119380000Y-83820000D01*
X117432000Y-81534000D02*
X118872000Y-81534000D01*
D29*
X145542000Y-87376000D02*
X146304000Y-87376000D01*
X146304000Y-87376000D02*
X146812000Y-87884000D01*
X143002000Y-87376000D02*
X144272000Y-87376000D01*
X140462000Y-87376000D02*
X141732000Y-87376000D01*
X139192000Y-87376000D02*
X140462000Y-87376000D01*
X137922000Y-89154000D02*
X137922000Y-87376000D01*
X145542002Y-89154000D02*
X147320000Y-89154000D01*
X139192000Y-89154000D02*
X137922000Y-89154000D01*
X141732000Y-89154000D02*
X140462000Y-89154000D01*
X144272000Y-89153998D02*
X143002002Y-89153998D01*
X143002002Y-89153998D02*
X143002000Y-89154000D01*
X144272000Y-89153998D02*
X145542000Y-89153998D01*
X145542000Y-89153998D02*
X145542002Y-89154000D01*
X132842000Y-73660000D02*
X134873998Y-73660000D01*
X132842000Y-72390000D02*
X134874000Y-72390000D01*
D32*
X145256000Y-74904000D02*
X145256000Y-76396590D01*
X145256000Y-76396590D02*
X145262600Y-76403190D01*
D30*
X125095000Y-81931000D02*
X123885200Y-81931000D01*
X123885200Y-81931000D02*
X123587000Y-82229200D01*
X123587000Y-82229200D02*
X123587000Y-84142362D01*
X123587000Y-84142362D02*
X124205839Y-84761201D01*
X124205839Y-84761201D02*
X130503793Y-84761201D01*
X130503793Y-84761201D02*
X131038595Y-84226399D01*
X131038595Y-84226399D02*
X131444994Y-83820000D01*
D29*
X180340000Y-67310000D02*
X182880000Y-67310000D01*
X180340000Y-69850000D02*
X177800000Y-69850000D01*
X182880000Y-72390000D02*
X182880000Y-69850000D01*
X177800000Y-72390000D02*
X180340000Y-72390000D01*
X180340000Y-74930000D02*
X177800000Y-74930000D01*
X185420000Y-74930000D02*
X182880000Y-74930000D01*
X190500000Y-74930000D02*
X187960000Y-74930000D01*
X187960000Y-77470000D02*
X190500000Y-77470000D01*
X182880000Y-77470000D02*
X185420000Y-77470000D01*
X177800000Y-77470000D02*
X180340000Y-77470000D01*
X172720000Y-77470000D02*
X175260000Y-77470000D01*
X146685000Y-94615000D02*
X145415000Y-94615000D01*
X150495000Y-95250000D02*
X148590000Y-95250000D01*
X148590000Y-95250000D02*
X147955000Y-94615000D01*
X150495000Y-96520000D02*
X150495000Y-95250000D01*
X160020000Y-76835000D02*
X161290000Y-76835000D01*
X155940000Y-77470000D02*
X156845000Y-77470000D01*
X156845000Y-77470000D02*
X157480000Y-78105000D01*
D32*
X151156000Y-85604000D02*
X149669610Y-85604000D01*
X149669610Y-85604000D02*
X149606000Y-85540390D01*
D30*
X130810000Y-78105000D02*
X130810000Y-79375000D01*
X128905000Y-76200000D02*
X129540000Y-76200000D01*
X129540000Y-76200000D02*
X130175000Y-76835000D01*
X126365000Y-76200000D02*
X127635000Y-76200000D01*
X123825000Y-76200000D02*
X125095000Y-76200000D01*
X122555000Y-78105000D02*
X122555000Y-76835000D01*
X122555000Y-80645000D02*
X122555000Y-79375000D01*
X122555000Y-83185000D02*
X122555000Y-81915000D01*
X122555000Y-85725000D02*
X122555000Y-84455000D01*
X125095000Y-85725000D02*
X123825000Y-85725000D01*
X127635000Y-85725000D02*
X126365000Y-85725000D01*
X129540006Y-85089994D02*
X128905000Y-85725000D01*
X130175000Y-85089994D02*
X129540006Y-85089994D01*
D32*
X151156000Y-77604000D02*
X150223802Y-77604000D01*
D29*
X186182000Y-98552000D02*
X186182000Y-93377000D01*
X186182000Y-93377000D02*
X186150000Y-93345000D01*
X107585000Y-93345000D02*
X107585000Y-98409000D01*
X107585000Y-98409000D02*
X107442000Y-98552000D01*
D32*
X145415000Y-70120000D02*
X143957800Y-70120000D01*
X143957800Y-70120000D02*
X143941800Y-70104000D01*
X147955000Y-70120000D02*
X149463000Y-70120000D01*
X149463000Y-70120000D02*
X149479000Y-70104000D01*
X135356000Y-80804000D02*
X132921000Y-80804000D01*
X132921000Y-80804000D02*
X132715000Y-81010000D01*
D29*
X160020000Y-69850000D02*
X160020000Y-71120000D01*
X161290000Y-69850000D02*
X161290000Y-68580000D01*
X161290000Y-75565000D02*
X161290000Y-71120000D01*
X157480000Y-76835000D02*
X158750000Y-76835000D01*
X158750000Y-75565000D02*
X157480000Y-75565000D01*
X161290000Y-75565000D02*
X160020000Y-75565000D01*
X163830000Y-78105000D02*
X162560000Y-76835000D01*
X161290000Y-78105000D02*
X162560000Y-78105000D01*
X158750000Y-78105000D02*
X160020000Y-78105000D01*
D32*
X150223802Y-77604000D02*
X149265602Y-78562200D01*
D30*
X144456000Y-74904000D02*
X144456000Y-73831600D01*
X144456000Y-73831600D02*
X145415000Y-72872600D01*
X145415000Y-72872600D02*
X145415000Y-72120000D01*
X125095000Y-83931000D02*
X128567940Y-83931000D01*
X128567940Y-83931000D02*
X129032000Y-83466940D01*
X135356000Y-82404000D02*
X130094940Y-82404000D01*
X130094940Y-82404000D02*
X129032000Y-83466940D01*
X125095000Y-78121000D02*
X128567940Y-78121000D01*
X128567940Y-78121000D02*
X129032000Y-78585060D01*
X135356000Y-81604000D02*
X134352000Y-81604000D01*
X134115799Y-81840201D02*
X131225675Y-81840201D01*
X134352000Y-81604000D02*
X134115799Y-81840201D01*
X131225675Y-81840201D02*
X129032000Y-79646526D01*
X129032000Y-79646526D02*
X129032000Y-78585060D01*
X151156000Y-78404000D02*
X153015400Y-78404000D01*
X153015400Y-78404000D02*
X153940000Y-77479400D01*
X153940000Y-77479400D02*
X153940000Y-77470000D01*
X119695000Y-71120000D02*
X120299000Y-71120000D01*
X132689000Y-74904000D02*
X137256000Y-74904000D01*
X120299000Y-71120000D02*
X122356400Y-73177400D01*
X122356400Y-73177400D02*
X130962400Y-73177400D01*
X130962400Y-73177400D02*
X132689000Y-74904000D01*
X131125000Y-71120000D02*
X134694170Y-71120000D01*
X138056000Y-73900000D02*
X138056000Y-74904000D01*
X134694170Y-71120000D02*
X136599170Y-73025000D01*
X136599170Y-73025000D02*
X137181000Y-73025000D01*
X137181000Y-73025000D02*
X138056000Y-73900000D01*
X156939704Y-70485000D02*
X155224000Y-70485000D01*
X169595800Y-70129400D02*
X165727583Y-66261183D01*
X169595800Y-71424800D02*
X169595800Y-70129400D01*
X170815000Y-72644000D02*
X169595800Y-71424800D01*
X155224000Y-70485000D02*
X154620000Y-70485000D01*
X161163521Y-66261183D02*
X156939704Y-70485000D01*
X165727583Y-66261183D02*
X161163521Y-66261183D01*
X170815000Y-70645020D02*
X165955980Y-65786000D01*
X165955980Y-65786000D02*
X160985200Y-65786000D01*
X160985200Y-65786000D02*
X157784800Y-68986400D01*
X155595000Y-67945000D02*
X155224000Y-67945000D01*
X157784800Y-68986400D02*
X156636400Y-68986400D01*
X156636400Y-68986400D02*
X155595000Y-67945000D01*
X155224000Y-67945000D02*
X154620000Y-67945000D01*
X134352000Y-83204000D02*
X135356000Y-83204000D01*
X115062000Y-103378000D02*
X113842799Y-102158799D01*
X113842799Y-102158799D02*
X113842799Y-97688401D01*
X130510200Y-87045800D02*
X134352000Y-83204000D01*
X113842799Y-97688401D02*
X124485400Y-87045800D01*
X124485400Y-87045800D02*
X130510200Y-87045800D01*
X134325022Y-84004000D02*
X130826011Y-87503011D01*
X125069927Y-87503011D02*
X116776668Y-95796270D01*
X130826011Y-87503011D02*
X125069927Y-87503011D01*
X135356000Y-84004000D02*
X134325022Y-84004000D01*
X116776668Y-95796270D02*
X116370269Y-96202669D01*
X122097801Y-92633797D02*
X122504200Y-92227398D01*
X118922799Y-102158799D02*
X118922799Y-95808799D01*
X120142000Y-103378000D02*
X118922799Y-102158799D01*
X118922799Y-95808799D02*
X122097801Y-92633797D01*
X138049000Y-92227400D02*
X138049000Y-90711000D01*
X138049000Y-90711000D02*
X138056000Y-90704000D01*
X123901201Y-102158799D02*
X123570999Y-102489001D01*
X126746000Y-90170000D02*
X123901201Y-93014799D01*
X123901201Y-93014799D02*
X123901201Y-102158799D01*
X123570999Y-102489001D02*
X122682000Y-103378000D01*
X145256000Y-92123672D02*
X145274996Y-92142668D01*
X145256000Y-90704000D02*
X145256000Y-92123672D01*
X129082799Y-90042999D02*
X129489198Y-89636600D01*
X126441201Y-92684597D02*
X129082799Y-90042999D01*
X126441201Y-102158799D02*
X126441201Y-92684597D01*
X125222000Y-103378000D02*
X126441201Y-102158799D01*
X136715602Y-76581000D02*
X138813030Y-76581000D01*
X138813030Y-76581000D02*
X139321031Y-77089001D01*
X139321031Y-77089001D02*
X141674999Y-77089001D01*
X141674999Y-77089001D02*
X142856000Y-75908000D01*
X142856000Y-75908000D02*
X142856000Y-74904000D01*
X130200399Y-90042999D02*
X130606798Y-89636600D01*
X128981201Y-91262197D02*
X130200399Y-90042999D01*
X127762000Y-103378000D02*
X128981201Y-102158799D01*
X128981201Y-102158799D02*
X128981201Y-91262197D01*
X136772000Y-77604000D02*
X136779000Y-77597000D01*
X135356000Y-77604000D02*
X136772000Y-77604000D01*
X149256000Y-76344657D02*
X149227190Y-76373467D01*
X149256000Y-74904000D02*
X149256000Y-76344657D01*
X148456000Y-76357580D02*
X148232596Y-76580984D01*
X148456000Y-74904000D02*
X148456000Y-76357580D01*
X146056000Y-90704000D02*
X146056000Y-91700000D01*
X146056000Y-91700000D02*
X147751800Y-93395800D01*
X154890218Y-93395800D02*
X159562799Y-98068381D01*
X147751800Y-93395800D02*
X154890218Y-93395800D01*
X159893001Y-102489001D02*
X160782000Y-103378000D01*
X159562799Y-98068381D02*
X159562799Y-102158799D01*
X159562799Y-102158799D02*
X159893001Y-102489001D01*
X162102799Y-98094799D02*
X162102799Y-102158799D01*
X162433001Y-102489001D02*
X163322000Y-103378000D01*
X162102799Y-102158799D02*
X162433001Y-102489001D01*
X156946589Y-92938589D02*
X162102799Y-98094799D01*
X146856000Y-90704000D02*
X146856000Y-91708000D01*
X146856000Y-91708000D02*
X148086589Y-92938589D01*
X148086589Y-92938589D02*
X156946589Y-92938589D01*
X164973001Y-102489001D02*
X165862000Y-103378000D01*
X159055796Y-92481378D02*
X164642799Y-98068381D01*
X147656000Y-90704000D02*
X147656000Y-91708000D01*
X147656000Y-91708000D02*
X148429378Y-92481378D01*
X148429378Y-92481378D02*
X159055796Y-92481378D01*
X164642799Y-98068381D02*
X164642799Y-102158799D01*
X164642799Y-102158799D02*
X164973001Y-102489001D01*
X167513001Y-102489001D02*
X168402000Y-103378000D01*
X161138585Y-92024167D02*
X167182799Y-98068381D01*
X148772167Y-92024167D02*
X161138585Y-92024167D01*
X148456000Y-91708000D02*
X148772167Y-92024167D01*
X167182799Y-98068381D02*
X167182799Y-102158799D01*
X148456000Y-90704000D02*
X148456000Y-91708000D01*
X167182799Y-102158799D02*
X167513001Y-102489001D01*
X176022000Y-103378000D02*
X177279235Y-103378000D01*
X177279235Y-103378000D02*
X178562000Y-103378000D01*
X142056000Y-74904000D02*
X142056000Y-73787550D01*
X142056000Y-73787550D02*
X142208940Y-73634610D01*
X138856000Y-73614998D02*
X138861800Y-73609198D01*
X138856000Y-74904000D02*
X138856000Y-73614998D01*
X134352000Y-84804000D02*
X135356000Y-84804000D01*
X125653778Y-87960222D02*
X131015392Y-87960222D01*
X117106870Y-96507130D02*
X125653778Y-87960222D01*
X117106870Y-96556238D02*
X117106870Y-96507130D01*
X116000107Y-97663001D02*
X117106870Y-96556238D01*
X115062000Y-98552000D02*
X115950999Y-97663001D01*
X115950999Y-97663001D02*
X116000107Y-97663001D01*
X131015392Y-87960222D02*
X134171614Y-84804000D01*
X134171614Y-84804000D02*
X134352000Y-84804000D01*
X112522000Y-97294765D02*
X114566765Y-95250000D01*
X112522000Y-98552000D02*
X112522000Y-97294765D01*
X114566765Y-95250000D02*
X114808000Y-95250000D01*
X144456000Y-92703800D02*
X144424400Y-92735400D01*
X144456000Y-90704000D02*
X144456000Y-92703800D01*
X143656000Y-91942565D02*
X143562299Y-92036266D01*
X143656000Y-90704000D02*
X143656000Y-91942565D01*
X142056000Y-90704000D02*
X142056000Y-93592834D01*
X142056000Y-93592834D02*
X142062196Y-93599030D01*
X134352000Y-85604000D02*
X135356000Y-85604000D01*
X120142000Y-98552000D02*
X120142000Y-95730572D01*
X134018208Y-85604000D02*
X134352000Y-85604000D01*
X131204775Y-88417433D02*
X134018208Y-85604000D01*
X120142000Y-95730572D02*
X127455139Y-88417433D01*
X127455139Y-88417433D02*
X131204775Y-88417433D01*
X142856000Y-90704000D02*
X142856000Y-91708000D01*
X142849598Y-92262284D02*
X142849598Y-92837020D01*
X142825697Y-91738303D02*
X142825697Y-92238383D01*
X142856000Y-91708000D02*
X142825697Y-91738303D01*
X142825697Y-92238383D02*
X142849598Y-92262284D01*
X129135584Y-88874644D02*
X131394156Y-88874644D01*
X133864800Y-86404000D02*
X134352000Y-86404000D01*
X131394156Y-88874644D02*
X133864800Y-86404000D01*
X125222000Y-92788228D02*
X129135584Y-88874644D01*
X134352000Y-86404000D02*
X135356000Y-86404000D01*
X125222000Y-98552000D02*
X125222000Y-92788228D01*
X131419601Y-97434399D02*
X131419601Y-90136399D01*
X130302000Y-98552000D02*
X131419601Y-97434399D01*
X134352000Y-87204000D02*
X135356000Y-87204000D01*
X131419601Y-90136399D02*
X134352000Y-87204000D01*
X141256000Y-94291440D02*
X141300200Y-94335640D01*
X141256000Y-90704000D02*
X141256000Y-94291440D01*
X143002000Y-98552000D02*
X144424400Y-99974400D01*
X139656000Y-91708000D02*
X139656000Y-90704000D01*
X144424400Y-99974400D02*
X148565616Y-99974400D01*
X149402799Y-99137217D02*
X149402799Y-98068381D01*
X148565616Y-99974400D02*
X149402799Y-99137217D01*
X147143259Y-95808841D02*
X140815579Y-95808841D01*
X149402799Y-98068381D02*
X147143259Y-95808841D01*
X140133879Y-95808851D02*
X139656000Y-95330972D01*
X140815579Y-95808841D02*
X140815569Y-95808851D01*
X140815569Y-95808851D02*
X140133879Y-95808851D01*
X139656000Y-95330972D02*
X139656000Y-91708000D01*
X135356000Y-88004000D02*
X134561638Y-88004000D01*
X134561638Y-88004000D02*
X134275799Y-88289839D01*
X134493001Y-97663001D02*
X135382000Y-98552000D01*
X134275799Y-88289839D02*
X134275799Y-97445799D01*
X134275799Y-97445799D02*
X134493001Y-97663001D01*
X135356000Y-98526000D02*
X135382000Y-98552000D01*
X140456000Y-90704000D02*
X140456000Y-95066250D01*
X140456000Y-95066250D02*
X140462000Y-95072250D01*
X135356000Y-88804000D02*
X135356000Y-93446000D01*
X135356000Y-93446000D02*
X137256000Y-95346000D01*
X137256000Y-95346000D02*
X140462000Y-98552000D01*
X137256000Y-90704000D02*
X137256000Y-94253800D01*
X137256000Y-94253800D02*
X139827011Y-96824811D01*
X139827011Y-96824811D02*
X143814811Y-96824811D01*
X143814811Y-96824811D02*
X144653001Y-97663001D01*
X144653001Y-97663001D02*
X145542000Y-98552000D01*
X138856000Y-91708000D02*
X138856000Y-90704000D01*
X140020587Y-96367600D02*
X138856000Y-95203013D01*
X148082000Y-98552000D02*
X145897600Y-96367600D01*
X145897600Y-96367600D02*
X140020587Y-96367600D01*
X138856000Y-95203013D02*
X138856000Y-91708000D01*
X151156000Y-80804000D02*
X167697400Y-80804000D01*
X167697400Y-80804000D02*
X170967400Y-84074000D01*
X175615607Y-90932001D02*
X176022006Y-91338400D01*
X167087606Y-82404000D02*
X175615607Y-90932001D01*
X151156000Y-82404000D02*
X167087606Y-82404000D01*
X178181001Y-92354401D02*
X178587400Y-92760800D01*
X167430600Y-81604000D02*
X178181001Y-92354401D01*
X151156000Y-81604000D02*
X167430600Y-81604000D01*
X167919401Y-87630001D02*
X168325800Y-88036400D01*
X163493400Y-83204000D02*
X167919401Y-87630001D01*
X151156000Y-83204000D02*
X163493400Y-83204000D01*
X152178800Y-84785200D02*
X153162000Y-84785200D01*
X151156000Y-84804000D02*
X152160000Y-84804000D01*
X152160000Y-84804000D02*
X152178800Y-84785200D01*
X151156000Y-79204000D02*
X155669800Y-79204000D01*
X151156000Y-87204000D02*
X158210800Y-87204000D01*
X160375601Y-86791803D02*
X160782000Y-87198202D01*
X157587798Y-84004000D02*
X160375601Y-86791803D01*
X151156000Y-84004000D02*
X157587798Y-84004000D01*
X151156000Y-80004000D02*
X163226400Y-80004000D01*
X163226400Y-80004000D02*
X163322000Y-79908400D01*
X133985004Y-66802000D02*
X140970000Y-66802000D01*
X140970000Y-66802000D02*
X143205200Y-66802000D01*
X142240000Y-71120000D02*
X140970000Y-69850000D01*
X140970000Y-69850000D02*
X140970000Y-66802000D01*
X143205200Y-66802000D02*
X144221200Y-67818000D01*
X144221200Y-67818000D02*
X144973000Y-67818000D01*
X135356000Y-79204000D02*
X134352000Y-79204000D01*
X134352000Y-79204000D02*
X133883400Y-78735400D01*
X133883400Y-78735400D02*
X133883400Y-77673200D01*
X112613294Y-75240142D02*
X118942858Y-75240142D01*
X118942858Y-75240142D02*
X120243600Y-73939400D01*
X120243600Y-73939400D02*
X130860800Y-73939400D01*
X133725400Y-76804000D02*
X135356000Y-76804000D01*
X130860800Y-73939400D02*
X133725400Y-76804000D01*
X104993294Y-75240142D02*
X112613294Y-75240142D01*
X173075601Y-89535001D02*
X173482000Y-89941400D01*
X172344600Y-88804000D02*
X173075601Y-89535001D01*
X151156000Y-88804000D02*
X172344600Y-88804000D01*
X149256000Y-90704000D02*
X173254000Y-90704000D01*
X173254000Y-90704000D02*
X181102000Y-98552000D01*
X151156000Y-88004000D02*
X165116464Y-88004000D01*
X165116464Y-88004000D02*
X165691200Y-88004000D01*
X137160000Y-71120000D02*
X138887200Y-72847200D01*
X138887200Y-72847200D02*
X139342370Y-72847200D01*
X139342370Y-72847200D02*
X139656000Y-73160830D01*
X139656000Y-73160830D02*
X139656000Y-73787000D01*
X139656000Y-73787000D02*
X139656000Y-74904000D01*
X139656000Y-74904000D02*
X139656000Y-76333800D01*
X139656000Y-76333800D02*
X139674600Y-76352400D01*
X139700000Y-71120000D02*
X141300200Y-72720200D01*
X141300200Y-72720200D02*
X141300200Y-73152000D01*
X141256000Y-73196200D02*
X141300200Y-73152000D01*
X141256000Y-74904000D02*
X141256000Y-73196200D01*
X140456000Y-74904000D02*
X140456000Y-73314238D01*
X140456000Y-73314238D02*
X139506362Y-72364600D01*
X139506362Y-72364600D02*
X139192000Y-72364600D01*
X138836401Y-69443599D02*
X139700000Y-68580000D01*
X139192000Y-72364600D02*
X138430000Y-71602600D01*
X138430000Y-71602600D02*
X138430000Y-69850000D01*
X138430000Y-69850000D02*
X138836401Y-69443599D01*
X140456000Y-74904000D02*
X140456000Y-76117797D01*
X140456000Y-76117797D02*
X140690603Y-76352400D01*
X146856000Y-74904000D02*
X146837400Y-74885400D01*
X146837400Y-69518265D02*
X147065866Y-69289799D01*
X146837400Y-74885400D02*
X146837400Y-69518265D01*
X147065866Y-69289799D02*
X150920799Y-69289799D01*
X150920799Y-69289799D02*
X152116000Y-70485000D01*
X152116000Y-70485000D02*
X152720000Y-70485000D01*
X146056000Y-74904000D02*
X146056000Y-73779000D01*
X146056000Y-73779000D02*
X146370201Y-73464799D01*
X146370201Y-73464799D02*
X146370201Y-69301199D01*
X146370201Y-69301199D02*
X146862800Y-68808600D01*
X146862800Y-68808600D02*
X150881400Y-68808600D01*
X150881400Y-68808600D02*
X151745000Y-67945000D01*
X152116000Y-67945000D02*
X152720000Y-67945000D01*
X151745000Y-67945000D02*
X152116000Y-67945000D01*
X129225000Y-71120000D02*
X124460000Y-71120000D01*
X117795000Y-71120000D02*
X113665000Y-71120000D01*
X117282000Y-83378000D02*
X117432000Y-83228000D01*
X117432000Y-83228000D02*
X117432000Y-82484000D01*
X117282000Y-84455000D02*
X117282000Y-83378000D01*
X116613940Y-86840060D02*
X117282000Y-86172000D01*
X117282000Y-86172000D02*
X117282000Y-84455000D01*
X116613940Y-88087200D02*
X116613940Y-86840060D01*
X117078000Y-91770200D02*
X117078000Y-88551260D01*
X117078000Y-88551260D02*
X116613940Y-88087200D01*
X115382000Y-83378000D02*
X115232000Y-83228000D01*
X115232000Y-83228000D02*
X115232000Y-82484000D01*
X115382000Y-84455000D02*
X115382000Y-83378000D01*
X111732060Y-88087200D02*
X111732060Y-87025734D01*
X111732060Y-87025734D02*
X114302794Y-84455000D01*
X114302794Y-84455000D02*
X114778000Y-84455000D01*
X114778000Y-84455000D02*
X115382000Y-84455000D01*
X116332000Y-82168000D02*
X116332000Y-80900000D01*
X116332000Y-80900000D02*
X116648000Y-80584000D01*
X116648000Y-80584000D02*
X117432000Y-80584000D01*
X115232000Y-82484000D02*
X116016000Y-82484000D01*
X116016000Y-82484000D02*
X116332000Y-82168000D01*
X115227060Y-82484000D02*
X115232000Y-82484000D01*
X111268000Y-91770200D02*
X111268000Y-88551260D01*
X111268000Y-88551260D02*
X111732060Y-88087200D01*
X115232000Y-80584000D02*
X115232000Y-80094000D01*
X120396000Y-86360000D02*
X121158000Y-87122000D01*
X115232000Y-80094000D02*
X115397201Y-79928799D01*
X115397201Y-79928799D02*
X118790799Y-79928799D01*
X118790799Y-79928799D02*
X120396000Y-81534000D01*
X120396000Y-81534000D02*
X120396000Y-86360000D01*
X121158000Y-87122000D02*
X122135738Y-88099738D01*
X153162000Y-103378000D02*
X151765000Y-104775000D01*
X151765000Y-104775000D02*
X144399000Y-104775000D01*
X144399000Y-104775000D02*
X143890999Y-104266999D01*
X143890999Y-104266999D02*
X143002000Y-103378000D01*
G36*
X183285652Y-65535042D02*
X183309369Y-65542237D01*
X183331216Y-65553914D01*
X183350368Y-65569632D01*
X183366086Y-65588784D01*
X183377763Y-65610631D01*
X183384958Y-65634348D01*
X183388000Y-65665236D01*
X183388000Y-71014790D01*
X183388612Y-71027239D01*
X183393493Y-71076792D01*
X183398350Y-71101209D01*
X183412804Y-71148857D01*
X183422330Y-71171857D01*
X183445802Y-71215771D01*
X183459635Y-71236473D01*
X183491223Y-71274963D01*
X183499592Y-71284198D01*
X185255802Y-73040408D01*
X185265037Y-73048777D01*
X185303527Y-73080365D01*
X185324229Y-73094198D01*
X185368143Y-73117670D01*
X185391143Y-73127196D01*
X185438791Y-73141650D01*
X185463208Y-73146507D01*
X185512761Y-73151388D01*
X185525210Y-73152000D01*
X190874764Y-73152000D01*
X190905652Y-73155042D01*
X190929369Y-73162237D01*
X190951216Y-73173914D01*
X190970368Y-73189632D01*
X190986086Y-73208784D01*
X190997763Y-73230631D01*
X191004958Y-73254348D01*
X191008000Y-73285236D01*
X191008000Y-79114764D01*
X191004958Y-79145652D01*
X190997763Y-79169369D01*
X190986086Y-79191216D01*
X190970368Y-79210368D01*
X190951216Y-79226086D01*
X190929369Y-79237763D01*
X190905652Y-79244958D01*
X190874764Y-79248000D01*
X171964236Y-79248000D01*
X171933348Y-79244958D01*
X171909631Y-79237763D01*
X171887784Y-79226086D01*
X171868632Y-79210368D01*
X171852914Y-79191216D01*
X171841237Y-79169369D01*
X171834042Y-79145652D01*
X171831000Y-79114764D01*
X171831000Y-78538608D01*
X171900703Y-78468905D01*
X172010811Y-78662179D01*
X172257021Y-78777628D01*
X172521023Y-78842825D01*
X172792671Y-78855265D01*
X173061527Y-78814470D01*
X173317258Y-78722008D01*
X173429189Y-78662179D01*
X173539298Y-78468904D01*
X172720000Y-77649605D01*
X172705858Y-77663748D01*
X172526252Y-77484142D01*
X172540395Y-77470000D01*
X172899605Y-77470000D01*
X173718904Y-78289298D01*
X173912179Y-78179189D01*
X174027628Y-77932979D01*
X174092825Y-77668977D01*
X174105265Y-77397329D01*
X174064470Y-77128473D01*
X173972008Y-76872742D01*
X173912179Y-76760811D01*
X173718904Y-76650702D01*
X172899605Y-77470000D01*
X172540395Y-77470000D01*
X172526252Y-77455858D01*
X172705858Y-77276252D01*
X172720000Y-77290395D01*
X173539298Y-76471096D01*
X173429189Y-76277821D01*
X173182979Y-76162372D01*
X172918977Y-76097175D01*
X172647329Y-76084735D01*
X172378473Y-76125530D01*
X172122742Y-76217992D01*
X172010811Y-76277821D01*
X171900703Y-76471095D01*
X171831000Y-76401392D01*
X171831000Y-75190236D01*
X171834042Y-75159348D01*
X171841237Y-75135631D01*
X171852914Y-75113784D01*
X171868632Y-75094632D01*
X171887784Y-75078914D01*
X171909631Y-75067237D01*
X171933348Y-75060042D01*
X171964236Y-75057000D01*
X172466000Y-75057000D01*
X172478449Y-75056388D01*
X172528002Y-75051507D01*
X172552419Y-75046651D01*
X172600068Y-75032197D01*
X172623069Y-75022669D01*
X172666982Y-74999197D01*
X172687683Y-74985365D01*
X172726173Y-74953777D01*
X172743777Y-74936173D01*
X172775365Y-74897683D01*
X172789197Y-74876982D01*
X172812669Y-74833069D01*
X172822197Y-74810068D01*
X172836651Y-74762419D01*
X172841507Y-74738002D01*
X172846388Y-74688449D01*
X172847000Y-74676000D01*
X172847000Y-69193909D01*
X174475176Y-69193909D01*
X174627569Y-69423085D01*
X174933547Y-69573564D01*
X175263003Y-69661459D01*
X175603277Y-69683392D01*
X175941290Y-69638518D01*
X176264054Y-69528564D01*
X176461391Y-69423085D01*
X176613784Y-69193909D01*
X175544480Y-68124605D01*
X174475176Y-69193909D01*
X172847000Y-69193909D01*
X172847000Y-68003797D01*
X173806088Y-68003797D01*
X173850962Y-68341810D01*
X173960916Y-68664574D01*
X174066395Y-68861911D01*
X174295571Y-69014304D01*
X175364875Y-67945000D01*
X175724085Y-67945000D01*
X176793389Y-69014304D01*
X177022565Y-68861911D01*
X177173044Y-68555933D01*
X177260939Y-68226477D01*
X177282872Y-67886203D01*
X177237998Y-67548190D01*
X177128044Y-67225426D01*
X177022565Y-67028089D01*
X176793389Y-66875696D01*
X175724085Y-67945000D01*
X175364875Y-67945000D01*
X174295571Y-66875696D01*
X174066395Y-67028089D01*
X173915916Y-67334067D01*
X173828021Y-67663523D01*
X173806088Y-68003797D01*
X172847000Y-68003797D01*
X172847000Y-66696091D01*
X174475176Y-66696091D01*
X175544480Y-67765395D01*
X176613784Y-66696091D01*
X176461391Y-66466915D01*
X176155413Y-66316436D01*
X175825957Y-66228541D01*
X175485683Y-66206608D01*
X175147670Y-66251482D01*
X174824906Y-66361436D01*
X174627569Y-66466915D01*
X174475176Y-66696091D01*
X172847000Y-66696091D01*
X172847000Y-65665236D01*
X172850042Y-65634348D01*
X172857237Y-65610631D01*
X172868914Y-65588784D01*
X172884632Y-65569632D01*
X172903784Y-65553914D01*
X172925631Y-65542237D01*
X172949348Y-65535042D01*
X172980236Y-65532000D01*
X183254764Y-65532000D01*
X183285652Y-65535042D01*
X183285652Y-65535042D01*
G37*
X183285652Y-65535042D02*
X183309369Y-65542237D01*
X183331216Y-65553914D01*
X183350368Y-65569632D01*
X183366086Y-65588784D01*
X183377763Y-65610631D01*
X183384958Y-65634348D01*
X183388000Y-65665236D01*
X183388000Y-71014790D01*
X183388612Y-71027239D01*
X183393493Y-71076792D01*
X183398350Y-71101209D01*
X183412804Y-71148857D01*
X183422330Y-71171857D01*
X183445802Y-71215771D01*
X183459635Y-71236473D01*
X183491223Y-71274963D01*
X183499592Y-71284198D01*
X185255802Y-73040408D01*
X185265037Y-73048777D01*
X185303527Y-73080365D01*
X185324229Y-73094198D01*
X185368143Y-73117670D01*
X185391143Y-73127196D01*
X185438791Y-73141650D01*
X185463208Y-73146507D01*
X185512761Y-73151388D01*
X185525210Y-73152000D01*
X190874764Y-73152000D01*
X190905652Y-73155042D01*
X190929369Y-73162237D01*
X190951216Y-73173914D01*
X190970368Y-73189632D01*
X190986086Y-73208784D01*
X190997763Y-73230631D01*
X191004958Y-73254348D01*
X191008000Y-73285236D01*
X191008000Y-79114764D01*
X191004958Y-79145652D01*
X190997763Y-79169369D01*
X190986086Y-79191216D01*
X190970368Y-79210368D01*
X190951216Y-79226086D01*
X190929369Y-79237763D01*
X190905652Y-79244958D01*
X190874764Y-79248000D01*
X171964236Y-79248000D01*
X171933348Y-79244958D01*
X171909631Y-79237763D01*
X171887784Y-79226086D01*
X171868632Y-79210368D01*
X171852914Y-79191216D01*
X171841237Y-79169369D01*
X171834042Y-79145652D01*
X171831000Y-79114764D01*
X171831000Y-78538608D01*
X171900703Y-78468905D01*
X172010811Y-78662179D01*
X172257021Y-78777628D01*
X172521023Y-78842825D01*
X172792671Y-78855265D01*
X173061527Y-78814470D01*
X173317258Y-78722008D01*
X173429189Y-78662179D01*
X173539298Y-78468904D01*
X172720000Y-77649605D01*
X172705858Y-77663748D01*
X172526252Y-77484142D01*
X172540395Y-77470000D01*
X172899605Y-77470000D01*
X173718904Y-78289298D01*
X173912179Y-78179189D01*
X174027628Y-77932979D01*
X174092825Y-77668977D01*
X174105265Y-77397329D01*
X174064470Y-77128473D01*
X173972008Y-76872742D01*
X173912179Y-76760811D01*
X173718904Y-76650702D01*
X172899605Y-77470000D01*
X172540395Y-77470000D01*
X172526252Y-77455858D01*
X172705858Y-77276252D01*
X172720000Y-77290395D01*
X173539298Y-76471096D01*
X173429189Y-76277821D01*
X173182979Y-76162372D01*
X172918977Y-76097175D01*
X172647329Y-76084735D01*
X172378473Y-76125530D01*
X172122742Y-76217992D01*
X172010811Y-76277821D01*
X171900703Y-76471095D01*
X171831000Y-76401392D01*
X171831000Y-75190236D01*
X171834042Y-75159348D01*
X171841237Y-75135631D01*
X171852914Y-75113784D01*
X171868632Y-75094632D01*
X171887784Y-75078914D01*
X171909631Y-75067237D01*
X171933348Y-75060042D01*
X171964236Y-75057000D01*
X172466000Y-75057000D01*
X172478449Y-75056388D01*
X172528002Y-75051507D01*
X172552419Y-75046651D01*
X172600068Y-75032197D01*
X172623069Y-75022669D01*
X172666982Y-74999197D01*
X172687683Y-74985365D01*
X172726173Y-74953777D01*
X172743777Y-74936173D01*
X172775365Y-74897683D01*
X172789197Y-74876982D01*
X172812669Y-74833069D01*
X172822197Y-74810068D01*
X172836651Y-74762419D01*
X172841507Y-74738002D01*
X172846388Y-74688449D01*
X172847000Y-74676000D01*
X172847000Y-69193909D01*
X174475176Y-69193909D01*
X174627569Y-69423085D01*
X174933547Y-69573564D01*
X175263003Y-69661459D01*
X175603277Y-69683392D01*
X175941290Y-69638518D01*
X176264054Y-69528564D01*
X176461391Y-69423085D01*
X176613784Y-69193909D01*
X175544480Y-68124605D01*
X174475176Y-69193909D01*
X172847000Y-69193909D01*
X172847000Y-68003797D01*
X173806088Y-68003797D01*
X173850962Y-68341810D01*
X173960916Y-68664574D01*
X174066395Y-68861911D01*
X174295571Y-69014304D01*
X175364875Y-67945000D01*
X175724085Y-67945000D01*
X176793389Y-69014304D01*
X177022565Y-68861911D01*
X177173044Y-68555933D01*
X177260939Y-68226477D01*
X177282872Y-67886203D01*
X177237998Y-67548190D01*
X177128044Y-67225426D01*
X177022565Y-67028089D01*
X176793389Y-66875696D01*
X175724085Y-67945000D01*
X175364875Y-67945000D01*
X174295571Y-66875696D01*
X174066395Y-67028089D01*
X173915916Y-67334067D01*
X173828021Y-67663523D01*
X173806088Y-68003797D01*
X172847000Y-68003797D01*
X172847000Y-66696091D01*
X174475176Y-66696091D01*
X175544480Y-67765395D01*
X176613784Y-66696091D01*
X176461391Y-66466915D01*
X176155413Y-66316436D01*
X175825957Y-66228541D01*
X175485683Y-66206608D01*
X175147670Y-66251482D01*
X174824906Y-66361436D01*
X174627569Y-66466915D01*
X174475176Y-66696091D01*
X172847000Y-66696091D01*
X172847000Y-65665236D01*
X172850042Y-65634348D01*
X172857237Y-65610631D01*
X172868914Y-65588784D01*
X172884632Y-65569632D01*
X172903784Y-65553914D01*
X172925631Y-65542237D01*
X172949348Y-65535042D01*
X172980236Y-65532000D01*
X183254764Y-65532000D01*
X183285652Y-65535042D01*
G36*
X119888000Y-81744420D02*
X119888000Y-86360000D01*
X119892579Y-86406704D01*
X119896669Y-86453448D01*
X119897414Y-86456014D01*
X119897675Y-86458671D01*
X119911227Y-86503556D01*
X119924329Y-86548655D01*
X119925560Y-86551029D01*
X119926331Y-86553584D01*
X119948340Y-86594977D01*
X119969955Y-86636677D01*
X119971623Y-86638766D01*
X119972876Y-86641123D01*
X120002552Y-86677509D01*
X120031810Y-86714159D01*
X120035473Y-86717874D01*
X120035538Y-86717954D01*
X120035612Y-86718015D01*
X120036790Y-86719210D01*
X121349179Y-88031599D01*
X121347303Y-88165945D01*
X121375178Y-88317825D01*
X121432023Y-88461398D01*
X121515672Y-88591196D01*
X121622939Y-88702275D01*
X121749739Y-88790403D01*
X121819509Y-88820885D01*
X116442963Y-94197431D01*
X116424039Y-94213591D01*
X116407084Y-94223976D01*
X116388709Y-94231580D01*
X116369374Y-94236211D01*
X116344553Y-94238148D01*
X110445342Y-94233914D01*
X110414464Y-94230853D01*
X110390775Y-94223651D01*
X110374336Y-94214854D01*
X110408415Y-94174870D01*
X110452686Y-94076658D01*
X110467843Y-93970000D01*
X110467843Y-92720000D01*
X110463005Y-92659327D01*
X110440736Y-92587420D01*
X110481140Y-92648735D01*
X110563130Y-92718615D01*
X110661342Y-92762886D01*
X110768000Y-92778043D01*
X111768000Y-92778043D01*
X111828673Y-92773205D01*
X111931580Y-92741336D01*
X112021535Y-92682060D01*
X112091415Y-92600070D01*
X112135686Y-92501858D01*
X112150843Y-92395200D01*
X112150843Y-91992450D01*
X112387000Y-91992450D01*
X112387000Y-92432725D01*
X112401642Y-92506334D01*
X112430362Y-92575671D01*
X112472058Y-92638074D01*
X112525127Y-92691142D01*
X112587529Y-92732838D01*
X112656867Y-92761558D01*
X112730475Y-92776200D01*
X113045750Y-92776200D01*
X113141000Y-92680950D01*
X113141000Y-91897200D01*
X113395000Y-91897200D01*
X113395000Y-92680950D01*
X113490250Y-92776200D01*
X113805525Y-92776200D01*
X113879133Y-92761558D01*
X113948471Y-92732838D01*
X114010873Y-92691142D01*
X114063942Y-92638074D01*
X114105638Y-92575671D01*
X114134358Y-92506334D01*
X114149000Y-92432725D01*
X114149000Y-91992450D01*
X114197000Y-91992450D01*
X114197000Y-92432725D01*
X114211642Y-92506334D01*
X114240362Y-92575671D01*
X114282058Y-92638074D01*
X114335127Y-92691142D01*
X114397529Y-92732838D01*
X114466867Y-92761558D01*
X114540475Y-92776200D01*
X114855750Y-92776200D01*
X114951000Y-92680950D01*
X114951000Y-91897200D01*
X115205000Y-91897200D01*
X115205000Y-92680950D01*
X115300250Y-92776200D01*
X115615525Y-92776200D01*
X115689133Y-92761558D01*
X115758471Y-92732838D01*
X115820873Y-92691142D01*
X115873942Y-92638074D01*
X115915638Y-92575671D01*
X115944358Y-92506334D01*
X115959000Y-92432725D01*
X115959000Y-91992450D01*
X115863750Y-91897200D01*
X115205000Y-91897200D01*
X114951000Y-91897200D01*
X114292250Y-91897200D01*
X114197000Y-91992450D01*
X114149000Y-91992450D01*
X114053750Y-91897200D01*
X113395000Y-91897200D01*
X113141000Y-91897200D01*
X112482250Y-91897200D01*
X112387000Y-91992450D01*
X112150843Y-91992450D01*
X112150843Y-91145200D01*
X112147851Y-91107675D01*
X112387000Y-91107675D01*
X112387000Y-91547950D01*
X112482250Y-91643200D01*
X113141000Y-91643200D01*
X113141000Y-90859450D01*
X113395000Y-90859450D01*
X113395000Y-91643200D01*
X114053750Y-91643200D01*
X114149000Y-91547950D01*
X114149000Y-91107675D01*
X114197000Y-91107675D01*
X114197000Y-91547950D01*
X114292250Y-91643200D01*
X114951000Y-91643200D01*
X114951000Y-90859450D01*
X115205000Y-90859450D01*
X115205000Y-91643200D01*
X115863750Y-91643200D01*
X115959000Y-91547950D01*
X115959000Y-91107675D01*
X115944358Y-91034066D01*
X115915638Y-90964729D01*
X115873942Y-90902326D01*
X115820873Y-90849258D01*
X115758471Y-90807562D01*
X115689133Y-90778842D01*
X115615525Y-90764200D01*
X115300250Y-90764200D01*
X115205000Y-90859450D01*
X114951000Y-90859450D01*
X114855750Y-90764200D01*
X114540475Y-90764200D01*
X114466867Y-90778842D01*
X114397529Y-90807562D01*
X114335127Y-90849258D01*
X114282058Y-90902326D01*
X114240362Y-90964729D01*
X114211642Y-91034066D01*
X114197000Y-91107675D01*
X114149000Y-91107675D01*
X114134358Y-91034066D01*
X114105638Y-90964729D01*
X114063942Y-90902326D01*
X114010873Y-90849258D01*
X113948471Y-90807562D01*
X113879133Y-90778842D01*
X113805525Y-90764200D01*
X113490250Y-90764200D01*
X113395000Y-90859450D01*
X113141000Y-90859450D01*
X113045750Y-90764200D01*
X112730475Y-90764200D01*
X112656867Y-90778842D01*
X112587529Y-90807562D01*
X112525127Y-90849258D01*
X112472058Y-90902326D01*
X112430362Y-90964729D01*
X112401642Y-91034066D01*
X112387000Y-91107675D01*
X112147851Y-91107675D01*
X112146005Y-91084527D01*
X112114136Y-90981620D01*
X112054860Y-90891665D01*
X111972870Y-90821785D01*
X111874658Y-90777514D01*
X111776000Y-90763494D01*
X111776000Y-89219987D01*
X111819293Y-89220894D01*
X112037834Y-89182359D01*
X112244728Y-89102110D01*
X112432095Y-88983204D01*
X112592797Y-88830169D01*
X112720715Y-88648834D01*
X112810975Y-88446107D01*
X112860139Y-88229710D01*
X112863678Y-87976244D01*
X112820575Y-87758558D01*
X112736011Y-87553390D01*
X112613207Y-87368554D01*
X112456840Y-87211092D01*
X112342348Y-87133866D01*
X114513214Y-84963000D01*
X114649157Y-84963000D01*
X114649157Y-85105000D01*
X114653995Y-85165673D01*
X114685864Y-85268580D01*
X114745140Y-85358535D01*
X114827130Y-85428415D01*
X114925342Y-85472686D01*
X115032000Y-85487843D01*
X115732000Y-85487843D01*
X115792673Y-85483005D01*
X115895580Y-85451136D01*
X115985535Y-85391860D01*
X116055415Y-85309870D01*
X116099686Y-85211658D01*
X116114843Y-85105000D01*
X116114843Y-83805000D01*
X116110005Y-83744327D01*
X116078136Y-83641420D01*
X116018860Y-83551465D01*
X115936870Y-83481585D01*
X115890000Y-83460457D01*
X115890000Y-83378000D01*
X115885421Y-83331296D01*
X115881331Y-83284552D01*
X115880586Y-83281986D01*
X115880325Y-83279329D01*
X115866773Y-83234444D01*
X115853671Y-83189345D01*
X115852440Y-83186971D01*
X115851669Y-83184416D01*
X115848751Y-83178929D01*
X115925580Y-83155136D01*
X116015535Y-83095860D01*
X116085415Y-83013870D01*
X116098760Y-82984266D01*
X116109448Y-82983331D01*
X116112014Y-82982586D01*
X116114671Y-82982325D01*
X116159556Y-82968773D01*
X116204655Y-82955671D01*
X116207029Y-82954440D01*
X116209584Y-82953669D01*
X116250977Y-82931660D01*
X116292677Y-82910045D01*
X116294766Y-82908377D01*
X116297123Y-82907124D01*
X116333509Y-82877448D01*
X116370159Y-82848190D01*
X116373874Y-82844527D01*
X116373954Y-82844462D01*
X116374015Y-82844388D01*
X116375210Y-82843210D01*
X116519157Y-82699263D01*
X116519157Y-82809000D01*
X116523995Y-82869673D01*
X116555864Y-82972580D01*
X116615140Y-83062535D01*
X116697130Y-83132415D01*
X116795342Y-83176686D01*
X116814589Y-83179421D01*
X116814272Y-83180423D01*
X116813009Y-83182778D01*
X116799284Y-83227670D01*
X116785101Y-83272381D01*
X116784803Y-83275034D01*
X116784022Y-83277590D01*
X116779276Y-83324313D01*
X116774050Y-83370907D01*
X116774013Y-83376127D01*
X116774003Y-83376227D01*
X116774012Y-83376321D01*
X116774000Y-83378000D01*
X116774000Y-83457136D01*
X116768420Y-83458864D01*
X116678465Y-83518140D01*
X116608585Y-83600130D01*
X116564314Y-83698342D01*
X116549157Y-83805000D01*
X116549157Y-85105000D01*
X116553995Y-85165673D01*
X116585864Y-85268580D01*
X116645140Y-85358535D01*
X116727130Y-85428415D01*
X116774000Y-85449543D01*
X116774000Y-85961579D01*
X116254730Y-86480850D01*
X116224964Y-86517088D01*
X116194782Y-86553057D01*
X116193494Y-86555399D01*
X116191800Y-86557462D01*
X116169630Y-86598809D01*
X116147019Y-86639938D01*
X116146212Y-86642483D01*
X116144949Y-86644838D01*
X116131224Y-86689730D01*
X116117041Y-86734441D01*
X116116743Y-86737094D01*
X116115962Y-86739650D01*
X116111216Y-86786373D01*
X116105990Y-86832967D01*
X116105953Y-86838187D01*
X116105943Y-86838287D01*
X116105952Y-86838381D01*
X116105940Y-86840060D01*
X116105940Y-87071956D01*
X116087152Y-87079547D01*
X115901463Y-87201058D01*
X115742913Y-87356322D01*
X115617540Y-87539424D01*
X115530119Y-87743392D01*
X115483981Y-87960455D01*
X115480883Y-88182345D01*
X115520942Y-88400612D01*
X115602634Y-88606941D01*
X115722845Y-88793473D01*
X115876999Y-88953103D01*
X116059222Y-89079752D01*
X116262574Y-89168594D01*
X116479309Y-89216246D01*
X116570000Y-89218146D01*
X116570000Y-90762995D01*
X116517327Y-90767195D01*
X116414420Y-90799064D01*
X116324465Y-90858340D01*
X116254585Y-90940330D01*
X116210314Y-91038542D01*
X116195157Y-91145200D01*
X116195157Y-92395200D01*
X116199995Y-92455873D01*
X116231864Y-92558780D01*
X116291140Y-92648735D01*
X116373130Y-92718615D01*
X116471342Y-92762886D01*
X116578000Y-92778043D01*
X117578000Y-92778043D01*
X117638673Y-92773205D01*
X117741580Y-92741336D01*
X117831535Y-92682060D01*
X117901415Y-92600070D01*
X117945686Y-92501858D01*
X117960843Y-92395200D01*
X117960843Y-91145200D01*
X117956005Y-91084527D01*
X117924136Y-90981620D01*
X117864860Y-90891665D01*
X117782870Y-90821785D01*
X117684658Y-90777514D01*
X117586000Y-90763494D01*
X117586000Y-88672359D01*
X117602595Y-88648834D01*
X117692855Y-88446107D01*
X117742019Y-88229710D01*
X117745558Y-87976244D01*
X117702455Y-87758558D01*
X117617891Y-87553390D01*
X117495087Y-87368554D01*
X117338720Y-87211092D01*
X117154746Y-87087000D01*
X117121940Y-87073210D01*
X117121940Y-87050480D01*
X117641211Y-86531210D01*
X117671001Y-86494942D01*
X117701158Y-86459003D01*
X117702446Y-86456661D01*
X117704140Y-86454598D01*
X117726300Y-86413269D01*
X117748921Y-86372122D01*
X117749729Y-86369574D01*
X117750991Y-86367221D01*
X117764711Y-86322344D01*
X117778899Y-86277619D01*
X117779197Y-86274966D01*
X117779978Y-86272410D01*
X117784724Y-86225687D01*
X117789950Y-86179093D01*
X117789987Y-86173873D01*
X117789997Y-86173773D01*
X117789988Y-86173679D01*
X117790000Y-86172000D01*
X117790000Y-85452864D01*
X117795580Y-85451136D01*
X117885535Y-85391860D01*
X117955415Y-85309870D01*
X117999686Y-85211658D01*
X118014843Y-85105000D01*
X118014843Y-83805000D01*
X118010005Y-83744327D01*
X117978136Y-83641420D01*
X117918860Y-83551465D01*
X117859400Y-83500788D01*
X117876310Y-83469251D01*
X117898921Y-83428122D01*
X117899728Y-83425577D01*
X117900991Y-83423222D01*
X117914716Y-83378330D01*
X117928899Y-83333619D01*
X117929197Y-83330966D01*
X117929978Y-83328410D01*
X117934724Y-83281687D01*
X117939950Y-83235093D01*
X117939987Y-83229873D01*
X117939997Y-83229773D01*
X117939988Y-83229679D01*
X117940000Y-83228000D01*
X117940000Y-83191843D01*
X117962000Y-83191843D01*
X118022673Y-83187005D01*
X118125580Y-83155136D01*
X118215535Y-83095860D01*
X118285415Y-83013870D01*
X118329686Y-82915658D01*
X118344843Y-82809000D01*
X118344843Y-82159000D01*
X118340005Y-82098327D01*
X118312306Y-82008886D01*
X118328358Y-81970134D01*
X118343000Y-81896525D01*
X118343000Y-81756250D01*
X118247750Y-81661000D01*
X117559000Y-81661000D01*
X117559000Y-81681000D01*
X117305000Y-81681000D01*
X117305000Y-81661000D01*
X117285000Y-81661000D01*
X117285000Y-81407000D01*
X117305000Y-81407000D01*
X117305000Y-81387000D01*
X117559000Y-81387000D01*
X117559000Y-81407000D01*
X118247750Y-81407000D01*
X118343000Y-81311750D01*
X118343000Y-81171475D01*
X118328358Y-81097866D01*
X118311249Y-81056560D01*
X118329686Y-81015658D01*
X118344843Y-80909000D01*
X118344843Y-80436799D01*
X118580379Y-80436799D01*
X119888000Y-81744420D01*
X119888000Y-81744420D01*
G37*
X119888000Y-81744420D02*
X119888000Y-86360000D01*
X119892579Y-86406704D01*
X119896669Y-86453448D01*
X119897414Y-86456014D01*
X119897675Y-86458671D01*
X119911227Y-86503556D01*
X119924329Y-86548655D01*
X119925560Y-86551029D01*
X119926331Y-86553584D01*
X119948340Y-86594977D01*
X119969955Y-86636677D01*
X119971623Y-86638766D01*
X119972876Y-86641123D01*
X120002552Y-86677509D01*
X120031810Y-86714159D01*
X120035473Y-86717874D01*
X120035538Y-86717954D01*
X120035612Y-86718015D01*
X120036790Y-86719210D01*
X121349179Y-88031599D01*
X121347303Y-88165945D01*
X121375178Y-88317825D01*
X121432023Y-88461398D01*
X121515672Y-88591196D01*
X121622939Y-88702275D01*
X121749739Y-88790403D01*
X121819509Y-88820885D01*
X116442963Y-94197431D01*
X116424039Y-94213591D01*
X116407084Y-94223976D01*
X116388709Y-94231580D01*
X116369374Y-94236211D01*
X116344553Y-94238148D01*
X110445342Y-94233914D01*
X110414464Y-94230853D01*
X110390775Y-94223651D01*
X110374336Y-94214854D01*
X110408415Y-94174870D01*
X110452686Y-94076658D01*
X110467843Y-93970000D01*
X110467843Y-92720000D01*
X110463005Y-92659327D01*
X110440736Y-92587420D01*
X110481140Y-92648735D01*
X110563130Y-92718615D01*
X110661342Y-92762886D01*
X110768000Y-92778043D01*
X111768000Y-92778043D01*
X111828673Y-92773205D01*
X111931580Y-92741336D01*
X112021535Y-92682060D01*
X112091415Y-92600070D01*
X112135686Y-92501858D01*
X112150843Y-92395200D01*
X112150843Y-91992450D01*
X112387000Y-91992450D01*
X112387000Y-92432725D01*
X112401642Y-92506334D01*
X112430362Y-92575671D01*
X112472058Y-92638074D01*
X112525127Y-92691142D01*
X112587529Y-92732838D01*
X112656867Y-92761558D01*
X112730475Y-92776200D01*
X113045750Y-92776200D01*
X113141000Y-92680950D01*
X113141000Y-91897200D01*
X113395000Y-91897200D01*
X113395000Y-92680950D01*
X113490250Y-92776200D01*
X113805525Y-92776200D01*
X113879133Y-92761558D01*
X113948471Y-92732838D01*
X114010873Y-92691142D01*
X114063942Y-92638074D01*
X114105638Y-92575671D01*
X114134358Y-92506334D01*
X114149000Y-92432725D01*
X114149000Y-91992450D01*
X114197000Y-91992450D01*
X114197000Y-92432725D01*
X114211642Y-92506334D01*
X114240362Y-92575671D01*
X114282058Y-92638074D01*
X114335127Y-92691142D01*
X114397529Y-92732838D01*
X114466867Y-92761558D01*
X114540475Y-92776200D01*
X114855750Y-92776200D01*
X114951000Y-92680950D01*
X114951000Y-91897200D01*
X115205000Y-91897200D01*
X115205000Y-92680950D01*
X115300250Y-92776200D01*
X115615525Y-92776200D01*
X115689133Y-92761558D01*
X115758471Y-92732838D01*
X115820873Y-92691142D01*
X115873942Y-92638074D01*
X115915638Y-92575671D01*
X115944358Y-92506334D01*
X115959000Y-92432725D01*
X115959000Y-91992450D01*
X115863750Y-91897200D01*
X115205000Y-91897200D01*
X114951000Y-91897200D01*
X114292250Y-91897200D01*
X114197000Y-91992450D01*
X114149000Y-91992450D01*
X114053750Y-91897200D01*
X113395000Y-91897200D01*
X113141000Y-91897200D01*
X112482250Y-91897200D01*
X112387000Y-91992450D01*
X112150843Y-91992450D01*
X112150843Y-91145200D01*
X112147851Y-91107675D01*
X112387000Y-91107675D01*
X112387000Y-91547950D01*
X112482250Y-91643200D01*
X113141000Y-91643200D01*
X113141000Y-90859450D01*
X113395000Y-90859450D01*
X113395000Y-91643200D01*
X114053750Y-91643200D01*
X114149000Y-91547950D01*
X114149000Y-91107675D01*
X114197000Y-91107675D01*
X114197000Y-91547950D01*
X114292250Y-91643200D01*
X114951000Y-91643200D01*
X114951000Y-90859450D01*
X115205000Y-90859450D01*
X115205000Y-91643200D01*
X115863750Y-91643200D01*
X115959000Y-91547950D01*
X115959000Y-91107675D01*
X115944358Y-91034066D01*
X115915638Y-90964729D01*
X115873942Y-90902326D01*
X115820873Y-90849258D01*
X115758471Y-90807562D01*
X115689133Y-90778842D01*
X115615525Y-90764200D01*
X115300250Y-90764200D01*
X115205000Y-90859450D01*
X114951000Y-90859450D01*
X114855750Y-90764200D01*
X114540475Y-90764200D01*
X114466867Y-90778842D01*
X114397529Y-90807562D01*
X114335127Y-90849258D01*
X114282058Y-90902326D01*
X114240362Y-90964729D01*
X114211642Y-91034066D01*
X114197000Y-91107675D01*
X114149000Y-91107675D01*
X114134358Y-91034066D01*
X114105638Y-90964729D01*
X114063942Y-90902326D01*
X114010873Y-90849258D01*
X113948471Y-90807562D01*
X113879133Y-90778842D01*
X113805525Y-90764200D01*
X113490250Y-90764200D01*
X113395000Y-90859450D01*
X113141000Y-90859450D01*
X113045750Y-90764200D01*
X112730475Y-90764200D01*
X112656867Y-90778842D01*
X112587529Y-90807562D01*
X112525127Y-90849258D01*
X112472058Y-90902326D01*
X112430362Y-90964729D01*
X112401642Y-91034066D01*
X112387000Y-91107675D01*
X112147851Y-91107675D01*
X112146005Y-91084527D01*
X112114136Y-90981620D01*
X112054860Y-90891665D01*
X111972870Y-90821785D01*
X111874658Y-90777514D01*
X111776000Y-90763494D01*
X111776000Y-89219987D01*
X111819293Y-89220894D01*
X112037834Y-89182359D01*
X112244728Y-89102110D01*
X112432095Y-88983204D01*
X112592797Y-88830169D01*
X112720715Y-88648834D01*
X112810975Y-88446107D01*
X112860139Y-88229710D01*
X112863678Y-87976244D01*
X112820575Y-87758558D01*
X112736011Y-87553390D01*
X112613207Y-87368554D01*
X112456840Y-87211092D01*
X112342348Y-87133866D01*
X114513214Y-84963000D01*
X114649157Y-84963000D01*
X114649157Y-85105000D01*
X114653995Y-85165673D01*
X114685864Y-85268580D01*
X114745140Y-85358535D01*
X114827130Y-85428415D01*
X114925342Y-85472686D01*
X115032000Y-85487843D01*
X115732000Y-85487843D01*
X115792673Y-85483005D01*
X115895580Y-85451136D01*
X115985535Y-85391860D01*
X116055415Y-85309870D01*
X116099686Y-85211658D01*
X116114843Y-85105000D01*
X116114843Y-83805000D01*
X116110005Y-83744327D01*
X116078136Y-83641420D01*
X116018860Y-83551465D01*
X115936870Y-83481585D01*
X115890000Y-83460457D01*
X115890000Y-83378000D01*
X115885421Y-83331296D01*
X115881331Y-83284552D01*
X115880586Y-83281986D01*
X115880325Y-83279329D01*
X115866773Y-83234444D01*
X115853671Y-83189345D01*
X115852440Y-83186971D01*
X115851669Y-83184416D01*
X115848751Y-83178929D01*
X115925580Y-83155136D01*
X116015535Y-83095860D01*
X116085415Y-83013870D01*
X116098760Y-82984266D01*
X116109448Y-82983331D01*
X116112014Y-82982586D01*
X116114671Y-82982325D01*
X116159556Y-82968773D01*
X116204655Y-82955671D01*
X116207029Y-82954440D01*
X116209584Y-82953669D01*
X116250977Y-82931660D01*
X116292677Y-82910045D01*
X116294766Y-82908377D01*
X116297123Y-82907124D01*
X116333509Y-82877448D01*
X116370159Y-82848190D01*
X116373874Y-82844527D01*
X116373954Y-82844462D01*
X116374015Y-82844388D01*
X116375210Y-82843210D01*
X116519157Y-82699263D01*
X116519157Y-82809000D01*
X116523995Y-82869673D01*
X116555864Y-82972580D01*
X116615140Y-83062535D01*
X116697130Y-83132415D01*
X116795342Y-83176686D01*
X116814589Y-83179421D01*
X116814272Y-83180423D01*
X116813009Y-83182778D01*
X116799284Y-83227670D01*
X116785101Y-83272381D01*
X116784803Y-83275034D01*
X116784022Y-83277590D01*
X116779276Y-83324313D01*
X116774050Y-83370907D01*
X116774013Y-83376127D01*
X116774003Y-83376227D01*
X116774012Y-83376321D01*
X116774000Y-83378000D01*
X116774000Y-83457136D01*
X116768420Y-83458864D01*
X116678465Y-83518140D01*
X116608585Y-83600130D01*
X116564314Y-83698342D01*
X116549157Y-83805000D01*
X116549157Y-85105000D01*
X116553995Y-85165673D01*
X116585864Y-85268580D01*
X116645140Y-85358535D01*
X116727130Y-85428415D01*
X116774000Y-85449543D01*
X116774000Y-85961579D01*
X116254730Y-86480850D01*
X116224964Y-86517088D01*
X116194782Y-86553057D01*
X116193494Y-86555399D01*
X116191800Y-86557462D01*
X116169630Y-86598809D01*
X116147019Y-86639938D01*
X116146212Y-86642483D01*
X116144949Y-86644838D01*
X116131224Y-86689730D01*
X116117041Y-86734441D01*
X116116743Y-86737094D01*
X116115962Y-86739650D01*
X116111216Y-86786373D01*
X116105990Y-86832967D01*
X116105953Y-86838187D01*
X116105943Y-86838287D01*
X116105952Y-86838381D01*
X116105940Y-86840060D01*
X116105940Y-87071956D01*
X116087152Y-87079547D01*
X115901463Y-87201058D01*
X115742913Y-87356322D01*
X115617540Y-87539424D01*
X115530119Y-87743392D01*
X115483981Y-87960455D01*
X115480883Y-88182345D01*
X115520942Y-88400612D01*
X115602634Y-88606941D01*
X115722845Y-88793473D01*
X115876999Y-88953103D01*
X116059222Y-89079752D01*
X116262574Y-89168594D01*
X116479309Y-89216246D01*
X116570000Y-89218146D01*
X116570000Y-90762995D01*
X116517327Y-90767195D01*
X116414420Y-90799064D01*
X116324465Y-90858340D01*
X116254585Y-90940330D01*
X116210314Y-91038542D01*
X116195157Y-91145200D01*
X116195157Y-92395200D01*
X116199995Y-92455873D01*
X116231864Y-92558780D01*
X116291140Y-92648735D01*
X116373130Y-92718615D01*
X116471342Y-92762886D01*
X116578000Y-92778043D01*
X117578000Y-92778043D01*
X117638673Y-92773205D01*
X117741580Y-92741336D01*
X117831535Y-92682060D01*
X117901415Y-92600070D01*
X117945686Y-92501858D01*
X117960843Y-92395200D01*
X117960843Y-91145200D01*
X117956005Y-91084527D01*
X117924136Y-90981620D01*
X117864860Y-90891665D01*
X117782870Y-90821785D01*
X117684658Y-90777514D01*
X117586000Y-90763494D01*
X117586000Y-88672359D01*
X117602595Y-88648834D01*
X117692855Y-88446107D01*
X117742019Y-88229710D01*
X117745558Y-87976244D01*
X117702455Y-87758558D01*
X117617891Y-87553390D01*
X117495087Y-87368554D01*
X117338720Y-87211092D01*
X117154746Y-87087000D01*
X117121940Y-87073210D01*
X117121940Y-87050480D01*
X117641211Y-86531210D01*
X117671001Y-86494942D01*
X117701158Y-86459003D01*
X117702446Y-86456661D01*
X117704140Y-86454598D01*
X117726300Y-86413269D01*
X117748921Y-86372122D01*
X117749729Y-86369574D01*
X117750991Y-86367221D01*
X117764711Y-86322344D01*
X117778899Y-86277619D01*
X117779197Y-86274966D01*
X117779978Y-86272410D01*
X117784724Y-86225687D01*
X117789950Y-86179093D01*
X117789987Y-86173873D01*
X117789997Y-86173773D01*
X117789988Y-86173679D01*
X117790000Y-86172000D01*
X117790000Y-85452864D01*
X117795580Y-85451136D01*
X117885535Y-85391860D01*
X117955415Y-85309870D01*
X117999686Y-85211658D01*
X118014843Y-85105000D01*
X118014843Y-83805000D01*
X118010005Y-83744327D01*
X117978136Y-83641420D01*
X117918860Y-83551465D01*
X117859400Y-83500788D01*
X117876310Y-83469251D01*
X117898921Y-83428122D01*
X117899728Y-83425577D01*
X117900991Y-83423222D01*
X117914716Y-83378330D01*
X117928899Y-83333619D01*
X117929197Y-83330966D01*
X117929978Y-83328410D01*
X117934724Y-83281687D01*
X117939950Y-83235093D01*
X117939987Y-83229873D01*
X117939997Y-83229773D01*
X117939988Y-83229679D01*
X117940000Y-83228000D01*
X117940000Y-83191843D01*
X117962000Y-83191843D01*
X118022673Y-83187005D01*
X118125580Y-83155136D01*
X118215535Y-83095860D01*
X118285415Y-83013870D01*
X118329686Y-82915658D01*
X118344843Y-82809000D01*
X118344843Y-82159000D01*
X118340005Y-82098327D01*
X118312306Y-82008886D01*
X118328358Y-81970134D01*
X118343000Y-81896525D01*
X118343000Y-81756250D01*
X118247750Y-81661000D01*
X117559000Y-81661000D01*
X117559000Y-81681000D01*
X117305000Y-81681000D01*
X117305000Y-81661000D01*
X117285000Y-81661000D01*
X117285000Y-81407000D01*
X117305000Y-81407000D01*
X117305000Y-81387000D01*
X117559000Y-81387000D01*
X117559000Y-81407000D01*
X118247750Y-81407000D01*
X118343000Y-81311750D01*
X118343000Y-81171475D01*
X118328358Y-81097866D01*
X118311249Y-81056560D01*
X118329686Y-81015658D01*
X118344843Y-80909000D01*
X118344843Y-80436799D01*
X118580379Y-80436799D01*
X119888000Y-81744420D01*
G36*
X114319157Y-82809000D02*
X114323995Y-82869673D01*
X114355864Y-82972580D01*
X114415140Y-83062535D01*
X114497130Y-83132415D01*
X114595342Y-83176686D01*
X114702000Y-83191843D01*
X114724000Y-83191843D01*
X114724000Y-83228000D01*
X114728579Y-83274704D01*
X114732669Y-83321448D01*
X114733414Y-83324014D01*
X114733675Y-83326671D01*
X114747227Y-83371556D01*
X114760329Y-83416655D01*
X114761560Y-83419029D01*
X114762331Y-83421584D01*
X114784340Y-83462977D01*
X114804158Y-83501210D01*
X114778465Y-83518140D01*
X114708585Y-83600130D01*
X114664314Y-83698342D01*
X114649157Y-83805000D01*
X114649157Y-83947000D01*
X114302794Y-83947000D01*
X114256090Y-83951579D01*
X114209346Y-83955669D01*
X114206780Y-83956414D01*
X114204123Y-83956675D01*
X114159238Y-83970227D01*
X114114139Y-83983329D01*
X114111765Y-83984560D01*
X114109210Y-83985331D01*
X114067817Y-84007340D01*
X114026117Y-84028955D01*
X114024028Y-84030623D01*
X114021671Y-84031876D01*
X113985285Y-84061552D01*
X113948635Y-84090810D01*
X113944920Y-84094473D01*
X113944840Y-84094538D01*
X113944779Y-84094612D01*
X113943584Y-84095790D01*
X111372850Y-86666524D01*
X111343084Y-86702762D01*
X111312902Y-86738731D01*
X111311614Y-86741073D01*
X111309920Y-86743136D01*
X111287750Y-86784483D01*
X111265139Y-86825612D01*
X111264332Y-86828157D01*
X111263069Y-86830512D01*
X111249344Y-86875404D01*
X111235161Y-86920115D01*
X111234863Y-86922768D01*
X111234082Y-86925324D01*
X111229336Y-86972047D01*
X111224110Y-87018641D01*
X111224073Y-87023861D01*
X111224063Y-87023961D01*
X111224072Y-87024055D01*
X111224060Y-87025734D01*
X111224060Y-87071956D01*
X111205272Y-87079547D01*
X111019583Y-87201058D01*
X110861033Y-87356322D01*
X110735660Y-87539424D01*
X110648239Y-87743392D01*
X110602101Y-87960455D01*
X110599003Y-88182345D01*
X110639062Y-88400612D01*
X110720754Y-88606941D01*
X110760000Y-88667839D01*
X110760000Y-90762995D01*
X110707327Y-90767195D01*
X110604420Y-90799064D01*
X110514465Y-90858340D01*
X110444585Y-90940330D01*
X110400314Y-91038542D01*
X110385157Y-91145200D01*
X110385157Y-92395200D01*
X110389995Y-92455873D01*
X110412264Y-92527780D01*
X110371860Y-92466465D01*
X110347000Y-92445277D01*
X110347000Y-91948000D01*
X110339999Y-91876597D01*
X110333503Y-91805215D01*
X110332749Y-91802652D01*
X110332488Y-91799993D01*
X110312200Y-91732796D01*
X110312200Y-91004902D01*
X110311641Y-90992998D01*
X110307178Y-90945594D01*
X110302735Y-90922207D01*
X110289504Y-90876468D01*
X110280773Y-90854316D01*
X110259237Y-90811851D01*
X110246527Y-90791723D01*
X110217445Y-90754023D01*
X110209732Y-90744940D01*
X108242227Y-88636899D01*
X108224091Y-88613389D01*
X108213368Y-88592245D01*
X108206784Y-88569482D01*
X108204000Y-88539916D01*
X108204000Y-83445236D01*
X108207042Y-83414348D01*
X108214237Y-83390631D01*
X108225914Y-83368784D01*
X108241632Y-83349632D01*
X108260784Y-83333914D01*
X108282631Y-83322237D01*
X108306348Y-83315042D01*
X108337236Y-83312000D01*
X113305790Y-83312000D01*
X113318239Y-83311388D01*
X113367792Y-83306507D01*
X113392209Y-83301650D01*
X113439857Y-83287196D01*
X113462857Y-83277670D01*
X113506771Y-83254198D01*
X113527473Y-83240365D01*
X113565963Y-83208777D01*
X113575198Y-83200408D01*
X114311002Y-82464604D01*
X114319157Y-82457911D01*
X114319157Y-82809000D01*
X114319157Y-82809000D01*
G37*
X114319157Y-82809000D02*
X114323995Y-82869673D01*
X114355864Y-82972580D01*
X114415140Y-83062535D01*
X114497130Y-83132415D01*
X114595342Y-83176686D01*
X114702000Y-83191843D01*
X114724000Y-83191843D01*
X114724000Y-83228000D01*
X114728579Y-83274704D01*
X114732669Y-83321448D01*
X114733414Y-83324014D01*
X114733675Y-83326671D01*
X114747227Y-83371556D01*
X114760329Y-83416655D01*
X114761560Y-83419029D01*
X114762331Y-83421584D01*
X114784340Y-83462977D01*
X114804158Y-83501210D01*
X114778465Y-83518140D01*
X114708585Y-83600130D01*
X114664314Y-83698342D01*
X114649157Y-83805000D01*
X114649157Y-83947000D01*
X114302794Y-83947000D01*
X114256090Y-83951579D01*
X114209346Y-83955669D01*
X114206780Y-83956414D01*
X114204123Y-83956675D01*
X114159238Y-83970227D01*
X114114139Y-83983329D01*
X114111765Y-83984560D01*
X114109210Y-83985331D01*
X114067817Y-84007340D01*
X114026117Y-84028955D01*
X114024028Y-84030623D01*
X114021671Y-84031876D01*
X113985285Y-84061552D01*
X113948635Y-84090810D01*
X113944920Y-84094473D01*
X113944840Y-84094538D01*
X113944779Y-84094612D01*
X113943584Y-84095790D01*
X111372850Y-86666524D01*
X111343084Y-86702762D01*
X111312902Y-86738731D01*
X111311614Y-86741073D01*
X111309920Y-86743136D01*
X111287750Y-86784483D01*
X111265139Y-86825612D01*
X111264332Y-86828157D01*
X111263069Y-86830512D01*
X111249344Y-86875404D01*
X111235161Y-86920115D01*
X111234863Y-86922768D01*
X111234082Y-86925324D01*
X111229336Y-86972047D01*
X111224110Y-87018641D01*
X111224073Y-87023861D01*
X111224063Y-87023961D01*
X111224072Y-87024055D01*
X111224060Y-87025734D01*
X111224060Y-87071956D01*
X111205272Y-87079547D01*
X111019583Y-87201058D01*
X110861033Y-87356322D01*
X110735660Y-87539424D01*
X110648239Y-87743392D01*
X110602101Y-87960455D01*
X110599003Y-88182345D01*
X110639062Y-88400612D01*
X110720754Y-88606941D01*
X110760000Y-88667839D01*
X110760000Y-90762995D01*
X110707327Y-90767195D01*
X110604420Y-90799064D01*
X110514465Y-90858340D01*
X110444585Y-90940330D01*
X110400314Y-91038542D01*
X110385157Y-91145200D01*
X110385157Y-92395200D01*
X110389995Y-92455873D01*
X110412264Y-92527780D01*
X110371860Y-92466465D01*
X110347000Y-92445277D01*
X110347000Y-91948000D01*
X110339999Y-91876597D01*
X110333503Y-91805215D01*
X110332749Y-91802652D01*
X110332488Y-91799993D01*
X110312200Y-91732796D01*
X110312200Y-91004902D01*
X110311641Y-90992998D01*
X110307178Y-90945594D01*
X110302735Y-90922207D01*
X110289504Y-90876468D01*
X110280773Y-90854316D01*
X110259237Y-90811851D01*
X110246527Y-90791723D01*
X110217445Y-90754023D01*
X110209732Y-90744940D01*
X108242227Y-88636899D01*
X108224091Y-88613389D01*
X108213368Y-88592245D01*
X108206784Y-88569482D01*
X108204000Y-88539916D01*
X108204000Y-83445236D01*
X108207042Y-83414348D01*
X108214237Y-83390631D01*
X108225914Y-83368784D01*
X108241632Y-83349632D01*
X108260784Y-83333914D01*
X108282631Y-83322237D01*
X108306348Y-83315042D01*
X108337236Y-83312000D01*
X113305790Y-83312000D01*
X113318239Y-83311388D01*
X113367792Y-83306507D01*
X113392209Y-83301650D01*
X113439857Y-83287196D01*
X113462857Y-83277670D01*
X113506771Y-83254198D01*
X113527473Y-83240365D01*
X113565963Y-83208777D01*
X113575198Y-83200408D01*
X114311002Y-82464604D01*
X114319157Y-82457911D01*
X114319157Y-82809000D01*
G36*
X129840446Y-75441043D02*
X129864152Y-75448234D01*
X129886008Y-75459916D01*
X129909998Y-75479604D01*
X131953000Y-77522606D01*
X131953000Y-78155633D01*
X131926420Y-78163864D01*
X131836465Y-78223140D01*
X131766585Y-78305130D01*
X131722314Y-78403342D01*
X131707157Y-78510000D01*
X131707157Y-79510000D01*
X131711995Y-79570673D01*
X131743864Y-79673580D01*
X131803140Y-79763535D01*
X131885130Y-79833415D01*
X131983342Y-79877686D01*
X132090000Y-79892843D01*
X132699817Y-79892843D01*
X132936612Y-80129638D01*
X132842000Y-80224250D01*
X132842000Y-80883000D01*
X133625750Y-80883000D01*
X133721000Y-80787750D01*
X133721000Y-80639000D01*
X134280250Y-80639000D01*
X134320250Y-80679000D01*
X135229000Y-80679000D01*
X135229000Y-80657000D01*
X135483000Y-80657000D01*
X135483000Y-80679000D01*
X135503000Y-80679000D01*
X135503000Y-80929000D01*
X135483000Y-80929000D01*
X135483000Y-80951000D01*
X135229000Y-80951000D01*
X135229000Y-80929000D01*
X134320250Y-80929000D01*
X134225000Y-81024250D01*
X134225000Y-81091525D01*
X134229260Y-81112942D01*
X134208432Y-81119230D01*
X134163345Y-81132329D01*
X134160971Y-81133560D01*
X134158416Y-81134331D01*
X134117003Y-81156351D01*
X134075324Y-81177955D01*
X134073236Y-81179621D01*
X134070877Y-81180876D01*
X134034500Y-81210545D01*
X133997841Y-81239809D01*
X133994125Y-81243474D01*
X133994046Y-81243538D01*
X133993986Y-81243611D01*
X133992790Y-81244790D01*
X133905379Y-81332201D01*
X133721000Y-81332201D01*
X133721000Y-81232250D01*
X133625750Y-81137000D01*
X132842000Y-81137000D01*
X132842000Y-81157000D01*
X132588000Y-81157000D01*
X132588000Y-81137000D01*
X131804250Y-81137000D01*
X131709000Y-81232250D01*
X131709000Y-81332201D01*
X131436095Y-81332201D01*
X130576369Y-80472475D01*
X131709000Y-80472475D01*
X131709000Y-80787750D01*
X131804250Y-80883000D01*
X132588000Y-80883000D01*
X132588000Y-80224250D01*
X132492750Y-80129000D01*
X132052475Y-80129000D01*
X131978866Y-80143642D01*
X131909529Y-80172362D01*
X131847126Y-80214058D01*
X131794058Y-80267127D01*
X131752362Y-80329529D01*
X131723642Y-80398867D01*
X131709000Y-80472475D01*
X130576369Y-80472475D01*
X129642058Y-79538164D01*
X129732035Y-79481064D01*
X129892737Y-79328029D01*
X130020655Y-79146694D01*
X130110915Y-78943967D01*
X130160079Y-78727570D01*
X130163618Y-78474104D01*
X130120515Y-78256418D01*
X130035951Y-78051250D01*
X129913147Y-77866414D01*
X129756780Y-77708952D01*
X129572806Y-77584860D01*
X129368233Y-77498866D01*
X129150854Y-77454244D01*
X128928947Y-77452695D01*
X128710965Y-77494277D01*
X128505212Y-77577407D01*
X128450820Y-77613000D01*
X126102205Y-77613000D01*
X126098005Y-77560327D01*
X126066136Y-77457420D01*
X126006860Y-77367465D01*
X125924870Y-77297585D01*
X125826658Y-77253314D01*
X125720000Y-77238157D01*
X124470000Y-77238157D01*
X124409327Y-77242995D01*
X124306420Y-77274864D01*
X124216465Y-77334140D01*
X124146585Y-77416130D01*
X124102314Y-77514342D01*
X124087157Y-77621000D01*
X124087157Y-78621000D01*
X124091995Y-78681673D01*
X124123864Y-78784580D01*
X124183140Y-78874535D01*
X124265130Y-78944415D01*
X124363342Y-78988686D01*
X124470000Y-79003843D01*
X125720000Y-79003843D01*
X125780673Y-78999005D01*
X125883580Y-78967136D01*
X125973535Y-78907860D01*
X126043415Y-78825870D01*
X126087686Y-78727658D01*
X126101706Y-78629000D01*
X127899658Y-78629000D01*
X127898943Y-78680205D01*
X127939002Y-78898472D01*
X128020694Y-79104801D01*
X128140905Y-79291333D01*
X128295059Y-79450963D01*
X128477282Y-79577612D01*
X128524000Y-79598023D01*
X128524000Y-79646526D01*
X128528579Y-79693230D01*
X128532669Y-79739974D01*
X128533414Y-79742540D01*
X128533675Y-79745197D01*
X128547227Y-79790082D01*
X128560329Y-79835181D01*
X128561560Y-79837555D01*
X128562331Y-79840110D01*
X128584340Y-79881503D01*
X128605955Y-79923203D01*
X128607623Y-79925292D01*
X128608876Y-79927649D01*
X128638552Y-79964035D01*
X128667810Y-80000685D01*
X128671473Y-80004400D01*
X128671538Y-80004480D01*
X128671612Y-80004541D01*
X128672790Y-80005736D01*
X130563054Y-81896000D01*
X130094940Y-81896000D01*
X130048240Y-81900579D01*
X130001492Y-81904669D01*
X129998926Y-81905414D01*
X129996269Y-81905675D01*
X129951384Y-81919227D01*
X129906285Y-81932329D01*
X129903911Y-81933560D01*
X129901356Y-81934331D01*
X129859924Y-81956361D01*
X129818263Y-81977956D01*
X129816177Y-81979621D01*
X129813817Y-81980876D01*
X129777404Y-82010574D01*
X129740781Y-82039810D01*
X129737066Y-82043473D01*
X129736986Y-82043538D01*
X129736925Y-82043612D01*
X129735730Y-82044790D01*
X129390439Y-82390081D01*
X129368233Y-82380746D01*
X129150854Y-82336124D01*
X128928947Y-82334575D01*
X128710965Y-82376157D01*
X128505212Y-82459287D01*
X128319523Y-82580798D01*
X128160973Y-82736062D01*
X128035600Y-82919164D01*
X127948179Y-83123132D01*
X127902041Y-83340195D01*
X127900885Y-83423000D01*
X126102205Y-83423000D01*
X126098005Y-83370327D01*
X126066136Y-83267420D01*
X126006860Y-83177465D01*
X125924870Y-83107585D01*
X125826658Y-83063314D01*
X125720000Y-83048157D01*
X124470000Y-83048157D01*
X124409327Y-83052995D01*
X124306420Y-83084864D01*
X124216465Y-83144140D01*
X124146585Y-83226130D01*
X124102314Y-83324342D01*
X124087157Y-83431000D01*
X124087157Y-84431000D01*
X124091995Y-84491673D01*
X124123864Y-84594580D01*
X124183140Y-84684535D01*
X124265130Y-84754415D01*
X124363342Y-84798686D01*
X124470000Y-84813843D01*
X125720000Y-84813843D01*
X125780673Y-84809005D01*
X125883580Y-84777136D01*
X125973535Y-84717860D01*
X126043415Y-84635870D01*
X126087686Y-84537658D01*
X126101706Y-84439000D01*
X128447798Y-84439000D01*
X128477282Y-84459492D01*
X128680634Y-84548334D01*
X128897369Y-84595986D01*
X129119233Y-84600634D01*
X129337774Y-84562099D01*
X129544668Y-84481850D01*
X129732035Y-84362944D01*
X129892737Y-84209909D01*
X130020655Y-84028574D01*
X130110915Y-83825847D01*
X130160079Y-83609450D01*
X130163618Y-83355984D01*
X130120515Y-83138298D01*
X130108416Y-83108944D01*
X130305360Y-82912000D01*
X133350000Y-82912000D01*
X133350000Y-83487580D01*
X130350580Y-86487000D01*
X124311210Y-86487000D01*
X124298761Y-86487612D01*
X124249208Y-86492493D01*
X124224791Y-86497350D01*
X124177143Y-86511804D01*
X124154143Y-86521330D01*
X124110229Y-86544802D01*
X124089527Y-86558635D01*
X124051037Y-86590223D01*
X124041802Y-86598592D01*
X122857034Y-87783360D01*
X122834335Y-87728287D01*
X122748882Y-87599670D01*
X122640074Y-87490100D01*
X122512057Y-87403751D01*
X122369705Y-87343912D01*
X122218442Y-87312862D01*
X122066219Y-87311799D01*
X120904000Y-86149580D01*
X120904000Y-82153250D01*
X124089000Y-82153250D01*
X124089000Y-82468525D01*
X124103642Y-82542133D01*
X124132362Y-82611471D01*
X124174058Y-82673873D01*
X124227126Y-82726942D01*
X124289529Y-82768638D01*
X124358866Y-82797358D01*
X124432475Y-82812000D01*
X124872750Y-82812000D01*
X124968000Y-82716750D01*
X124968000Y-82058000D01*
X125222000Y-82058000D01*
X125222000Y-82716750D01*
X125317250Y-82812000D01*
X125757525Y-82812000D01*
X125831134Y-82797358D01*
X125900471Y-82768638D01*
X125962874Y-82726942D01*
X126015942Y-82673873D01*
X126057638Y-82611471D01*
X126086358Y-82542133D01*
X126101000Y-82468525D01*
X126101000Y-82153250D01*
X126005750Y-82058000D01*
X125222000Y-82058000D01*
X124968000Y-82058000D01*
X124184250Y-82058000D01*
X124089000Y-82153250D01*
X120904000Y-82153250D01*
X120904000Y-81534000D01*
X120899421Y-81487296D01*
X120895331Y-81440552D01*
X120894586Y-81437986D01*
X120894325Y-81435329D01*
X120881689Y-81393475D01*
X124089000Y-81393475D01*
X124089000Y-81708750D01*
X124184250Y-81804000D01*
X124968000Y-81804000D01*
X124968000Y-81145250D01*
X125222000Y-81145250D01*
X125222000Y-81804000D01*
X126005750Y-81804000D01*
X126101000Y-81708750D01*
X126101000Y-81393475D01*
X126086358Y-81319867D01*
X126057638Y-81250529D01*
X126015942Y-81188127D01*
X125962874Y-81135058D01*
X125900471Y-81093362D01*
X125831134Y-81064642D01*
X125757525Y-81050000D01*
X125317250Y-81050000D01*
X125222000Y-81145250D01*
X124968000Y-81145250D01*
X124872750Y-81050000D01*
X124432475Y-81050000D01*
X124358866Y-81064642D01*
X124289529Y-81093362D01*
X124227126Y-81135058D01*
X124174058Y-81188127D01*
X124132362Y-81250529D01*
X124103642Y-81319867D01*
X124089000Y-81393475D01*
X120881689Y-81393475D01*
X120880773Y-81390444D01*
X120867671Y-81345345D01*
X120866440Y-81342971D01*
X120865669Y-81340416D01*
X120843660Y-81299023D01*
X120822045Y-81257323D01*
X120820377Y-81255234D01*
X120819124Y-81252877D01*
X120789448Y-81216491D01*
X120760190Y-81179841D01*
X120756527Y-81176126D01*
X120756462Y-81176046D01*
X120756388Y-81175985D01*
X120755210Y-81174790D01*
X119923670Y-80343250D01*
X124089000Y-80343250D01*
X124089000Y-80658525D01*
X124103642Y-80732133D01*
X124132362Y-80801471D01*
X124174058Y-80863873D01*
X124227126Y-80916942D01*
X124289529Y-80958638D01*
X124358866Y-80987358D01*
X124432475Y-81002000D01*
X124872750Y-81002000D01*
X124968000Y-80906750D01*
X124968000Y-80248000D01*
X125222000Y-80248000D01*
X125222000Y-80906750D01*
X125317250Y-81002000D01*
X125757525Y-81002000D01*
X125831134Y-80987358D01*
X125900471Y-80958638D01*
X125962874Y-80916942D01*
X126015942Y-80863873D01*
X126057638Y-80801471D01*
X126086358Y-80732133D01*
X126101000Y-80658525D01*
X126101000Y-80343250D01*
X126005750Y-80248000D01*
X125222000Y-80248000D01*
X124968000Y-80248000D01*
X124184250Y-80248000D01*
X124089000Y-80343250D01*
X119923670Y-80343250D01*
X119163895Y-79583475D01*
X124089000Y-79583475D01*
X124089000Y-79898750D01*
X124184250Y-79994000D01*
X124968000Y-79994000D01*
X124968000Y-79335250D01*
X125222000Y-79335250D01*
X125222000Y-79994000D01*
X126005750Y-79994000D01*
X126101000Y-79898750D01*
X126101000Y-79583475D01*
X126086358Y-79509867D01*
X126057638Y-79440529D01*
X126015942Y-79378127D01*
X125962874Y-79325058D01*
X125900471Y-79283362D01*
X125831134Y-79254642D01*
X125757525Y-79240000D01*
X125317250Y-79240000D01*
X125222000Y-79335250D01*
X124968000Y-79335250D01*
X124872750Y-79240000D01*
X124432475Y-79240000D01*
X124358866Y-79254642D01*
X124289529Y-79283362D01*
X124227126Y-79325058D01*
X124174058Y-79378127D01*
X124132362Y-79440529D01*
X124103642Y-79509867D01*
X124089000Y-79583475D01*
X119163895Y-79583475D01*
X119150009Y-79569589D01*
X119113771Y-79539823D01*
X119077802Y-79509641D01*
X119075460Y-79508353D01*
X119073397Y-79506659D01*
X119032050Y-79484489D01*
X118990921Y-79461878D01*
X118988376Y-79461071D01*
X118986021Y-79459808D01*
X118941129Y-79446083D01*
X118896418Y-79431900D01*
X118893765Y-79431602D01*
X118891209Y-79430821D01*
X118844486Y-79426075D01*
X118797892Y-79420849D01*
X118792672Y-79420812D01*
X118792572Y-79420802D01*
X118792478Y-79420811D01*
X118790799Y-79420799D01*
X118237000Y-79420799D01*
X118237000Y-79248000D01*
X118236388Y-79235551D01*
X118231507Y-79185998D01*
X118226651Y-79161581D01*
X118213000Y-79116579D01*
X118213000Y-78962250D01*
X118117750Y-78867000D01*
X116465236Y-78867000D01*
X116434348Y-78863958D01*
X116410631Y-78856763D01*
X116388784Y-78845086D01*
X116369632Y-78829368D01*
X116353914Y-78810216D01*
X116342237Y-78788369D01*
X116335042Y-78764652D01*
X116332000Y-78733764D01*
X116332000Y-78077475D01*
X116451000Y-78077475D01*
X116451000Y-78517750D01*
X116546250Y-78613000D01*
X117205000Y-78613000D01*
X117205000Y-77829250D01*
X117459000Y-77829250D01*
X117459000Y-78613000D01*
X118117750Y-78613000D01*
X118213000Y-78517750D01*
X118213000Y-78077475D01*
X118198358Y-78003866D01*
X118169638Y-77934529D01*
X118127942Y-77872126D01*
X118074873Y-77819058D01*
X118012471Y-77777362D01*
X117943133Y-77748642D01*
X117869525Y-77734000D01*
X117554250Y-77734000D01*
X117459000Y-77829250D01*
X117205000Y-77829250D01*
X117109750Y-77734000D01*
X116794475Y-77734000D01*
X116720867Y-77748642D01*
X116651529Y-77777362D01*
X116589127Y-77819058D01*
X116536058Y-77872126D01*
X116494362Y-77934529D01*
X116465642Y-78003866D01*
X116451000Y-78077475D01*
X116332000Y-78077475D01*
X116332000Y-77730236D01*
X116335042Y-77699348D01*
X116342237Y-77675631D01*
X116353914Y-77653784D01*
X116369632Y-77634632D01*
X116388784Y-77618914D01*
X116410631Y-77607237D01*
X116434348Y-77600042D01*
X116465236Y-77597000D01*
X121158000Y-77597000D01*
X121170449Y-77596388D01*
X121220002Y-77591507D01*
X121244419Y-77586651D01*
X121292068Y-77572197D01*
X121315069Y-77562669D01*
X121358982Y-77539197D01*
X121379683Y-77525365D01*
X121418173Y-77493777D01*
X121435777Y-77476173D01*
X121467365Y-77437683D01*
X121481197Y-77416982D01*
X121504669Y-77373069D01*
X121514197Y-77350068D01*
X121528651Y-77302419D01*
X121533507Y-77278002D01*
X121538388Y-77228449D01*
X121539000Y-77216000D01*
X121539000Y-75571236D01*
X121542042Y-75540348D01*
X121549237Y-75516631D01*
X121560914Y-75494784D01*
X121576632Y-75475632D01*
X121595784Y-75459914D01*
X121617631Y-75448237D01*
X121641348Y-75441042D01*
X121672236Y-75438000D01*
X129809554Y-75438000D01*
X129840446Y-75441043D01*
X129840446Y-75441043D01*
G37*
X129840446Y-75441043D02*
X129864152Y-75448234D01*
X129886008Y-75459916D01*
X129909998Y-75479604D01*
X131953000Y-77522606D01*
X131953000Y-78155633D01*
X131926420Y-78163864D01*
X131836465Y-78223140D01*
X131766585Y-78305130D01*
X131722314Y-78403342D01*
X131707157Y-78510000D01*
X131707157Y-79510000D01*
X131711995Y-79570673D01*
X131743864Y-79673580D01*
X131803140Y-79763535D01*
X131885130Y-79833415D01*
X131983342Y-79877686D01*
X132090000Y-79892843D01*
X132699817Y-79892843D01*
X132936612Y-80129638D01*
X132842000Y-80224250D01*
X132842000Y-80883000D01*
X133625750Y-80883000D01*
X133721000Y-80787750D01*
X133721000Y-80639000D01*
X134280250Y-80639000D01*
X134320250Y-80679000D01*
X135229000Y-80679000D01*
X135229000Y-80657000D01*
X135483000Y-80657000D01*
X135483000Y-80679000D01*
X135503000Y-80679000D01*
X135503000Y-80929000D01*
X135483000Y-80929000D01*
X135483000Y-80951000D01*
X135229000Y-80951000D01*
X135229000Y-80929000D01*
X134320250Y-80929000D01*
X134225000Y-81024250D01*
X134225000Y-81091525D01*
X134229260Y-81112942D01*
X134208432Y-81119230D01*
X134163345Y-81132329D01*
X134160971Y-81133560D01*
X134158416Y-81134331D01*
X134117003Y-81156351D01*
X134075324Y-81177955D01*
X134073236Y-81179621D01*
X134070877Y-81180876D01*
X134034500Y-81210545D01*
X133997841Y-81239809D01*
X133994125Y-81243474D01*
X133994046Y-81243538D01*
X133993986Y-81243611D01*
X133992790Y-81244790D01*
X133905379Y-81332201D01*
X133721000Y-81332201D01*
X133721000Y-81232250D01*
X133625750Y-81137000D01*
X132842000Y-81137000D01*
X132842000Y-81157000D01*
X132588000Y-81157000D01*
X132588000Y-81137000D01*
X131804250Y-81137000D01*
X131709000Y-81232250D01*
X131709000Y-81332201D01*
X131436095Y-81332201D01*
X130576369Y-80472475D01*
X131709000Y-80472475D01*
X131709000Y-80787750D01*
X131804250Y-80883000D01*
X132588000Y-80883000D01*
X132588000Y-80224250D01*
X132492750Y-80129000D01*
X132052475Y-80129000D01*
X131978866Y-80143642D01*
X131909529Y-80172362D01*
X131847126Y-80214058D01*
X131794058Y-80267127D01*
X131752362Y-80329529D01*
X131723642Y-80398867D01*
X131709000Y-80472475D01*
X130576369Y-80472475D01*
X129642058Y-79538164D01*
X129732035Y-79481064D01*
X129892737Y-79328029D01*
X130020655Y-79146694D01*
X130110915Y-78943967D01*
X130160079Y-78727570D01*
X130163618Y-78474104D01*
X130120515Y-78256418D01*
X130035951Y-78051250D01*
X129913147Y-77866414D01*
X129756780Y-77708952D01*
X129572806Y-77584860D01*
X129368233Y-77498866D01*
X129150854Y-77454244D01*
X128928947Y-77452695D01*
X128710965Y-77494277D01*
X128505212Y-77577407D01*
X128450820Y-77613000D01*
X126102205Y-77613000D01*
X126098005Y-77560327D01*
X126066136Y-77457420D01*
X126006860Y-77367465D01*
X125924870Y-77297585D01*
X125826658Y-77253314D01*
X125720000Y-77238157D01*
X124470000Y-77238157D01*
X124409327Y-77242995D01*
X124306420Y-77274864D01*
X124216465Y-77334140D01*
X124146585Y-77416130D01*
X124102314Y-77514342D01*
X124087157Y-77621000D01*
X124087157Y-78621000D01*
X124091995Y-78681673D01*
X124123864Y-78784580D01*
X124183140Y-78874535D01*
X124265130Y-78944415D01*
X124363342Y-78988686D01*
X124470000Y-79003843D01*
X125720000Y-79003843D01*
X125780673Y-78999005D01*
X125883580Y-78967136D01*
X125973535Y-78907860D01*
X126043415Y-78825870D01*
X126087686Y-78727658D01*
X126101706Y-78629000D01*
X127899658Y-78629000D01*
X127898943Y-78680205D01*
X127939002Y-78898472D01*
X128020694Y-79104801D01*
X128140905Y-79291333D01*
X128295059Y-79450963D01*
X128477282Y-79577612D01*
X128524000Y-79598023D01*
X128524000Y-79646526D01*
X128528579Y-79693230D01*
X128532669Y-79739974D01*
X128533414Y-79742540D01*
X128533675Y-79745197D01*
X128547227Y-79790082D01*
X128560329Y-79835181D01*
X128561560Y-79837555D01*
X128562331Y-79840110D01*
X128584340Y-79881503D01*
X128605955Y-79923203D01*
X128607623Y-79925292D01*
X128608876Y-79927649D01*
X128638552Y-79964035D01*
X128667810Y-80000685D01*
X128671473Y-80004400D01*
X128671538Y-80004480D01*
X128671612Y-80004541D01*
X128672790Y-80005736D01*
X130563054Y-81896000D01*
X130094940Y-81896000D01*
X130048240Y-81900579D01*
X130001492Y-81904669D01*
X129998926Y-81905414D01*
X129996269Y-81905675D01*
X129951384Y-81919227D01*
X129906285Y-81932329D01*
X129903911Y-81933560D01*
X129901356Y-81934331D01*
X129859924Y-81956361D01*
X129818263Y-81977956D01*
X129816177Y-81979621D01*
X129813817Y-81980876D01*
X129777404Y-82010574D01*
X129740781Y-82039810D01*
X129737066Y-82043473D01*
X129736986Y-82043538D01*
X129736925Y-82043612D01*
X129735730Y-82044790D01*
X129390439Y-82390081D01*
X129368233Y-82380746D01*
X129150854Y-82336124D01*
X128928947Y-82334575D01*
X128710965Y-82376157D01*
X128505212Y-82459287D01*
X128319523Y-82580798D01*
X128160973Y-82736062D01*
X128035600Y-82919164D01*
X127948179Y-83123132D01*
X127902041Y-83340195D01*
X127900885Y-83423000D01*
X126102205Y-83423000D01*
X126098005Y-83370327D01*
X126066136Y-83267420D01*
X126006860Y-83177465D01*
X125924870Y-83107585D01*
X125826658Y-83063314D01*
X125720000Y-83048157D01*
X124470000Y-83048157D01*
X124409327Y-83052995D01*
X124306420Y-83084864D01*
X124216465Y-83144140D01*
X124146585Y-83226130D01*
X124102314Y-83324342D01*
X124087157Y-83431000D01*
X124087157Y-84431000D01*
X124091995Y-84491673D01*
X124123864Y-84594580D01*
X124183140Y-84684535D01*
X124265130Y-84754415D01*
X124363342Y-84798686D01*
X124470000Y-84813843D01*
X125720000Y-84813843D01*
X125780673Y-84809005D01*
X125883580Y-84777136D01*
X125973535Y-84717860D01*
X126043415Y-84635870D01*
X126087686Y-84537658D01*
X126101706Y-84439000D01*
X128447798Y-84439000D01*
X128477282Y-84459492D01*
X128680634Y-84548334D01*
X128897369Y-84595986D01*
X129119233Y-84600634D01*
X129337774Y-84562099D01*
X129544668Y-84481850D01*
X129732035Y-84362944D01*
X129892737Y-84209909D01*
X130020655Y-84028574D01*
X130110915Y-83825847D01*
X130160079Y-83609450D01*
X130163618Y-83355984D01*
X130120515Y-83138298D01*
X130108416Y-83108944D01*
X130305360Y-82912000D01*
X133350000Y-82912000D01*
X133350000Y-83487580D01*
X130350580Y-86487000D01*
X124311210Y-86487000D01*
X124298761Y-86487612D01*
X124249208Y-86492493D01*
X124224791Y-86497350D01*
X124177143Y-86511804D01*
X124154143Y-86521330D01*
X124110229Y-86544802D01*
X124089527Y-86558635D01*
X124051037Y-86590223D01*
X124041802Y-86598592D01*
X122857034Y-87783360D01*
X122834335Y-87728287D01*
X122748882Y-87599670D01*
X122640074Y-87490100D01*
X122512057Y-87403751D01*
X122369705Y-87343912D01*
X122218442Y-87312862D01*
X122066219Y-87311799D01*
X120904000Y-86149580D01*
X120904000Y-82153250D01*
X124089000Y-82153250D01*
X124089000Y-82468525D01*
X124103642Y-82542133D01*
X124132362Y-82611471D01*
X124174058Y-82673873D01*
X124227126Y-82726942D01*
X124289529Y-82768638D01*
X124358866Y-82797358D01*
X124432475Y-82812000D01*
X124872750Y-82812000D01*
X124968000Y-82716750D01*
X124968000Y-82058000D01*
X125222000Y-82058000D01*
X125222000Y-82716750D01*
X125317250Y-82812000D01*
X125757525Y-82812000D01*
X125831134Y-82797358D01*
X125900471Y-82768638D01*
X125962874Y-82726942D01*
X126015942Y-82673873D01*
X126057638Y-82611471D01*
X126086358Y-82542133D01*
X126101000Y-82468525D01*
X126101000Y-82153250D01*
X126005750Y-82058000D01*
X125222000Y-82058000D01*
X124968000Y-82058000D01*
X124184250Y-82058000D01*
X124089000Y-82153250D01*
X120904000Y-82153250D01*
X120904000Y-81534000D01*
X120899421Y-81487296D01*
X120895331Y-81440552D01*
X120894586Y-81437986D01*
X120894325Y-81435329D01*
X120881689Y-81393475D01*
X124089000Y-81393475D01*
X124089000Y-81708750D01*
X124184250Y-81804000D01*
X124968000Y-81804000D01*
X124968000Y-81145250D01*
X125222000Y-81145250D01*
X125222000Y-81804000D01*
X126005750Y-81804000D01*
X126101000Y-81708750D01*
X126101000Y-81393475D01*
X126086358Y-81319867D01*
X126057638Y-81250529D01*
X126015942Y-81188127D01*
X125962874Y-81135058D01*
X125900471Y-81093362D01*
X125831134Y-81064642D01*
X125757525Y-81050000D01*
X125317250Y-81050000D01*
X125222000Y-81145250D01*
X124968000Y-81145250D01*
X124872750Y-81050000D01*
X124432475Y-81050000D01*
X124358866Y-81064642D01*
X124289529Y-81093362D01*
X124227126Y-81135058D01*
X124174058Y-81188127D01*
X124132362Y-81250529D01*
X124103642Y-81319867D01*
X124089000Y-81393475D01*
X120881689Y-81393475D01*
X120880773Y-81390444D01*
X120867671Y-81345345D01*
X120866440Y-81342971D01*
X120865669Y-81340416D01*
X120843660Y-81299023D01*
X120822045Y-81257323D01*
X120820377Y-81255234D01*
X120819124Y-81252877D01*
X120789448Y-81216491D01*
X120760190Y-81179841D01*
X120756527Y-81176126D01*
X120756462Y-81176046D01*
X120756388Y-81175985D01*
X120755210Y-81174790D01*
X119923670Y-80343250D01*
X124089000Y-80343250D01*
X124089000Y-80658525D01*
X124103642Y-80732133D01*
X124132362Y-80801471D01*
X124174058Y-80863873D01*
X124227126Y-80916942D01*
X124289529Y-80958638D01*
X124358866Y-80987358D01*
X124432475Y-81002000D01*
X124872750Y-81002000D01*
X124968000Y-80906750D01*
X124968000Y-80248000D01*
X125222000Y-80248000D01*
X125222000Y-80906750D01*
X125317250Y-81002000D01*
X125757525Y-81002000D01*
X125831134Y-80987358D01*
X125900471Y-80958638D01*
X125962874Y-80916942D01*
X126015942Y-80863873D01*
X126057638Y-80801471D01*
X126086358Y-80732133D01*
X126101000Y-80658525D01*
X126101000Y-80343250D01*
X126005750Y-80248000D01*
X125222000Y-80248000D01*
X124968000Y-80248000D01*
X124184250Y-80248000D01*
X124089000Y-80343250D01*
X119923670Y-80343250D01*
X119163895Y-79583475D01*
X124089000Y-79583475D01*
X124089000Y-79898750D01*
X124184250Y-79994000D01*
X124968000Y-79994000D01*
X124968000Y-79335250D01*
X125222000Y-79335250D01*
X125222000Y-79994000D01*
X126005750Y-79994000D01*
X126101000Y-79898750D01*
X126101000Y-79583475D01*
X126086358Y-79509867D01*
X126057638Y-79440529D01*
X126015942Y-79378127D01*
X125962874Y-79325058D01*
X125900471Y-79283362D01*
X125831134Y-79254642D01*
X125757525Y-79240000D01*
X125317250Y-79240000D01*
X125222000Y-79335250D01*
X124968000Y-79335250D01*
X124872750Y-79240000D01*
X124432475Y-79240000D01*
X124358866Y-79254642D01*
X124289529Y-79283362D01*
X124227126Y-79325058D01*
X124174058Y-79378127D01*
X124132362Y-79440529D01*
X124103642Y-79509867D01*
X124089000Y-79583475D01*
X119163895Y-79583475D01*
X119150009Y-79569589D01*
X119113771Y-79539823D01*
X119077802Y-79509641D01*
X119075460Y-79508353D01*
X119073397Y-79506659D01*
X119032050Y-79484489D01*
X118990921Y-79461878D01*
X118988376Y-79461071D01*
X118986021Y-79459808D01*
X118941129Y-79446083D01*
X118896418Y-79431900D01*
X118893765Y-79431602D01*
X118891209Y-79430821D01*
X118844486Y-79426075D01*
X118797892Y-79420849D01*
X118792672Y-79420812D01*
X118792572Y-79420802D01*
X118792478Y-79420811D01*
X118790799Y-79420799D01*
X118237000Y-79420799D01*
X118237000Y-79248000D01*
X118236388Y-79235551D01*
X118231507Y-79185998D01*
X118226651Y-79161581D01*
X118213000Y-79116579D01*
X118213000Y-78962250D01*
X118117750Y-78867000D01*
X116465236Y-78867000D01*
X116434348Y-78863958D01*
X116410631Y-78856763D01*
X116388784Y-78845086D01*
X116369632Y-78829368D01*
X116353914Y-78810216D01*
X116342237Y-78788369D01*
X116335042Y-78764652D01*
X116332000Y-78733764D01*
X116332000Y-78077475D01*
X116451000Y-78077475D01*
X116451000Y-78517750D01*
X116546250Y-78613000D01*
X117205000Y-78613000D01*
X117205000Y-77829250D01*
X117459000Y-77829250D01*
X117459000Y-78613000D01*
X118117750Y-78613000D01*
X118213000Y-78517750D01*
X118213000Y-78077475D01*
X118198358Y-78003866D01*
X118169638Y-77934529D01*
X118127942Y-77872126D01*
X118074873Y-77819058D01*
X118012471Y-77777362D01*
X117943133Y-77748642D01*
X117869525Y-77734000D01*
X117554250Y-77734000D01*
X117459000Y-77829250D01*
X117205000Y-77829250D01*
X117109750Y-77734000D01*
X116794475Y-77734000D01*
X116720867Y-77748642D01*
X116651529Y-77777362D01*
X116589127Y-77819058D01*
X116536058Y-77872126D01*
X116494362Y-77934529D01*
X116465642Y-78003866D01*
X116451000Y-78077475D01*
X116332000Y-78077475D01*
X116332000Y-77730236D01*
X116335042Y-77699348D01*
X116342237Y-77675631D01*
X116353914Y-77653784D01*
X116369632Y-77634632D01*
X116388784Y-77618914D01*
X116410631Y-77607237D01*
X116434348Y-77600042D01*
X116465236Y-77597000D01*
X121158000Y-77597000D01*
X121170449Y-77596388D01*
X121220002Y-77591507D01*
X121244419Y-77586651D01*
X121292068Y-77572197D01*
X121315069Y-77562669D01*
X121358982Y-77539197D01*
X121379683Y-77525365D01*
X121418173Y-77493777D01*
X121435777Y-77476173D01*
X121467365Y-77437683D01*
X121481197Y-77416982D01*
X121504669Y-77373069D01*
X121514197Y-77350068D01*
X121528651Y-77302419D01*
X121533507Y-77278002D01*
X121538388Y-77228449D01*
X121539000Y-77216000D01*
X121539000Y-75571236D01*
X121542042Y-75540348D01*
X121549237Y-75516631D01*
X121560914Y-75494784D01*
X121576632Y-75475632D01*
X121595784Y-75459914D01*
X121617631Y-75448237D01*
X121641348Y-75441042D01*
X121672236Y-75438000D01*
X129809554Y-75438000D01*
X129840446Y-75441043D01*
G36*
X147344652Y-76457042D02*
X147368369Y-76464237D01*
X147390216Y-76475914D01*
X147409368Y-76491632D01*
X147425086Y-76510784D01*
X147436763Y-76532631D01*
X147443958Y-76556348D01*
X147445247Y-76569434D01*
X147444161Y-76647191D01*
X147447000Y-76662660D01*
X147447000Y-76962000D01*
X147447612Y-76974449D01*
X147452493Y-77024002D01*
X147457349Y-77048419D01*
X147471803Y-77096068D01*
X147481331Y-77119069D01*
X147504803Y-77162982D01*
X147518635Y-77183683D01*
X147550223Y-77222173D01*
X147567827Y-77239777D01*
X147606317Y-77271365D01*
X147627018Y-77285197D01*
X147670931Y-77308669D01*
X147693932Y-77318197D01*
X147741581Y-77332651D01*
X147765998Y-77337507D01*
X147815551Y-77342388D01*
X147828000Y-77343000D01*
X148031448Y-77343000D01*
X148138914Y-77366628D01*
X148293297Y-77369862D01*
X148445368Y-77343048D01*
X148445492Y-77343000D01*
X149472764Y-77343000D01*
X149503652Y-77346042D01*
X149527369Y-77353237D01*
X149549216Y-77364914D01*
X149557810Y-77371967D01*
X149146487Y-77783289D01*
X149042211Y-77803181D01*
X148899038Y-77861027D01*
X148769827Y-77945580D01*
X148659500Y-78053620D01*
X148572259Y-78181032D01*
X148511428Y-78322962D01*
X148479323Y-78474005D01*
X148477167Y-78628407D01*
X148505042Y-78780287D01*
X148561887Y-78923860D01*
X148645536Y-79053658D01*
X148752803Y-79164737D01*
X148879603Y-79252865D01*
X149021105Y-79314685D01*
X149171920Y-79347844D01*
X149326303Y-79351078D01*
X149478374Y-79324264D01*
X149606000Y-79274761D01*
X149606000Y-84752937D01*
X149534291Y-84752436D01*
X149382609Y-84781371D01*
X149239436Y-84839217D01*
X149110225Y-84923770D01*
X148999898Y-85031810D01*
X148912657Y-85159222D01*
X148851826Y-85301152D01*
X148819721Y-85452195D01*
X148817565Y-85606597D01*
X148845440Y-85758477D01*
X148902285Y-85902050D01*
X148985934Y-86031848D01*
X149093201Y-86142927D01*
X149220001Y-86231055D01*
X149361503Y-86292875D01*
X149512318Y-86326034D01*
X149606000Y-86327996D01*
X149606000Y-88512764D01*
X149602958Y-88543652D01*
X149595763Y-88567369D01*
X149584086Y-88589216D01*
X149568368Y-88608368D01*
X149549216Y-88624086D01*
X149527369Y-88635763D01*
X149503652Y-88642958D01*
X149472764Y-88646000D01*
X148717000Y-88646000D01*
X148717000Y-87884000D01*
X148688997Y-87740633D01*
X148605408Y-87614592D01*
X147335408Y-86344592D01*
X147214230Y-86263017D01*
X147066000Y-86233000D01*
X138049000Y-86233000D01*
X138049000Y-77984236D01*
X138052042Y-77953348D01*
X138059237Y-77929631D01*
X138070914Y-77907784D01*
X138086632Y-77888632D01*
X138105784Y-77872914D01*
X138127631Y-77861237D01*
X138151348Y-77854042D01*
X138182236Y-77851000D01*
X142388790Y-77851000D01*
X142401239Y-77850388D01*
X142450792Y-77845507D01*
X142475209Y-77840650D01*
X142522857Y-77826196D01*
X142545857Y-77816670D01*
X142589771Y-77793198D01*
X142610473Y-77779365D01*
X142648963Y-77747777D01*
X142658198Y-77739408D01*
X143267002Y-77130604D01*
X143290992Y-77110916D01*
X143312848Y-77099234D01*
X143336554Y-77092043D01*
X143367446Y-77089000D01*
X144869616Y-77089000D01*
X144876601Y-77093855D01*
X145018103Y-77155675D01*
X145168918Y-77188834D01*
X145323301Y-77192068D01*
X145475372Y-77165254D01*
X145619339Y-77109413D01*
X145651505Y-77089000D01*
X146071790Y-77089000D01*
X146084239Y-77088388D01*
X146133792Y-77083507D01*
X146158209Y-77078650D01*
X146205857Y-77064196D01*
X146228857Y-77054670D01*
X146272771Y-77031198D01*
X146293473Y-77017365D01*
X146331963Y-76985777D01*
X146341198Y-76977408D01*
X146823002Y-76495604D01*
X146846992Y-76475916D01*
X146868848Y-76464234D01*
X146892554Y-76457043D01*
X146923446Y-76454000D01*
X147313764Y-76454000D01*
X147344652Y-76457042D01*
X147344652Y-76457042D01*
G37*
X147344652Y-76457042D02*
X147368369Y-76464237D01*
X147390216Y-76475914D01*
X147409368Y-76491632D01*
X147425086Y-76510784D01*
X147436763Y-76532631D01*
X147443958Y-76556348D01*
X147445247Y-76569434D01*
X147444161Y-76647191D01*
X147447000Y-76662660D01*
X147447000Y-76962000D01*
X147447612Y-76974449D01*
X147452493Y-77024002D01*
X147457349Y-77048419D01*
X147471803Y-77096068D01*
X147481331Y-77119069D01*
X147504803Y-77162982D01*
X147518635Y-77183683D01*
X147550223Y-77222173D01*
X147567827Y-77239777D01*
X147606317Y-77271365D01*
X147627018Y-77285197D01*
X147670931Y-77308669D01*
X147693932Y-77318197D01*
X147741581Y-77332651D01*
X147765998Y-77337507D01*
X147815551Y-77342388D01*
X147828000Y-77343000D01*
X148031448Y-77343000D01*
X148138914Y-77366628D01*
X148293297Y-77369862D01*
X148445368Y-77343048D01*
X148445492Y-77343000D01*
X149472764Y-77343000D01*
X149503652Y-77346042D01*
X149527369Y-77353237D01*
X149549216Y-77364914D01*
X149557810Y-77371967D01*
X149146487Y-77783289D01*
X149042211Y-77803181D01*
X148899038Y-77861027D01*
X148769827Y-77945580D01*
X148659500Y-78053620D01*
X148572259Y-78181032D01*
X148511428Y-78322962D01*
X148479323Y-78474005D01*
X148477167Y-78628407D01*
X148505042Y-78780287D01*
X148561887Y-78923860D01*
X148645536Y-79053658D01*
X148752803Y-79164737D01*
X148879603Y-79252865D01*
X149021105Y-79314685D01*
X149171920Y-79347844D01*
X149326303Y-79351078D01*
X149478374Y-79324264D01*
X149606000Y-79274761D01*
X149606000Y-84752937D01*
X149534291Y-84752436D01*
X149382609Y-84781371D01*
X149239436Y-84839217D01*
X149110225Y-84923770D01*
X148999898Y-85031810D01*
X148912657Y-85159222D01*
X148851826Y-85301152D01*
X148819721Y-85452195D01*
X148817565Y-85606597D01*
X148845440Y-85758477D01*
X148902285Y-85902050D01*
X148985934Y-86031848D01*
X149093201Y-86142927D01*
X149220001Y-86231055D01*
X149361503Y-86292875D01*
X149512318Y-86326034D01*
X149606000Y-86327996D01*
X149606000Y-88512764D01*
X149602958Y-88543652D01*
X149595763Y-88567369D01*
X149584086Y-88589216D01*
X149568368Y-88608368D01*
X149549216Y-88624086D01*
X149527369Y-88635763D01*
X149503652Y-88642958D01*
X149472764Y-88646000D01*
X148717000Y-88646000D01*
X148717000Y-87884000D01*
X148688997Y-87740633D01*
X148605408Y-87614592D01*
X147335408Y-86344592D01*
X147214230Y-86263017D01*
X147066000Y-86233000D01*
X138049000Y-86233000D01*
X138049000Y-77984236D01*
X138052042Y-77953348D01*
X138059237Y-77929631D01*
X138070914Y-77907784D01*
X138086632Y-77888632D01*
X138105784Y-77872914D01*
X138127631Y-77861237D01*
X138151348Y-77854042D01*
X138182236Y-77851000D01*
X142388790Y-77851000D01*
X142401239Y-77850388D01*
X142450792Y-77845507D01*
X142475209Y-77840650D01*
X142522857Y-77826196D01*
X142545857Y-77816670D01*
X142589771Y-77793198D01*
X142610473Y-77779365D01*
X142648963Y-77747777D01*
X142658198Y-77739408D01*
X143267002Y-77130604D01*
X143290992Y-77110916D01*
X143312848Y-77099234D01*
X143336554Y-77092043D01*
X143367446Y-77089000D01*
X144869616Y-77089000D01*
X144876601Y-77093855D01*
X145018103Y-77155675D01*
X145168918Y-77188834D01*
X145323301Y-77192068D01*
X145475372Y-77165254D01*
X145619339Y-77109413D01*
X145651505Y-77089000D01*
X146071790Y-77089000D01*
X146084239Y-77088388D01*
X146133792Y-77083507D01*
X146158209Y-77078650D01*
X146205857Y-77064196D01*
X146228857Y-77054670D01*
X146272771Y-77031198D01*
X146293473Y-77017365D01*
X146331963Y-76985777D01*
X146341198Y-76977408D01*
X146823002Y-76495604D01*
X146846992Y-76475916D01*
X146868848Y-76464234D01*
X146892554Y-76457043D01*
X146923446Y-76454000D01*
X147313764Y-76454000D01*
X147344652Y-76457042D01*
G36*
X162226219Y-66805307D02*
X162296609Y-66875697D01*
X162067435Y-67028089D01*
X161916956Y-67334067D01*
X161829061Y-67663523D01*
X161807128Y-68003797D01*
X161852002Y-68341810D01*
X161961956Y-68664574D01*
X162067435Y-68861911D01*
X162296611Y-69014304D01*
X163365915Y-67945000D01*
X163351773Y-67930858D01*
X163531378Y-67751253D01*
X163545520Y-67765395D01*
X163559663Y-67751253D01*
X163739268Y-67930858D01*
X163725125Y-67945000D01*
X164794429Y-69014304D01*
X165023605Y-68861911D01*
X165174084Y-68555933D01*
X165261979Y-68226477D01*
X165283912Y-67886203D01*
X165239038Y-67548190D01*
X165129084Y-67225426D01*
X165023605Y-67028089D01*
X164794431Y-66875697D01*
X164864821Y-66805307D01*
X164828697Y-66769183D01*
X165517163Y-66769183D01*
X168248899Y-69500919D01*
X168192913Y-69499427D01*
X167970996Y-69537454D01*
X167760762Y-69618044D01*
X167706796Y-69646889D01*
X167625455Y-69815870D01*
X168275000Y-70465415D01*
X168289143Y-70451273D01*
X168468748Y-70630878D01*
X168454605Y-70645020D01*
X168468748Y-70659163D01*
X168289143Y-70838768D01*
X168275000Y-70824625D01*
X168260858Y-70838768D01*
X168081253Y-70659163D01*
X168095395Y-70645020D01*
X167445850Y-69995475D01*
X167276869Y-70076816D01*
X167185197Y-70282459D01*
X167135405Y-70502036D01*
X167129407Y-70727107D01*
X167167434Y-70949024D01*
X167248024Y-71159258D01*
X167276869Y-71213224D01*
X167445848Y-71294564D01*
X167373497Y-71366915D01*
X167380582Y-71374000D01*
X165735000Y-71374000D01*
X165722551Y-71374612D01*
X165672998Y-71379493D01*
X165648581Y-71384349D01*
X165600932Y-71398803D01*
X165577931Y-71408331D01*
X165534018Y-71431803D01*
X165513317Y-71445635D01*
X165474827Y-71477223D01*
X165457223Y-71494827D01*
X165425635Y-71533317D01*
X165411803Y-71554018D01*
X165388331Y-71597931D01*
X165378803Y-71620932D01*
X165364349Y-71668581D01*
X165359493Y-71692998D01*
X165354612Y-71742551D01*
X165354000Y-71755000D01*
X165354000Y-79495764D01*
X165350958Y-79526652D01*
X165343763Y-79550369D01*
X165332086Y-79572216D01*
X165316368Y-79591368D01*
X165297216Y-79607086D01*
X165275369Y-79618763D01*
X165251652Y-79625958D01*
X165220764Y-79629000D01*
X164058538Y-79629000D01*
X164020597Y-79536949D01*
X163935144Y-79408332D01*
X163826336Y-79298762D01*
X163698319Y-79212413D01*
X163555967Y-79152574D01*
X163404704Y-79121524D01*
X163250291Y-79120446D01*
X163098609Y-79149381D01*
X162955436Y-79207227D01*
X162826225Y-79291780D01*
X162715898Y-79399820D01*
X162650042Y-79496000D01*
X156401747Y-79496000D01*
X156420560Y-79453745D01*
X156454771Y-79303165D01*
X156457234Y-79126791D01*
X156427241Y-78975315D01*
X156368397Y-78832549D01*
X156282944Y-78703932D01*
X156174136Y-78594362D01*
X156046119Y-78508013D01*
X155969963Y-78476000D01*
X156067002Y-78476000D01*
X156067002Y-78380752D01*
X156162250Y-78476000D01*
X156477525Y-78476000D01*
X156551133Y-78461358D01*
X156620471Y-78432638D01*
X156682873Y-78390942D01*
X156735942Y-78337874D01*
X156777638Y-78275471D01*
X156806358Y-78206134D01*
X156821000Y-78132525D01*
X156821000Y-77692250D01*
X156725750Y-77597000D01*
X156067000Y-77597000D01*
X156067000Y-77617000D01*
X155813000Y-77617000D01*
X155813000Y-77597000D01*
X155154250Y-77597000D01*
X155059000Y-77692250D01*
X155059000Y-78132525D01*
X155073642Y-78206134D01*
X155102362Y-78275471D01*
X155144058Y-78337874D01*
X155197127Y-78390942D01*
X155259529Y-78432638D01*
X155328867Y-78461358D01*
X155380469Y-78471623D01*
X155303236Y-78502827D01*
X155174025Y-78587380D01*
X155063698Y-78695420D01*
X155063301Y-78696000D01*
X154813000Y-78696000D01*
X154813000Y-78164264D01*
X154822843Y-78095000D01*
X154822843Y-76845000D01*
X154819851Y-76807475D01*
X155059000Y-76807475D01*
X155059000Y-77247750D01*
X155154250Y-77343000D01*
X155813000Y-77343000D01*
X155813000Y-76559250D01*
X156067000Y-76559250D01*
X156067000Y-77343000D01*
X156725750Y-77343000D01*
X156821000Y-77247750D01*
X156821000Y-76807475D01*
X156806358Y-76733866D01*
X156777638Y-76664529D01*
X156735942Y-76602126D01*
X156682873Y-76549058D01*
X156620471Y-76507362D01*
X156551133Y-76478642D01*
X156477525Y-76464000D01*
X156162250Y-76464000D01*
X156067000Y-76559250D01*
X155813000Y-76559250D01*
X155717750Y-76464000D01*
X155402475Y-76464000D01*
X155328867Y-76478642D01*
X155259529Y-76507362D01*
X155197127Y-76549058D01*
X155144058Y-76602126D01*
X155102362Y-76664529D01*
X155073642Y-76733866D01*
X155059000Y-76807475D01*
X154819851Y-76807475D01*
X154818005Y-76784327D01*
X154813000Y-76768166D01*
X154813000Y-75624264D01*
X154822843Y-75555000D01*
X154822843Y-75152250D01*
X155059000Y-75152250D01*
X155059000Y-75592525D01*
X155073642Y-75666134D01*
X155102362Y-75735471D01*
X155144058Y-75797874D01*
X155197127Y-75850942D01*
X155259529Y-75892638D01*
X155328867Y-75921358D01*
X155402475Y-75936000D01*
X155717750Y-75936000D01*
X155813000Y-75840750D01*
X155813000Y-75057000D01*
X156067000Y-75057000D01*
X156067000Y-75840750D01*
X156162250Y-75936000D01*
X156477525Y-75936000D01*
X156551133Y-75921358D01*
X156620471Y-75892638D01*
X156682873Y-75850942D01*
X156735942Y-75797874D01*
X156777638Y-75735471D01*
X156806358Y-75666134D01*
X156821000Y-75592525D01*
X156821000Y-75152250D01*
X156725750Y-75057000D01*
X156067000Y-75057000D01*
X155813000Y-75057000D01*
X155154250Y-75057000D01*
X155059000Y-75152250D01*
X154822843Y-75152250D01*
X154822843Y-74305000D01*
X154819851Y-74267475D01*
X155059000Y-74267475D01*
X155059000Y-74707750D01*
X155154250Y-74803000D01*
X155813000Y-74803000D01*
X155813000Y-74019250D01*
X156067000Y-74019250D01*
X156067000Y-74803000D01*
X156725750Y-74803000D01*
X156821000Y-74707750D01*
X156821000Y-74267475D01*
X156806358Y-74193866D01*
X156777638Y-74124529D01*
X156735942Y-74062126D01*
X156682873Y-74009058D01*
X156620471Y-73967362D01*
X156551133Y-73938642D01*
X156477525Y-73924000D01*
X156162250Y-73924000D01*
X156067000Y-74019250D01*
X155813000Y-74019250D01*
X155717750Y-73924000D01*
X155402475Y-73924000D01*
X155328867Y-73938642D01*
X155259529Y-73967362D01*
X155197127Y-74009058D01*
X155144058Y-74062126D01*
X155102362Y-74124529D01*
X155073642Y-74193866D01*
X155059000Y-74267475D01*
X154819851Y-74267475D01*
X154818005Y-74244327D01*
X154813000Y-74228166D01*
X154813000Y-73644446D01*
X154816043Y-73613554D01*
X154823234Y-73589848D01*
X154834916Y-73567992D01*
X154854604Y-73544002D01*
X159204697Y-69193909D01*
X162476216Y-69193909D01*
X162628609Y-69423085D01*
X162934587Y-69573564D01*
X163264043Y-69661459D01*
X163604317Y-69683392D01*
X163942330Y-69638518D01*
X164265094Y-69528564D01*
X164462431Y-69423085D01*
X164614824Y-69193909D01*
X163545520Y-68124605D01*
X162476216Y-69193909D01*
X159204697Y-69193909D01*
X161629423Y-66769183D01*
X162262343Y-66769183D01*
X162226219Y-66805307D01*
X162226219Y-66805307D01*
G37*
X162226219Y-66805307D02*
X162296609Y-66875697D01*
X162067435Y-67028089D01*
X161916956Y-67334067D01*
X161829061Y-67663523D01*
X161807128Y-68003797D01*
X161852002Y-68341810D01*
X161961956Y-68664574D01*
X162067435Y-68861911D01*
X162296611Y-69014304D01*
X163365915Y-67945000D01*
X163351773Y-67930858D01*
X163531378Y-67751253D01*
X163545520Y-67765395D01*
X163559663Y-67751253D01*
X163739268Y-67930858D01*
X163725125Y-67945000D01*
X164794429Y-69014304D01*
X165023605Y-68861911D01*
X165174084Y-68555933D01*
X165261979Y-68226477D01*
X165283912Y-67886203D01*
X165239038Y-67548190D01*
X165129084Y-67225426D01*
X165023605Y-67028089D01*
X164794431Y-66875697D01*
X164864821Y-66805307D01*
X164828697Y-66769183D01*
X165517163Y-66769183D01*
X168248899Y-69500919D01*
X168192913Y-69499427D01*
X167970996Y-69537454D01*
X167760762Y-69618044D01*
X167706796Y-69646889D01*
X167625455Y-69815870D01*
X168275000Y-70465415D01*
X168289143Y-70451273D01*
X168468748Y-70630878D01*
X168454605Y-70645020D01*
X168468748Y-70659163D01*
X168289143Y-70838768D01*
X168275000Y-70824625D01*
X168260858Y-70838768D01*
X168081253Y-70659163D01*
X168095395Y-70645020D01*
X167445850Y-69995475D01*
X167276869Y-70076816D01*
X167185197Y-70282459D01*
X167135405Y-70502036D01*
X167129407Y-70727107D01*
X167167434Y-70949024D01*
X167248024Y-71159258D01*
X167276869Y-71213224D01*
X167445848Y-71294564D01*
X167373497Y-71366915D01*
X167380582Y-71374000D01*
X165735000Y-71374000D01*
X165722551Y-71374612D01*
X165672998Y-71379493D01*
X165648581Y-71384349D01*
X165600932Y-71398803D01*
X165577931Y-71408331D01*
X165534018Y-71431803D01*
X165513317Y-71445635D01*
X165474827Y-71477223D01*
X165457223Y-71494827D01*
X165425635Y-71533317D01*
X165411803Y-71554018D01*
X165388331Y-71597931D01*
X165378803Y-71620932D01*
X165364349Y-71668581D01*
X165359493Y-71692998D01*
X165354612Y-71742551D01*
X165354000Y-71755000D01*
X165354000Y-79495764D01*
X165350958Y-79526652D01*
X165343763Y-79550369D01*
X165332086Y-79572216D01*
X165316368Y-79591368D01*
X165297216Y-79607086D01*
X165275369Y-79618763D01*
X165251652Y-79625958D01*
X165220764Y-79629000D01*
X164058538Y-79629000D01*
X164020597Y-79536949D01*
X163935144Y-79408332D01*
X163826336Y-79298762D01*
X163698319Y-79212413D01*
X163555967Y-79152574D01*
X163404704Y-79121524D01*
X163250291Y-79120446D01*
X163098609Y-79149381D01*
X162955436Y-79207227D01*
X162826225Y-79291780D01*
X162715898Y-79399820D01*
X162650042Y-79496000D01*
X156401747Y-79496000D01*
X156420560Y-79453745D01*
X156454771Y-79303165D01*
X156457234Y-79126791D01*
X156427241Y-78975315D01*
X156368397Y-78832549D01*
X156282944Y-78703932D01*
X156174136Y-78594362D01*
X156046119Y-78508013D01*
X155969963Y-78476000D01*
X156067002Y-78476000D01*
X156067002Y-78380752D01*
X156162250Y-78476000D01*
X156477525Y-78476000D01*
X156551133Y-78461358D01*
X156620471Y-78432638D01*
X156682873Y-78390942D01*
X156735942Y-78337874D01*
X156777638Y-78275471D01*
X156806358Y-78206134D01*
X156821000Y-78132525D01*
X156821000Y-77692250D01*
X156725750Y-77597000D01*
X156067000Y-77597000D01*
X156067000Y-77617000D01*
X155813000Y-77617000D01*
X155813000Y-77597000D01*
X155154250Y-77597000D01*
X155059000Y-77692250D01*
X155059000Y-78132525D01*
X155073642Y-78206134D01*
X155102362Y-78275471D01*
X155144058Y-78337874D01*
X155197127Y-78390942D01*
X155259529Y-78432638D01*
X155328867Y-78461358D01*
X155380469Y-78471623D01*
X155303236Y-78502827D01*
X155174025Y-78587380D01*
X155063698Y-78695420D01*
X155063301Y-78696000D01*
X154813000Y-78696000D01*
X154813000Y-78164264D01*
X154822843Y-78095000D01*
X154822843Y-76845000D01*
X154819851Y-76807475D01*
X155059000Y-76807475D01*
X155059000Y-77247750D01*
X155154250Y-77343000D01*
X155813000Y-77343000D01*
X155813000Y-76559250D01*
X156067000Y-76559250D01*
X156067000Y-77343000D01*
X156725750Y-77343000D01*
X156821000Y-77247750D01*
X156821000Y-76807475D01*
X156806358Y-76733866D01*
X156777638Y-76664529D01*
X156735942Y-76602126D01*
X156682873Y-76549058D01*
X156620471Y-76507362D01*
X156551133Y-76478642D01*
X156477525Y-76464000D01*
X156162250Y-76464000D01*
X156067000Y-76559250D01*
X155813000Y-76559250D01*
X155717750Y-76464000D01*
X155402475Y-76464000D01*
X155328867Y-76478642D01*
X155259529Y-76507362D01*
X155197127Y-76549058D01*
X155144058Y-76602126D01*
X155102362Y-76664529D01*
X155073642Y-76733866D01*
X155059000Y-76807475D01*
X154819851Y-76807475D01*
X154818005Y-76784327D01*
X154813000Y-76768166D01*
X154813000Y-75624264D01*
X154822843Y-75555000D01*
X154822843Y-75152250D01*
X155059000Y-75152250D01*
X155059000Y-75592525D01*
X155073642Y-75666134D01*
X155102362Y-75735471D01*
X155144058Y-75797874D01*
X155197127Y-75850942D01*
X155259529Y-75892638D01*
X155328867Y-75921358D01*
X155402475Y-75936000D01*
X155717750Y-75936000D01*
X155813000Y-75840750D01*
X155813000Y-75057000D01*
X156067000Y-75057000D01*
X156067000Y-75840750D01*
X156162250Y-75936000D01*
X156477525Y-75936000D01*
X156551133Y-75921358D01*
X156620471Y-75892638D01*
X156682873Y-75850942D01*
X156735942Y-75797874D01*
X156777638Y-75735471D01*
X156806358Y-75666134D01*
X156821000Y-75592525D01*
X156821000Y-75152250D01*
X156725750Y-75057000D01*
X156067000Y-75057000D01*
X155813000Y-75057000D01*
X155154250Y-75057000D01*
X155059000Y-75152250D01*
X154822843Y-75152250D01*
X154822843Y-74305000D01*
X154819851Y-74267475D01*
X155059000Y-74267475D01*
X155059000Y-74707750D01*
X155154250Y-74803000D01*
X155813000Y-74803000D01*
X155813000Y-74019250D01*
X156067000Y-74019250D01*
X156067000Y-74803000D01*
X156725750Y-74803000D01*
X156821000Y-74707750D01*
X156821000Y-74267475D01*
X156806358Y-74193866D01*
X156777638Y-74124529D01*
X156735942Y-74062126D01*
X156682873Y-74009058D01*
X156620471Y-73967362D01*
X156551133Y-73938642D01*
X156477525Y-73924000D01*
X156162250Y-73924000D01*
X156067000Y-74019250D01*
X155813000Y-74019250D01*
X155717750Y-73924000D01*
X155402475Y-73924000D01*
X155328867Y-73938642D01*
X155259529Y-73967362D01*
X155197127Y-74009058D01*
X155144058Y-74062126D01*
X155102362Y-74124529D01*
X155073642Y-74193866D01*
X155059000Y-74267475D01*
X154819851Y-74267475D01*
X154818005Y-74244327D01*
X154813000Y-74228166D01*
X154813000Y-73644446D01*
X154816043Y-73613554D01*
X154823234Y-73589848D01*
X154834916Y-73567992D01*
X154854604Y-73544002D01*
X159204697Y-69193909D01*
X162476216Y-69193909D01*
X162628609Y-69423085D01*
X162934587Y-69573564D01*
X163264043Y-69661459D01*
X163604317Y-69683392D01*
X163942330Y-69638518D01*
X164265094Y-69528564D01*
X164462431Y-69423085D01*
X164614824Y-69193909D01*
X163545520Y-68124605D01*
X162476216Y-69193909D01*
X159204697Y-69193909D01*
X161629423Y-66769183D01*
X162262343Y-66769183D01*
X162226219Y-66805307D01*
G36*
X135636000Y-72780250D02*
X135636000Y-74295000D01*
X132798420Y-74295000D01*
X132334000Y-73830580D01*
X132334000Y-71755000D01*
X134610750Y-71755000D01*
X135636000Y-72780250D01*
X135636000Y-72780250D01*
G37*
X135636000Y-72780250D02*
X135636000Y-74295000D01*
X132798420Y-74295000D01*
X132334000Y-73830580D01*
X132334000Y-71755000D01*
X134610750Y-71755000D01*
X135636000Y-72780250D01*
G36*
X151789652Y-93983042D02*
X151813369Y-93990237D01*
X151835216Y-94001914D01*
X151854368Y-94017632D01*
X151870086Y-94036784D01*
X151881763Y-94058631D01*
X151888958Y-94082348D01*
X151892000Y-94113236D01*
X151892000Y-98451079D01*
X151856310Y-98227922D01*
X151769369Y-97993347D01*
X151723946Y-97908369D01*
X151541978Y-97811627D01*
X150801605Y-98552000D01*
X151541978Y-99292373D01*
X151723946Y-99195631D01*
X151828339Y-98968284D01*
X151886373Y-98724941D01*
X151891186Y-98597553D01*
X151890331Y-98658785D01*
X151892000Y-98667879D01*
X151892000Y-100196764D01*
X151888958Y-100227652D01*
X151881763Y-100251369D01*
X151870086Y-100273216D01*
X151854368Y-100292368D01*
X151835216Y-100308086D01*
X151813369Y-100319763D01*
X151789652Y-100326958D01*
X151758764Y-100330000D01*
X149866236Y-100330000D01*
X149835348Y-100326958D01*
X149811631Y-100319763D01*
X149789784Y-100308086D01*
X149770632Y-100292368D01*
X149754914Y-100273216D01*
X149743237Y-100251369D01*
X149736042Y-100227652D01*
X149733000Y-100196764D01*
X149733000Y-99525437D01*
X149762010Y-99496427D01*
X149762256Y-99496128D01*
X149809868Y-99543740D01*
X149881628Y-99471980D01*
X149978369Y-99653946D01*
X150205716Y-99758339D01*
X150449059Y-99816373D01*
X150699049Y-99825818D01*
X150946078Y-99786310D01*
X151180653Y-99699369D01*
X151265631Y-99653946D01*
X151362373Y-99471978D01*
X150622000Y-98731605D01*
X150607858Y-98745748D01*
X150428253Y-98566143D01*
X150442395Y-98552000D01*
X149905658Y-98015263D01*
X149902130Y-97974933D01*
X149901385Y-97972367D01*
X149901124Y-97969710D01*
X149887572Y-97924825D01*
X149874470Y-97879726D01*
X149873239Y-97877352D01*
X149872468Y-97874797D01*
X149850438Y-97833365D01*
X149828843Y-97791704D01*
X149827178Y-97789618D01*
X149825923Y-97787258D01*
X149796225Y-97750845D01*
X149766989Y-97714222D01*
X149763326Y-97710507D01*
X149763261Y-97710427D01*
X149763187Y-97710366D01*
X149762009Y-97709171D01*
X149684860Y-97632022D01*
X149881627Y-97632022D01*
X150622000Y-98372395D01*
X151362373Y-97632022D01*
X151265631Y-97450054D01*
X151038284Y-97345661D01*
X150794941Y-97287627D01*
X150544951Y-97278182D01*
X150297922Y-97317690D01*
X150063347Y-97404631D01*
X149978369Y-97450054D01*
X149881627Y-97632022D01*
X149684860Y-97632022D01*
X147502469Y-95449631D01*
X147466231Y-95419865D01*
X147430262Y-95389683D01*
X147427920Y-95388395D01*
X147425857Y-95386701D01*
X147384510Y-95364531D01*
X147343381Y-95341920D01*
X147340836Y-95341113D01*
X147338481Y-95339850D01*
X147293589Y-95326125D01*
X147248878Y-95311942D01*
X147246225Y-95311644D01*
X147243669Y-95310863D01*
X147196946Y-95306117D01*
X147150352Y-95300891D01*
X147145132Y-95300854D01*
X147145032Y-95300844D01*
X147144938Y-95300853D01*
X147143259Y-95300841D01*
X144780000Y-95300841D01*
X144780000Y-94113236D01*
X144783042Y-94082348D01*
X144790237Y-94058631D01*
X144801914Y-94036784D01*
X144817632Y-94017632D01*
X144836784Y-94001914D01*
X144858631Y-93990237D01*
X144882348Y-93983042D01*
X144913236Y-93980000D01*
X151758764Y-93980000D01*
X151789652Y-93983042D01*
X151789652Y-93983042D01*
G37*
X151789652Y-93983042D02*
X151813369Y-93990237D01*
X151835216Y-94001914D01*
X151854368Y-94017632D01*
X151870086Y-94036784D01*
X151881763Y-94058631D01*
X151888958Y-94082348D01*
X151892000Y-94113236D01*
X151892000Y-98451079D01*
X151856310Y-98227922D01*
X151769369Y-97993347D01*
X151723946Y-97908369D01*
X151541978Y-97811627D01*
X150801605Y-98552000D01*
X151541978Y-99292373D01*
X151723946Y-99195631D01*
X151828339Y-98968284D01*
X151886373Y-98724941D01*
X151891186Y-98597553D01*
X151890331Y-98658785D01*
X151892000Y-98667879D01*
X151892000Y-100196764D01*
X151888958Y-100227652D01*
X151881763Y-100251369D01*
X151870086Y-100273216D01*
X151854368Y-100292368D01*
X151835216Y-100308086D01*
X151813369Y-100319763D01*
X151789652Y-100326958D01*
X151758764Y-100330000D01*
X149866236Y-100330000D01*
X149835348Y-100326958D01*
X149811631Y-100319763D01*
X149789784Y-100308086D01*
X149770632Y-100292368D01*
X149754914Y-100273216D01*
X149743237Y-100251369D01*
X149736042Y-100227652D01*
X149733000Y-100196764D01*
X149733000Y-99525437D01*
X149762010Y-99496427D01*
X149762256Y-99496128D01*
X149809868Y-99543740D01*
X149881628Y-99471980D01*
X149978369Y-99653946D01*
X150205716Y-99758339D01*
X150449059Y-99816373D01*
X150699049Y-99825818D01*
X150946078Y-99786310D01*
X151180653Y-99699369D01*
X151265631Y-99653946D01*
X151362373Y-99471978D01*
X150622000Y-98731605D01*
X150607858Y-98745748D01*
X150428253Y-98566143D01*
X150442395Y-98552000D01*
X149905658Y-98015263D01*
X149902130Y-97974933D01*
X149901385Y-97972367D01*
X149901124Y-97969710D01*
X149887572Y-97924825D01*
X149874470Y-97879726D01*
X149873239Y-97877352D01*
X149872468Y-97874797D01*
X149850438Y-97833365D01*
X149828843Y-97791704D01*
X149827178Y-97789618D01*
X149825923Y-97787258D01*
X149796225Y-97750845D01*
X149766989Y-97714222D01*
X149763326Y-97710507D01*
X149763261Y-97710427D01*
X149763187Y-97710366D01*
X149762009Y-97709171D01*
X149684860Y-97632022D01*
X149881627Y-97632022D01*
X150622000Y-98372395D01*
X151362373Y-97632022D01*
X151265631Y-97450054D01*
X151038284Y-97345661D01*
X150794941Y-97287627D01*
X150544951Y-97278182D01*
X150297922Y-97317690D01*
X150063347Y-97404631D01*
X149978369Y-97450054D01*
X149881627Y-97632022D01*
X149684860Y-97632022D01*
X147502469Y-95449631D01*
X147466231Y-95419865D01*
X147430262Y-95389683D01*
X147427920Y-95388395D01*
X147425857Y-95386701D01*
X147384510Y-95364531D01*
X147343381Y-95341920D01*
X147340836Y-95341113D01*
X147338481Y-95339850D01*
X147293589Y-95326125D01*
X147248878Y-95311942D01*
X147246225Y-95311644D01*
X147243669Y-95310863D01*
X147196946Y-95306117D01*
X147150352Y-95300891D01*
X147145132Y-95300854D01*
X147145032Y-95300844D01*
X147144938Y-95300853D01*
X147143259Y-95300841D01*
X144780000Y-95300841D01*
X144780000Y-94113236D01*
X144783042Y-94082348D01*
X144790237Y-94058631D01*
X144801914Y-94036784D01*
X144817632Y-94017632D01*
X144836784Y-94001914D01*
X144858631Y-93990237D01*
X144882348Y-93983042D01*
X144913236Y-93980000D01*
X151758764Y-93980000D01*
X151789652Y-93983042D01*
G36*
X133120652Y-65535042D02*
X133144369Y-65542237D01*
X133166216Y-65553914D01*
X133185368Y-65569632D01*
X133201086Y-65588784D01*
X133212763Y-65610631D01*
X133219958Y-65634348D01*
X133223000Y-65665236D01*
X133223000Y-66599599D01*
X133198725Y-66713805D01*
X133196569Y-66868207D01*
X133224444Y-67020087D01*
X133281289Y-67163660D01*
X133364938Y-67293458D01*
X133472205Y-67404537D01*
X133599005Y-67492665D01*
X133740507Y-67554485D01*
X133891322Y-67587644D01*
X134045705Y-67590878D01*
X134197776Y-67564064D01*
X134341743Y-67508223D01*
X134472122Y-67425482D01*
X134583946Y-67318993D01*
X134590290Y-67310000D01*
X138556386Y-67310000D01*
X138557000Y-67316236D01*
X138557000Y-68081939D01*
X138556044Y-68083678D01*
X138482597Y-68315211D01*
X138455521Y-68556601D01*
X138455400Y-68573978D01*
X138455400Y-68586022D01*
X138479103Y-68827766D01*
X138538171Y-69023409D01*
X138070790Y-69490790D01*
X138041024Y-69527028D01*
X138010842Y-69562997D01*
X138009554Y-69565339D01*
X138007860Y-69567402D01*
X137985690Y-69608749D01*
X137963079Y-69649878D01*
X137962272Y-69652423D01*
X137961009Y-69654778D01*
X137947284Y-69699670D01*
X137933101Y-69744381D01*
X137932803Y-69747034D01*
X137932022Y-69749590D01*
X137927276Y-69796313D01*
X137922050Y-69842907D01*
X137922013Y-69848127D01*
X137922003Y-69848227D01*
X137922012Y-69848321D01*
X137922000Y-69850000D01*
X136017000Y-69850000D01*
X136004551Y-69850612D01*
X135954998Y-69855493D01*
X135930581Y-69860349D01*
X135882932Y-69874803D01*
X135859931Y-69884331D01*
X135816018Y-69907803D01*
X135795317Y-69921635D01*
X135756827Y-69953223D01*
X135739223Y-69970827D01*
X135707635Y-70009317D01*
X135693803Y-70030018D01*
X135670331Y-70073931D01*
X135660803Y-70096932D01*
X135646349Y-70144581D01*
X135641493Y-70168998D01*
X135632958Y-70255652D01*
X135625763Y-70279369D01*
X135614086Y-70301216D01*
X135598368Y-70320368D01*
X135579216Y-70336086D01*
X135557369Y-70347763D01*
X135533652Y-70354958D01*
X135502764Y-70358000D01*
X132826446Y-70358000D01*
X132795554Y-70354957D01*
X132771848Y-70347766D01*
X132749992Y-70336084D01*
X132726002Y-70316396D01*
X132498198Y-70088592D01*
X132488963Y-70080223D01*
X132450473Y-70048635D01*
X132429771Y-70034802D01*
X132385857Y-70011330D01*
X132362857Y-70001804D01*
X132315209Y-69987350D01*
X132290792Y-69982493D01*
X132241239Y-69977612D01*
X132228790Y-69977000D01*
X124887242Y-69977000D01*
X124822272Y-69949689D01*
X124588058Y-69901612D01*
X124348966Y-69899943D01*
X124114104Y-69944745D01*
X124034270Y-69977000D01*
X121158000Y-69977000D01*
X121145551Y-69977612D01*
X121095998Y-69982493D01*
X121071581Y-69987349D01*
X121023932Y-70001803D01*
X121000931Y-70011331D01*
X120957018Y-70034803D01*
X120936317Y-70048635D01*
X120897827Y-70080223D01*
X120880223Y-70097827D01*
X120848635Y-70136317D01*
X120834803Y-70157018D01*
X120811331Y-70200931D01*
X120801803Y-70223932D01*
X120787349Y-70271581D01*
X120782493Y-70295998D01*
X120777612Y-70345551D01*
X120777000Y-70358000D01*
X120777000Y-70879580D01*
X120658210Y-70760790D01*
X120621972Y-70731024D01*
X120586003Y-70700842D01*
X120583661Y-70699554D01*
X120581598Y-70697860D01*
X120540251Y-70675690D01*
X120499122Y-70653079D01*
X120496577Y-70652272D01*
X120494222Y-70651009D01*
X120449330Y-70637284D01*
X120427843Y-70630468D01*
X120427843Y-70470000D01*
X120423005Y-70409327D01*
X120391136Y-70306420D01*
X120331860Y-70216465D01*
X120249870Y-70146585D01*
X120151658Y-70102314D01*
X120045000Y-70087157D01*
X119345000Y-70087157D01*
X119284327Y-70091995D01*
X119181420Y-70123864D01*
X119091465Y-70183140D01*
X119021585Y-70265130D01*
X118977314Y-70363342D01*
X118962157Y-70470000D01*
X118962157Y-71770000D01*
X118966995Y-71830673D01*
X118998864Y-71933580D01*
X119058140Y-72023535D01*
X119140130Y-72093415D01*
X119238342Y-72137686D01*
X119345000Y-72152843D01*
X120045000Y-72152843D01*
X120105673Y-72148005D01*
X120208580Y-72116136D01*
X120298535Y-72056860D01*
X120368415Y-71974870D01*
X120389243Y-71928663D01*
X120777000Y-72316420D01*
X120777000Y-73431400D01*
X120243600Y-73431400D01*
X120196896Y-73435979D01*
X120150152Y-73440069D01*
X120147586Y-73440814D01*
X120144929Y-73441075D01*
X120100044Y-73454627D01*
X120054945Y-73467729D01*
X120052571Y-73468960D01*
X120050016Y-73469731D01*
X120008623Y-73491740D01*
X119966923Y-73513355D01*
X119964834Y-73515023D01*
X119962477Y-73516276D01*
X119926091Y-73545952D01*
X119889441Y-73575210D01*
X119885726Y-73578873D01*
X119885646Y-73578938D01*
X119885585Y-73579012D01*
X119884390Y-73580190D01*
X118732438Y-74732142D01*
X113571562Y-74732142D01*
X113571048Y-74730895D01*
X113453894Y-74554565D01*
X113304722Y-74404349D01*
X113129215Y-74285967D01*
X112934055Y-74203930D01*
X112726678Y-74161361D01*
X112514983Y-74159883D01*
X112307032Y-74199552D01*
X112110746Y-74278857D01*
X111933602Y-74394776D01*
X111782348Y-74542895D01*
X111662744Y-74717573D01*
X111656500Y-74732142D01*
X105951562Y-74732142D01*
X105951048Y-74730895D01*
X105833894Y-74554565D01*
X105684722Y-74404349D01*
X105509215Y-74285967D01*
X105314055Y-74203930D01*
X105106678Y-74161361D01*
X104894983Y-74159883D01*
X104687032Y-74199552D01*
X104490746Y-74278857D01*
X104313602Y-74394776D01*
X104162348Y-74542895D01*
X104042744Y-74717573D01*
X103959346Y-74912154D01*
X103915331Y-75119229D01*
X103912375Y-75330909D01*
X103950591Y-75539132D01*
X104028524Y-75735967D01*
X104143204Y-75913915D01*
X104290263Y-76066200D01*
X104464101Y-76187021D01*
X104658096Y-76271775D01*
X104864858Y-76317235D01*
X105076513Y-76321668D01*
X105284998Y-76284907D01*
X105482371Y-76208350D01*
X105661116Y-76094915D01*
X105814424Y-75948922D01*
X105936455Y-75775932D01*
X105948828Y-75748142D01*
X111656370Y-75748142D01*
X111763204Y-75913915D01*
X111910263Y-76066200D01*
X112084101Y-76187021D01*
X112278096Y-76271775D01*
X112484858Y-76317235D01*
X112696513Y-76321668D01*
X112904998Y-76284907D01*
X113102371Y-76208350D01*
X113281116Y-76094915D01*
X113434424Y-75948922D01*
X113556455Y-75775932D01*
X113568828Y-75748142D01*
X118942858Y-75748142D01*
X118989562Y-75743563D01*
X119036306Y-75739473D01*
X119038872Y-75738728D01*
X119041529Y-75738467D01*
X119086414Y-75724915D01*
X119131513Y-75711813D01*
X119133887Y-75710582D01*
X119136442Y-75709811D01*
X119177835Y-75687802D01*
X119219535Y-75666187D01*
X119221624Y-75664519D01*
X119223981Y-75663266D01*
X119260367Y-75633590D01*
X119297017Y-75604332D01*
X119300732Y-75600669D01*
X119300812Y-75600604D01*
X119300873Y-75600530D01*
X119302068Y-75599352D01*
X120454020Y-74447400D01*
X120777000Y-74447400D01*
X120777000Y-76955764D01*
X120773958Y-76986652D01*
X120766763Y-77010369D01*
X120755086Y-77032216D01*
X120739368Y-77051368D01*
X120720216Y-77067086D01*
X120698369Y-77078763D01*
X120674652Y-77085958D01*
X120643764Y-77089000D01*
X115824000Y-77089000D01*
X115811551Y-77089612D01*
X115761998Y-77094493D01*
X115737581Y-77099349D01*
X115689932Y-77113803D01*
X115666931Y-77123331D01*
X115623018Y-77146803D01*
X115602317Y-77160635D01*
X115563827Y-77192223D01*
X115546223Y-77209827D01*
X115514635Y-77248317D01*
X115500803Y-77269018D01*
X115477331Y-77312931D01*
X115467803Y-77335932D01*
X115453349Y-77383581D01*
X115448493Y-77407998D01*
X115443612Y-77457551D01*
X115443000Y-77470000D01*
X115443000Y-78733764D01*
X115439958Y-78764652D01*
X115432763Y-78788369D01*
X115421086Y-78810216D01*
X115405368Y-78829368D01*
X115386216Y-78845086D01*
X115364369Y-78856763D01*
X115340652Y-78863958D01*
X115309764Y-78867000D01*
X114546250Y-78867000D01*
X114498126Y-78915124D01*
X114480018Y-78924803D01*
X114459317Y-78938635D01*
X114420827Y-78970223D01*
X114403223Y-78987827D01*
X114371635Y-79026317D01*
X114357803Y-79047018D01*
X114334331Y-79090931D01*
X114324803Y-79113932D01*
X114310349Y-79161581D01*
X114305493Y-79185998D01*
X114300612Y-79235551D01*
X114300000Y-79248000D01*
X114300000Y-81549554D01*
X114296957Y-81580446D01*
X114289766Y-81604152D01*
X114278084Y-81626008D01*
X114258396Y-81649998D01*
X113272998Y-82635396D01*
X113249008Y-82655084D01*
X113227152Y-82666766D01*
X113203446Y-82673957D01*
X113172554Y-82677000D01*
X107950000Y-82677000D01*
X107937551Y-82677612D01*
X107887998Y-82682493D01*
X107863581Y-82687349D01*
X107815932Y-82701803D01*
X107792931Y-82711331D01*
X107749018Y-82734803D01*
X107728317Y-82748635D01*
X107689827Y-82780223D01*
X107672223Y-82797827D01*
X107640635Y-82836317D01*
X107626803Y-82857018D01*
X107603331Y-82900931D01*
X107593803Y-82923932D01*
X107579349Y-82971581D01*
X107574493Y-82995998D01*
X107569612Y-83045551D01*
X107569000Y-83058000D01*
X107569000Y-88540790D01*
X107569612Y-88553239D01*
X107574493Y-88602792D01*
X107579350Y-88627209D01*
X107593804Y-88674857D01*
X107603330Y-88697857D01*
X107626802Y-88741771D01*
X107640635Y-88762473D01*
X107672223Y-88800963D01*
X107680592Y-88810198D01*
X109813396Y-90943002D01*
X109833084Y-90966992D01*
X109844766Y-90988848D01*
X109851957Y-91012554D01*
X109855000Y-91043446D01*
X109855000Y-92339000D01*
X109807250Y-92339000D01*
X109712000Y-92434250D01*
X109712000Y-93218000D01*
X109732000Y-93218000D01*
X109732000Y-93343992D01*
X109721764Y-93345000D01*
X108467843Y-93345000D01*
X108467843Y-92720000D01*
X108464851Y-92682475D01*
X108704000Y-92682475D01*
X108704000Y-93122750D01*
X108799250Y-93218000D01*
X109458000Y-93218000D01*
X109458000Y-92434250D01*
X109362750Y-92339000D01*
X109047475Y-92339000D01*
X108973867Y-92353642D01*
X108904529Y-92382362D01*
X108842127Y-92424058D01*
X108789058Y-92477126D01*
X108747362Y-92539529D01*
X108718642Y-92608866D01*
X108704000Y-92682475D01*
X108464851Y-92682475D01*
X108463005Y-92659327D01*
X108431136Y-92556420D01*
X108371860Y-92466465D01*
X108289870Y-92396585D01*
X108191658Y-92352314D01*
X108085000Y-92337157D01*
X107085000Y-92337157D01*
X107024327Y-92341995D01*
X106921420Y-92373864D01*
X106831465Y-92433140D01*
X106761585Y-92515130D01*
X106717314Y-92613342D01*
X106702157Y-92720000D01*
X106702157Y-93345000D01*
X106299000Y-93345000D01*
X106286551Y-93345612D01*
X106236998Y-93350493D01*
X106212581Y-93355349D01*
X106164932Y-93369803D01*
X106141931Y-93379331D01*
X106098018Y-93402803D01*
X106077317Y-93416635D01*
X106038827Y-93448223D01*
X106021223Y-93465827D01*
X105989635Y-93504317D01*
X105975803Y-93525018D01*
X105952331Y-93568931D01*
X105942803Y-93591932D01*
X105928349Y-93639581D01*
X105923493Y-93663998D01*
X105918612Y-93713551D01*
X105918000Y-93726000D01*
X105918000Y-104669790D01*
X105918612Y-104682239D01*
X105923493Y-104731792D01*
X105928350Y-104756209D01*
X105942804Y-104803857D01*
X105952330Y-104826857D01*
X105975802Y-104870771D01*
X105989635Y-104891473D01*
X106021223Y-104929963D01*
X106029592Y-104939198D01*
X106515802Y-105425408D01*
X106525037Y-105433777D01*
X106563527Y-105465365D01*
X106584229Y-105479198D01*
X106628143Y-105502670D01*
X106651143Y-105512196D01*
X106698791Y-105526650D01*
X106723208Y-105531507D01*
X106772761Y-105536388D01*
X106785210Y-105537000D01*
X186076790Y-105537000D01*
X186089239Y-105536388D01*
X186138792Y-105531507D01*
X186163209Y-105526650D01*
X186210857Y-105512196D01*
X186233857Y-105502670D01*
X186277771Y-105479198D01*
X186298473Y-105465365D01*
X186336963Y-105433777D01*
X186346198Y-105425408D01*
X188102408Y-103669198D01*
X188110777Y-103659963D01*
X188142365Y-103621473D01*
X188156198Y-103600771D01*
X188179670Y-103556857D01*
X188189196Y-103533857D01*
X188203650Y-103486209D01*
X188208507Y-103461792D01*
X188213388Y-103412239D01*
X188214000Y-103399790D01*
X188214000Y-91694000D01*
X188213388Y-91681551D01*
X188208507Y-91631998D01*
X188203651Y-91607581D01*
X188189197Y-91559932D01*
X188179669Y-91536931D01*
X188156197Y-91493018D01*
X188142365Y-91472317D01*
X188110777Y-91433827D01*
X188093173Y-91416223D01*
X188054683Y-91384635D01*
X188033982Y-91370803D01*
X187990069Y-91347331D01*
X187967068Y-91337803D01*
X187919419Y-91323349D01*
X187895002Y-91318493D01*
X187845449Y-91313612D01*
X187833000Y-91313000D01*
X185293000Y-91313000D01*
X185280551Y-91313612D01*
X185230998Y-91318493D01*
X185206581Y-91323349D01*
X185158932Y-91337803D01*
X185135931Y-91347331D01*
X185092018Y-91370803D01*
X185071317Y-91384635D01*
X185032827Y-91416223D01*
X185015223Y-91433827D01*
X184983635Y-91472317D01*
X184969803Y-91493018D01*
X184946331Y-91536931D01*
X184936803Y-91559932D01*
X184922349Y-91607581D01*
X184917493Y-91631998D01*
X184912612Y-91681551D01*
X184912000Y-91694000D01*
X184912000Y-92443185D01*
X184892873Y-92424058D01*
X184830471Y-92382362D01*
X184761133Y-92353642D01*
X184687525Y-92339000D01*
X184372250Y-92339000D01*
X184277000Y-92434250D01*
X184277000Y-93218000D01*
X184297000Y-93218000D01*
X184297000Y-93472000D01*
X184277000Y-93472000D01*
X184277000Y-94255750D01*
X184372250Y-94351000D01*
X184687525Y-94351000D01*
X184761133Y-94336358D01*
X184830471Y-94307638D01*
X184892873Y-94265942D01*
X184912000Y-94246815D01*
X184912000Y-98451079D01*
X184876310Y-98227922D01*
X184789369Y-97993347D01*
X184743946Y-97908369D01*
X184561978Y-97811627D01*
X183821605Y-98552000D01*
X184561978Y-99292373D01*
X184743946Y-99195631D01*
X184848339Y-98968284D01*
X184906373Y-98724941D01*
X184911186Y-98597553D01*
X184910331Y-98658785D01*
X184912000Y-98667879D01*
X184912000Y-99329554D01*
X184908957Y-99360446D01*
X184901766Y-99384152D01*
X184890084Y-99406008D01*
X184870396Y-99429998D01*
X184138998Y-100161396D01*
X184115008Y-100181084D01*
X184093152Y-100192766D01*
X184069446Y-100199957D01*
X184038554Y-100203000D01*
X182991446Y-100203000D01*
X182960554Y-100199957D01*
X182936848Y-100192766D01*
X182914992Y-100181084D01*
X182891002Y-100161396D01*
X182413604Y-99683998D01*
X182393916Y-99660008D01*
X182382234Y-99638152D01*
X182375043Y-99614446D01*
X182372000Y-99583554D01*
X182372000Y-99471978D01*
X182901627Y-99471978D01*
X182998369Y-99653946D01*
X183225716Y-99758339D01*
X183469059Y-99816373D01*
X183719049Y-99825818D01*
X183966078Y-99786310D01*
X184200653Y-99699369D01*
X184285631Y-99653946D01*
X184382373Y-99471978D01*
X183642000Y-98731605D01*
X182901627Y-99471978D01*
X182372000Y-99471978D01*
X182372000Y-98652919D01*
X182407690Y-98876078D01*
X182494631Y-99110653D01*
X182540054Y-99195631D01*
X182722022Y-99292373D01*
X183462395Y-98552000D01*
X182722022Y-97811627D01*
X182540054Y-97908369D01*
X182435661Y-98135716D01*
X182377627Y-98379059D01*
X182372000Y-98527989D01*
X182372000Y-98431337D01*
X182372054Y-98427470D01*
X182372000Y-98427197D01*
X182372000Y-97632022D01*
X182901627Y-97632022D01*
X183642000Y-98372395D01*
X184382373Y-97632022D01*
X184285631Y-97450054D01*
X184058284Y-97345661D01*
X183814941Y-97287627D01*
X183564951Y-97278182D01*
X183317922Y-97317690D01*
X183083347Y-97404631D01*
X182998369Y-97450054D01*
X182901627Y-97632022D01*
X182372000Y-97632022D01*
X182372000Y-93567250D01*
X183269000Y-93567250D01*
X183269000Y-94007525D01*
X183283642Y-94081134D01*
X183312362Y-94150471D01*
X183354058Y-94212874D01*
X183407127Y-94265942D01*
X183469529Y-94307638D01*
X183538867Y-94336358D01*
X183612475Y-94351000D01*
X183927750Y-94351000D01*
X184023000Y-94255750D01*
X184023000Y-93472000D01*
X183364250Y-93472000D01*
X183269000Y-93567250D01*
X182372000Y-93567250D01*
X182372000Y-92964000D01*
X182371388Y-92951551D01*
X182366507Y-92901998D01*
X182361651Y-92877581D01*
X182347197Y-92829932D01*
X182337669Y-92806931D01*
X182314197Y-92763018D01*
X182300365Y-92742317D01*
X182268777Y-92703827D01*
X182251173Y-92686223D01*
X182246607Y-92682475D01*
X183269000Y-92682475D01*
X183269000Y-93122750D01*
X183364250Y-93218000D01*
X184023000Y-93218000D01*
X184023000Y-92434250D01*
X183927750Y-92339000D01*
X183612475Y-92339000D01*
X183538867Y-92353642D01*
X183469529Y-92382362D01*
X183407127Y-92424058D01*
X183354058Y-92477126D01*
X183312362Y-92539529D01*
X183283642Y-92608866D01*
X183269000Y-92682475D01*
X182246607Y-92682475D01*
X182212683Y-92654635D01*
X182191982Y-92640803D01*
X182148069Y-92617331D01*
X182125068Y-92607803D01*
X182077419Y-92593349D01*
X182053002Y-92588493D01*
X182003449Y-92583612D01*
X181991000Y-92583000D01*
X180451446Y-92583000D01*
X180420554Y-92579957D01*
X180396848Y-92572766D01*
X180374992Y-92561084D01*
X180351002Y-92541396D01*
X171742104Y-83932498D01*
X171724841Y-83845315D01*
X171665997Y-83702549D01*
X171580544Y-83573932D01*
X171471736Y-83464362D01*
X171343719Y-83378013D01*
X171201367Y-83318174D01*
X171108773Y-83299167D01*
X165903604Y-78093998D01*
X165883916Y-78070008D01*
X165872234Y-78048152D01*
X165865043Y-78024446D01*
X165862000Y-77993554D01*
X165862000Y-77692250D01*
X168799510Y-77692250D01*
X168799510Y-78507015D01*
X168814152Y-78580623D01*
X168842872Y-78649961D01*
X168884568Y-78712363D01*
X168937636Y-78765432D01*
X169000039Y-78807128D01*
X169069376Y-78835848D01*
X169142985Y-78850490D01*
X169957750Y-78850490D01*
X170053000Y-78755240D01*
X170053000Y-77597000D01*
X168894760Y-77597000D01*
X168799510Y-77692250D01*
X165862000Y-77692250D01*
X165862000Y-76432985D01*
X168799510Y-76432985D01*
X168799510Y-77247750D01*
X168894760Y-77343000D01*
X170053000Y-77343000D01*
X170053000Y-76184760D01*
X169957750Y-76089510D01*
X169142985Y-76089510D01*
X169069376Y-76104152D01*
X169000039Y-76132872D01*
X168937636Y-76174568D01*
X168884568Y-76227637D01*
X168842872Y-76290039D01*
X168814152Y-76359377D01*
X168799510Y-76432985D01*
X165862000Y-76432985D01*
X165862000Y-73473150D01*
X167625455Y-73473150D01*
X167706796Y-73642131D01*
X167912439Y-73733803D01*
X168132016Y-73783595D01*
X168357087Y-73789593D01*
X168579004Y-73751566D01*
X168789238Y-73670976D01*
X168843204Y-73642131D01*
X168924545Y-73473150D01*
X168275000Y-72823605D01*
X167625455Y-73473150D01*
X165862000Y-73473150D01*
X165862000Y-72015236D01*
X165865042Y-71984348D01*
X165872237Y-71960631D01*
X165883914Y-71938784D01*
X165899632Y-71919632D01*
X165918784Y-71903914D01*
X165940631Y-71892237D01*
X165964348Y-71885042D01*
X165995236Y-71882000D01*
X167413602Y-71882000D01*
X167373497Y-71922105D01*
X167445848Y-71994456D01*
X167276869Y-72075796D01*
X167185197Y-72281439D01*
X167135405Y-72501016D01*
X167129407Y-72726087D01*
X167167434Y-72948004D01*
X167248024Y-73158238D01*
X167276869Y-73212204D01*
X167445850Y-73293545D01*
X168095395Y-72644000D01*
X168081253Y-72629858D01*
X168260858Y-72450253D01*
X168275000Y-72464395D01*
X168289143Y-72450253D01*
X168468748Y-72629858D01*
X168454605Y-72644000D01*
X169104150Y-73293545D01*
X169273131Y-73212204D01*
X169364803Y-73006561D01*
X169414595Y-72786984D01*
X169418000Y-72659214D01*
X169418000Y-74676000D01*
X169418612Y-74688449D01*
X169423493Y-74738002D01*
X169428349Y-74762419D01*
X169442803Y-74810068D01*
X169452331Y-74833069D01*
X169475803Y-74876982D01*
X169489635Y-74897683D01*
X169521223Y-74936173D01*
X169538827Y-74953777D01*
X169577317Y-74985365D01*
X169598018Y-74999197D01*
X169641931Y-75022669D01*
X169664932Y-75032197D01*
X169712581Y-75046651D01*
X169736998Y-75051507D01*
X169786551Y-75056388D01*
X169799000Y-75057000D01*
X170554764Y-75057000D01*
X170585652Y-75060042D01*
X170609369Y-75067237D01*
X170631216Y-75078914D01*
X170650368Y-75094632D01*
X170666086Y-75113784D01*
X170677763Y-75135631D01*
X170684958Y-75159348D01*
X170688000Y-75190236D01*
X170688000Y-76089510D01*
X170402250Y-76089510D01*
X170307000Y-76184760D01*
X170307000Y-77343000D01*
X170327000Y-77343000D01*
X170327000Y-77597000D01*
X170307000Y-77597000D01*
X170307000Y-78755240D01*
X170402250Y-78850490D01*
X170688000Y-78850490D01*
X170688000Y-79756000D01*
X170688612Y-79768449D01*
X170693493Y-79818002D01*
X170698349Y-79842419D01*
X170712803Y-79890068D01*
X170722331Y-79913069D01*
X170745803Y-79956982D01*
X170759635Y-79977683D01*
X170791223Y-80016173D01*
X170808827Y-80033777D01*
X170847317Y-80065365D01*
X170868018Y-80079197D01*
X170911931Y-80102669D01*
X170934932Y-80112197D01*
X170982581Y-80126651D01*
X171006998Y-80131507D01*
X171056551Y-80136388D01*
X171069000Y-80137000D01*
X190874764Y-80137000D01*
X190905652Y-80140042D01*
X190929369Y-80147237D01*
X190951216Y-80158914D01*
X190970368Y-80174632D01*
X190986086Y-80193784D01*
X190997763Y-80215631D01*
X191004958Y-80239348D01*
X191008000Y-80270236D01*
X191008000Y-112769764D01*
X191004958Y-112800652D01*
X190997763Y-112824369D01*
X190986086Y-112846216D01*
X190970368Y-112865368D01*
X190951216Y-112881086D01*
X190929369Y-112892763D01*
X190905652Y-112899958D01*
X190874764Y-112903000D01*
X103130236Y-112903000D01*
X103099348Y-112899958D01*
X103075631Y-112892763D01*
X103053784Y-112881086D01*
X103034632Y-112865368D01*
X103018914Y-112846216D01*
X103007237Y-112824369D01*
X103000042Y-112800652D01*
X102997000Y-112769764D01*
X102997000Y-80410909D01*
X103912375Y-80410909D01*
X103950591Y-80619132D01*
X104028524Y-80815967D01*
X104143204Y-80993915D01*
X104290263Y-81146200D01*
X104464101Y-81267021D01*
X104658096Y-81351775D01*
X104864858Y-81397235D01*
X105076513Y-81401668D01*
X105284998Y-81364907D01*
X105482371Y-81288350D01*
X105661116Y-81174915D01*
X105814424Y-81028922D01*
X105936455Y-80855932D01*
X106022562Y-80662534D01*
X106069464Y-80456094D01*
X106070094Y-80410909D01*
X111532375Y-80410909D01*
X111570591Y-80619132D01*
X111648524Y-80815967D01*
X111763204Y-80993915D01*
X111910263Y-81146200D01*
X112084101Y-81267021D01*
X112278096Y-81351775D01*
X112484858Y-81397235D01*
X112696513Y-81401668D01*
X112904998Y-81364907D01*
X113102371Y-81288350D01*
X113281116Y-81174915D01*
X113434424Y-81028922D01*
X113556455Y-80855932D01*
X113642562Y-80662534D01*
X113689464Y-80456094D01*
X113692840Y-80214292D01*
X113651720Y-80006623D01*
X113571048Y-79810895D01*
X113453894Y-79634565D01*
X113304722Y-79484349D01*
X113129215Y-79365967D01*
X112934055Y-79283930D01*
X112726678Y-79241361D01*
X112514983Y-79239883D01*
X112307032Y-79279552D01*
X112110746Y-79358857D01*
X111933602Y-79474776D01*
X111782348Y-79622895D01*
X111662744Y-79797573D01*
X111579346Y-79992154D01*
X111535331Y-80199229D01*
X111532375Y-80410909D01*
X106070094Y-80410909D01*
X106072840Y-80214292D01*
X106031720Y-80006623D01*
X105951048Y-79810895D01*
X105833894Y-79634565D01*
X105684722Y-79484349D01*
X105509215Y-79365967D01*
X105314055Y-79283930D01*
X105106678Y-79241361D01*
X104894983Y-79239883D01*
X104687032Y-79279552D01*
X104490746Y-79358857D01*
X104313602Y-79474776D01*
X104162348Y-79622895D01*
X104042744Y-79797573D01*
X103959346Y-79992154D01*
X103915331Y-80199229D01*
X103912375Y-80410909D01*
X102997000Y-80410909D01*
X102997000Y-78077475D01*
X114451000Y-78077475D01*
X114451000Y-78517750D01*
X114546250Y-78613000D01*
X115205000Y-78613000D01*
X115205000Y-77829250D01*
X115109750Y-77734000D01*
X114794475Y-77734000D01*
X114720867Y-77748642D01*
X114651529Y-77777362D01*
X114589127Y-77819058D01*
X114536058Y-77872126D01*
X114494362Y-77934529D01*
X114465642Y-78003866D01*
X114451000Y-78077475D01*
X102997000Y-78077475D01*
X102997000Y-73285236D01*
X103000042Y-73254348D01*
X103007237Y-73230631D01*
X103018914Y-73208784D01*
X103034632Y-73189632D01*
X103053784Y-73173914D01*
X103075631Y-73162237D01*
X103099348Y-73155042D01*
X103130236Y-73152000D01*
X108479790Y-73152000D01*
X108492239Y-73151388D01*
X108541792Y-73146507D01*
X108566209Y-73141650D01*
X108613857Y-73127196D01*
X108636857Y-73117670D01*
X108680771Y-73094198D01*
X108701473Y-73080365D01*
X108739963Y-73048777D01*
X108749198Y-73040408D01*
X110505408Y-71284198D01*
X110513777Y-71274963D01*
X110545365Y-71236473D01*
X110554692Y-71222514D01*
X112444198Y-71222514D01*
X112487359Y-71457683D01*
X112575377Y-71679990D01*
X112704898Y-71880968D01*
X112870989Y-72052960D01*
X113067324Y-72189416D01*
X113286424Y-72285138D01*
X113519943Y-72336481D01*
X113758988Y-72341488D01*
X113994453Y-72299969D01*
X114217370Y-72213506D01*
X114419246Y-72085391D01*
X114592394Y-71920505D01*
X114730217Y-71725128D01*
X114773461Y-71628000D01*
X117062157Y-71628000D01*
X117062157Y-71770000D01*
X117066995Y-71830673D01*
X117098864Y-71933580D01*
X117158140Y-72023535D01*
X117240130Y-72093415D01*
X117338342Y-72137686D01*
X117445000Y-72152843D01*
X118145000Y-72152843D01*
X118205673Y-72148005D01*
X118308580Y-72116136D01*
X118398535Y-72056860D01*
X118468415Y-71974870D01*
X118512686Y-71876658D01*
X118527843Y-71770000D01*
X118527843Y-70470000D01*
X118523005Y-70409327D01*
X118491136Y-70306420D01*
X118431860Y-70216465D01*
X118349870Y-70146585D01*
X118251658Y-70102314D01*
X118145000Y-70087157D01*
X117445000Y-70087157D01*
X117384327Y-70091995D01*
X117281420Y-70123864D01*
X117191465Y-70183140D01*
X117121585Y-70265130D01*
X117077314Y-70363342D01*
X117062157Y-70470000D01*
X117062157Y-70612000D01*
X114774375Y-70612000D01*
X114746698Y-70544851D01*
X114614384Y-70345702D01*
X114445907Y-70176045D01*
X114247687Y-70042343D01*
X114027272Y-69949689D01*
X113793058Y-69901612D01*
X113553966Y-69899943D01*
X113319104Y-69944745D01*
X113097416Y-70034313D01*
X112897348Y-70165234D01*
X112726520Y-70332522D01*
X112591438Y-70529804D01*
X112497247Y-70749567D01*
X112447536Y-70983440D01*
X112444198Y-71222514D01*
X110554692Y-71222514D01*
X110559198Y-71215771D01*
X110582670Y-71171857D01*
X110592196Y-71148857D01*
X110606650Y-71101209D01*
X110611507Y-71076792D01*
X110616388Y-71027239D01*
X110617000Y-71014790D01*
X110617000Y-69463664D01*
X112960942Y-69463664D01*
X113051530Y-69640435D01*
X113270199Y-69739741D01*
X113504039Y-69794478D01*
X113744064Y-69802544D01*
X113981052Y-69763628D01*
X114205894Y-69679226D01*
X114278470Y-69640435D01*
X114369058Y-69463664D01*
X123755942Y-69463664D01*
X123846530Y-69640435D01*
X124065199Y-69739741D01*
X124299039Y-69794478D01*
X124539064Y-69802544D01*
X124776052Y-69763628D01*
X125000894Y-69679226D01*
X125073470Y-69640435D01*
X125164058Y-69463664D01*
X124460000Y-68759605D01*
X123755942Y-69463664D01*
X114369058Y-69463664D01*
X113665000Y-68759605D01*
X112960942Y-69463664D01*
X110617000Y-69463664D01*
X110617000Y-68659064D01*
X112442456Y-68659064D01*
X112481372Y-68896052D01*
X112565774Y-69120894D01*
X112604565Y-69193470D01*
X112781336Y-69284058D01*
X113485395Y-68580000D01*
X113844605Y-68580000D01*
X114548664Y-69284058D01*
X114725435Y-69193470D01*
X114824741Y-68974801D01*
X114879478Y-68740961D01*
X114882230Y-68659064D01*
X123237456Y-68659064D01*
X123276372Y-68896052D01*
X123360774Y-69120894D01*
X123399565Y-69193470D01*
X123576336Y-69284058D01*
X124280395Y-68580000D01*
X124639605Y-68580000D01*
X125343664Y-69284058D01*
X125520435Y-69193470D01*
X125619741Y-68974801D01*
X125637456Y-68899119D01*
X135957001Y-68899119D01*
X136042373Y-69127681D01*
X136170695Y-69335196D01*
X136337036Y-69513689D01*
X136535003Y-69656301D01*
X136756988Y-69757551D01*
X136840882Y-69782993D01*
X137033000Y-69722312D01*
X137033000Y-68707000D01*
X137287000Y-68707000D01*
X137287000Y-69722312D01*
X137479118Y-69782993D01*
X137563012Y-69757551D01*
X137784997Y-69656301D01*
X137982964Y-69513689D01*
X138149305Y-69335196D01*
X138277627Y-69127681D01*
X138362999Y-68899119D01*
X138302859Y-68707000D01*
X137287000Y-68707000D01*
X137033000Y-68707000D01*
X136017141Y-68707000D01*
X135957001Y-68899119D01*
X125637456Y-68899119D01*
X125674478Y-68740961D01*
X125682544Y-68500936D01*
X125643628Y-68263948D01*
X125642477Y-68260881D01*
X135957001Y-68260881D01*
X136017141Y-68453000D01*
X137033000Y-68453000D01*
X137033000Y-67437688D01*
X137287000Y-67437688D01*
X137287000Y-68453000D01*
X138302859Y-68453000D01*
X138362999Y-68260881D01*
X138277627Y-68032319D01*
X138149305Y-67824804D01*
X137982964Y-67646311D01*
X137784997Y-67503699D01*
X137563012Y-67402449D01*
X137479118Y-67377007D01*
X137287000Y-67437688D01*
X137033000Y-67437688D01*
X136840882Y-67377007D01*
X136756988Y-67402449D01*
X136535003Y-67503699D01*
X136337036Y-67646311D01*
X136170695Y-67824804D01*
X136042373Y-68032319D01*
X135957001Y-68260881D01*
X125642477Y-68260881D01*
X125559226Y-68039106D01*
X125520435Y-67966530D01*
X125343664Y-67875942D01*
X124639605Y-68580000D01*
X124280395Y-68580000D01*
X123576336Y-67875942D01*
X123399565Y-67966530D01*
X123300259Y-68185199D01*
X123245522Y-68419039D01*
X123237456Y-68659064D01*
X114882230Y-68659064D01*
X114887544Y-68500936D01*
X114848628Y-68263948D01*
X114764226Y-68039106D01*
X114725435Y-67966530D01*
X114548664Y-67875942D01*
X113844605Y-68580000D01*
X113485395Y-68580000D01*
X112781336Y-67875942D01*
X112604565Y-67966530D01*
X112505259Y-68185199D01*
X112450522Y-68419039D01*
X112442456Y-68659064D01*
X110617000Y-68659064D01*
X110617000Y-67696336D01*
X112960942Y-67696336D01*
X113665000Y-68400395D01*
X114369058Y-67696336D01*
X123755942Y-67696336D01*
X124460000Y-68400395D01*
X125164058Y-67696336D01*
X125073470Y-67519565D01*
X124854801Y-67420259D01*
X124620961Y-67365522D01*
X124380936Y-67357456D01*
X124143948Y-67396372D01*
X123919106Y-67480774D01*
X123846530Y-67519565D01*
X123755942Y-67696336D01*
X114369058Y-67696336D01*
X114278470Y-67519565D01*
X114059801Y-67420259D01*
X113825961Y-67365522D01*
X113585936Y-67357456D01*
X113348948Y-67396372D01*
X113124106Y-67480774D01*
X113051530Y-67519565D01*
X112960942Y-67696336D01*
X110617000Y-67696336D01*
X110617000Y-65665236D01*
X110620042Y-65634348D01*
X110627237Y-65610631D01*
X110638914Y-65588784D01*
X110654632Y-65569632D01*
X110673784Y-65553914D01*
X110695631Y-65542237D01*
X110719348Y-65535042D01*
X110750236Y-65532000D01*
X133089764Y-65532000D01*
X133120652Y-65535042D01*
X133120652Y-65535042D01*
G37*
X133120652Y-65535042D02*
X133144369Y-65542237D01*
X133166216Y-65553914D01*
X133185368Y-65569632D01*
X133201086Y-65588784D01*
X133212763Y-65610631D01*
X133219958Y-65634348D01*
X133223000Y-65665236D01*
X133223000Y-66599599D01*
X133198725Y-66713805D01*
X133196569Y-66868207D01*
X133224444Y-67020087D01*
X133281289Y-67163660D01*
X133364938Y-67293458D01*
X133472205Y-67404537D01*
X133599005Y-67492665D01*
X133740507Y-67554485D01*
X133891322Y-67587644D01*
X134045705Y-67590878D01*
X134197776Y-67564064D01*
X134341743Y-67508223D01*
X134472122Y-67425482D01*
X134583946Y-67318993D01*
X134590290Y-67310000D01*
X138556386Y-67310000D01*
X138557000Y-67316236D01*
X138557000Y-68081939D01*
X138556044Y-68083678D01*
X138482597Y-68315211D01*
X138455521Y-68556601D01*
X138455400Y-68573978D01*
X138455400Y-68586022D01*
X138479103Y-68827766D01*
X138538171Y-69023409D01*
X138070790Y-69490790D01*
X138041024Y-69527028D01*
X138010842Y-69562997D01*
X138009554Y-69565339D01*
X138007860Y-69567402D01*
X137985690Y-69608749D01*
X137963079Y-69649878D01*
X137962272Y-69652423D01*
X137961009Y-69654778D01*
X137947284Y-69699670D01*
X137933101Y-69744381D01*
X137932803Y-69747034D01*
X137932022Y-69749590D01*
X137927276Y-69796313D01*
X137922050Y-69842907D01*
X137922013Y-69848127D01*
X137922003Y-69848227D01*
X137922012Y-69848321D01*
X137922000Y-69850000D01*
X136017000Y-69850000D01*
X136004551Y-69850612D01*
X135954998Y-69855493D01*
X135930581Y-69860349D01*
X135882932Y-69874803D01*
X135859931Y-69884331D01*
X135816018Y-69907803D01*
X135795317Y-69921635D01*
X135756827Y-69953223D01*
X135739223Y-69970827D01*
X135707635Y-70009317D01*
X135693803Y-70030018D01*
X135670331Y-70073931D01*
X135660803Y-70096932D01*
X135646349Y-70144581D01*
X135641493Y-70168998D01*
X135632958Y-70255652D01*
X135625763Y-70279369D01*
X135614086Y-70301216D01*
X135598368Y-70320368D01*
X135579216Y-70336086D01*
X135557369Y-70347763D01*
X135533652Y-70354958D01*
X135502764Y-70358000D01*
X132826446Y-70358000D01*
X132795554Y-70354957D01*
X132771848Y-70347766D01*
X132749992Y-70336084D01*
X132726002Y-70316396D01*
X132498198Y-70088592D01*
X132488963Y-70080223D01*
X132450473Y-70048635D01*
X132429771Y-70034802D01*
X132385857Y-70011330D01*
X132362857Y-70001804D01*
X132315209Y-69987350D01*
X132290792Y-69982493D01*
X132241239Y-69977612D01*
X132228790Y-69977000D01*
X124887242Y-69977000D01*
X124822272Y-69949689D01*
X124588058Y-69901612D01*
X124348966Y-69899943D01*
X124114104Y-69944745D01*
X124034270Y-69977000D01*
X121158000Y-69977000D01*
X121145551Y-69977612D01*
X121095998Y-69982493D01*
X121071581Y-69987349D01*
X121023932Y-70001803D01*
X121000931Y-70011331D01*
X120957018Y-70034803D01*
X120936317Y-70048635D01*
X120897827Y-70080223D01*
X120880223Y-70097827D01*
X120848635Y-70136317D01*
X120834803Y-70157018D01*
X120811331Y-70200931D01*
X120801803Y-70223932D01*
X120787349Y-70271581D01*
X120782493Y-70295998D01*
X120777612Y-70345551D01*
X120777000Y-70358000D01*
X120777000Y-70879580D01*
X120658210Y-70760790D01*
X120621972Y-70731024D01*
X120586003Y-70700842D01*
X120583661Y-70699554D01*
X120581598Y-70697860D01*
X120540251Y-70675690D01*
X120499122Y-70653079D01*
X120496577Y-70652272D01*
X120494222Y-70651009D01*
X120449330Y-70637284D01*
X120427843Y-70630468D01*
X120427843Y-70470000D01*
X120423005Y-70409327D01*
X120391136Y-70306420D01*
X120331860Y-70216465D01*
X120249870Y-70146585D01*
X120151658Y-70102314D01*
X120045000Y-70087157D01*
X119345000Y-70087157D01*
X119284327Y-70091995D01*
X119181420Y-70123864D01*
X119091465Y-70183140D01*
X119021585Y-70265130D01*
X118977314Y-70363342D01*
X118962157Y-70470000D01*
X118962157Y-71770000D01*
X118966995Y-71830673D01*
X118998864Y-71933580D01*
X119058140Y-72023535D01*
X119140130Y-72093415D01*
X119238342Y-72137686D01*
X119345000Y-72152843D01*
X120045000Y-72152843D01*
X120105673Y-72148005D01*
X120208580Y-72116136D01*
X120298535Y-72056860D01*
X120368415Y-71974870D01*
X120389243Y-71928663D01*
X120777000Y-72316420D01*
X120777000Y-73431400D01*
X120243600Y-73431400D01*
X120196896Y-73435979D01*
X120150152Y-73440069D01*
X120147586Y-73440814D01*
X120144929Y-73441075D01*
X120100044Y-73454627D01*
X120054945Y-73467729D01*
X120052571Y-73468960D01*
X120050016Y-73469731D01*
X120008623Y-73491740D01*
X119966923Y-73513355D01*
X119964834Y-73515023D01*
X119962477Y-73516276D01*
X119926091Y-73545952D01*
X119889441Y-73575210D01*
X119885726Y-73578873D01*
X119885646Y-73578938D01*
X119885585Y-73579012D01*
X119884390Y-73580190D01*
X118732438Y-74732142D01*
X113571562Y-74732142D01*
X113571048Y-74730895D01*
X113453894Y-74554565D01*
X113304722Y-74404349D01*
X113129215Y-74285967D01*
X112934055Y-74203930D01*
X112726678Y-74161361D01*
X112514983Y-74159883D01*
X112307032Y-74199552D01*
X112110746Y-74278857D01*
X111933602Y-74394776D01*
X111782348Y-74542895D01*
X111662744Y-74717573D01*
X111656500Y-74732142D01*
X105951562Y-74732142D01*
X105951048Y-74730895D01*
X105833894Y-74554565D01*
X105684722Y-74404349D01*
X105509215Y-74285967D01*
X105314055Y-74203930D01*
X105106678Y-74161361D01*
X104894983Y-74159883D01*
X104687032Y-74199552D01*
X104490746Y-74278857D01*
X104313602Y-74394776D01*
X104162348Y-74542895D01*
X104042744Y-74717573D01*
X103959346Y-74912154D01*
X103915331Y-75119229D01*
X103912375Y-75330909D01*
X103950591Y-75539132D01*
X104028524Y-75735967D01*
X104143204Y-75913915D01*
X104290263Y-76066200D01*
X104464101Y-76187021D01*
X104658096Y-76271775D01*
X104864858Y-76317235D01*
X105076513Y-76321668D01*
X105284998Y-76284907D01*
X105482371Y-76208350D01*
X105661116Y-76094915D01*
X105814424Y-75948922D01*
X105936455Y-75775932D01*
X105948828Y-75748142D01*
X111656370Y-75748142D01*
X111763204Y-75913915D01*
X111910263Y-76066200D01*
X112084101Y-76187021D01*
X112278096Y-76271775D01*
X112484858Y-76317235D01*
X112696513Y-76321668D01*
X112904998Y-76284907D01*
X113102371Y-76208350D01*
X113281116Y-76094915D01*
X113434424Y-75948922D01*
X113556455Y-75775932D01*
X113568828Y-75748142D01*
X118942858Y-75748142D01*
X118989562Y-75743563D01*
X119036306Y-75739473D01*
X119038872Y-75738728D01*
X119041529Y-75738467D01*
X119086414Y-75724915D01*
X119131513Y-75711813D01*
X119133887Y-75710582D01*
X119136442Y-75709811D01*
X119177835Y-75687802D01*
X119219535Y-75666187D01*
X119221624Y-75664519D01*
X119223981Y-75663266D01*
X119260367Y-75633590D01*
X119297017Y-75604332D01*
X119300732Y-75600669D01*
X119300812Y-75600604D01*
X119300873Y-75600530D01*
X119302068Y-75599352D01*
X120454020Y-74447400D01*
X120777000Y-74447400D01*
X120777000Y-76955764D01*
X120773958Y-76986652D01*
X120766763Y-77010369D01*
X120755086Y-77032216D01*
X120739368Y-77051368D01*
X120720216Y-77067086D01*
X120698369Y-77078763D01*
X120674652Y-77085958D01*
X120643764Y-77089000D01*
X115824000Y-77089000D01*
X115811551Y-77089612D01*
X115761998Y-77094493D01*
X115737581Y-77099349D01*
X115689932Y-77113803D01*
X115666931Y-77123331D01*
X115623018Y-77146803D01*
X115602317Y-77160635D01*
X115563827Y-77192223D01*
X115546223Y-77209827D01*
X115514635Y-77248317D01*
X115500803Y-77269018D01*
X115477331Y-77312931D01*
X115467803Y-77335932D01*
X115453349Y-77383581D01*
X115448493Y-77407998D01*
X115443612Y-77457551D01*
X115443000Y-77470000D01*
X115443000Y-78733764D01*
X115439958Y-78764652D01*
X115432763Y-78788369D01*
X115421086Y-78810216D01*
X115405368Y-78829368D01*
X115386216Y-78845086D01*
X115364369Y-78856763D01*
X115340652Y-78863958D01*
X115309764Y-78867000D01*
X114546250Y-78867000D01*
X114498126Y-78915124D01*
X114480018Y-78924803D01*
X114459317Y-78938635D01*
X114420827Y-78970223D01*
X114403223Y-78987827D01*
X114371635Y-79026317D01*
X114357803Y-79047018D01*
X114334331Y-79090931D01*
X114324803Y-79113932D01*
X114310349Y-79161581D01*
X114305493Y-79185998D01*
X114300612Y-79235551D01*
X114300000Y-79248000D01*
X114300000Y-81549554D01*
X114296957Y-81580446D01*
X114289766Y-81604152D01*
X114278084Y-81626008D01*
X114258396Y-81649998D01*
X113272998Y-82635396D01*
X113249008Y-82655084D01*
X113227152Y-82666766D01*
X113203446Y-82673957D01*
X113172554Y-82677000D01*
X107950000Y-82677000D01*
X107937551Y-82677612D01*
X107887998Y-82682493D01*
X107863581Y-82687349D01*
X107815932Y-82701803D01*
X107792931Y-82711331D01*
X107749018Y-82734803D01*
X107728317Y-82748635D01*
X107689827Y-82780223D01*
X107672223Y-82797827D01*
X107640635Y-82836317D01*
X107626803Y-82857018D01*
X107603331Y-82900931D01*
X107593803Y-82923932D01*
X107579349Y-82971581D01*
X107574493Y-82995998D01*
X107569612Y-83045551D01*
X107569000Y-83058000D01*
X107569000Y-88540790D01*
X107569612Y-88553239D01*
X107574493Y-88602792D01*
X107579350Y-88627209D01*
X107593804Y-88674857D01*
X107603330Y-88697857D01*
X107626802Y-88741771D01*
X107640635Y-88762473D01*
X107672223Y-88800963D01*
X107680592Y-88810198D01*
X109813396Y-90943002D01*
X109833084Y-90966992D01*
X109844766Y-90988848D01*
X109851957Y-91012554D01*
X109855000Y-91043446D01*
X109855000Y-92339000D01*
X109807250Y-92339000D01*
X109712000Y-92434250D01*
X109712000Y-93218000D01*
X109732000Y-93218000D01*
X109732000Y-93343992D01*
X109721764Y-93345000D01*
X108467843Y-93345000D01*
X108467843Y-92720000D01*
X108464851Y-92682475D01*
X108704000Y-92682475D01*
X108704000Y-93122750D01*
X108799250Y-93218000D01*
X109458000Y-93218000D01*
X109458000Y-92434250D01*
X109362750Y-92339000D01*
X109047475Y-92339000D01*
X108973867Y-92353642D01*
X108904529Y-92382362D01*
X108842127Y-92424058D01*
X108789058Y-92477126D01*
X108747362Y-92539529D01*
X108718642Y-92608866D01*
X108704000Y-92682475D01*
X108464851Y-92682475D01*
X108463005Y-92659327D01*
X108431136Y-92556420D01*
X108371860Y-92466465D01*
X108289870Y-92396585D01*
X108191658Y-92352314D01*
X108085000Y-92337157D01*
X107085000Y-92337157D01*
X107024327Y-92341995D01*
X106921420Y-92373864D01*
X106831465Y-92433140D01*
X106761585Y-92515130D01*
X106717314Y-92613342D01*
X106702157Y-92720000D01*
X106702157Y-93345000D01*
X106299000Y-93345000D01*
X106286551Y-93345612D01*
X106236998Y-93350493D01*
X106212581Y-93355349D01*
X106164932Y-93369803D01*
X106141931Y-93379331D01*
X106098018Y-93402803D01*
X106077317Y-93416635D01*
X106038827Y-93448223D01*
X106021223Y-93465827D01*
X105989635Y-93504317D01*
X105975803Y-93525018D01*
X105952331Y-93568931D01*
X105942803Y-93591932D01*
X105928349Y-93639581D01*
X105923493Y-93663998D01*
X105918612Y-93713551D01*
X105918000Y-93726000D01*
X105918000Y-104669790D01*
X105918612Y-104682239D01*
X105923493Y-104731792D01*
X105928350Y-104756209D01*
X105942804Y-104803857D01*
X105952330Y-104826857D01*
X105975802Y-104870771D01*
X105989635Y-104891473D01*
X106021223Y-104929963D01*
X106029592Y-104939198D01*
X106515802Y-105425408D01*
X106525037Y-105433777D01*
X106563527Y-105465365D01*
X106584229Y-105479198D01*
X106628143Y-105502670D01*
X106651143Y-105512196D01*
X106698791Y-105526650D01*
X106723208Y-105531507D01*
X106772761Y-105536388D01*
X106785210Y-105537000D01*
X186076790Y-105537000D01*
X186089239Y-105536388D01*
X186138792Y-105531507D01*
X186163209Y-105526650D01*
X186210857Y-105512196D01*
X186233857Y-105502670D01*
X186277771Y-105479198D01*
X186298473Y-105465365D01*
X186336963Y-105433777D01*
X186346198Y-105425408D01*
X188102408Y-103669198D01*
X188110777Y-103659963D01*
X188142365Y-103621473D01*
X188156198Y-103600771D01*
X188179670Y-103556857D01*
X188189196Y-103533857D01*
X188203650Y-103486209D01*
X188208507Y-103461792D01*
X188213388Y-103412239D01*
X188214000Y-103399790D01*
X188214000Y-91694000D01*
X188213388Y-91681551D01*
X188208507Y-91631998D01*
X188203651Y-91607581D01*
X188189197Y-91559932D01*
X188179669Y-91536931D01*
X188156197Y-91493018D01*
X188142365Y-91472317D01*
X188110777Y-91433827D01*
X188093173Y-91416223D01*
X188054683Y-91384635D01*
X188033982Y-91370803D01*
X187990069Y-91347331D01*
X187967068Y-91337803D01*
X187919419Y-91323349D01*
X187895002Y-91318493D01*
X187845449Y-91313612D01*
X187833000Y-91313000D01*
X185293000Y-91313000D01*
X185280551Y-91313612D01*
X185230998Y-91318493D01*
X185206581Y-91323349D01*
X185158932Y-91337803D01*
X185135931Y-91347331D01*
X185092018Y-91370803D01*
X185071317Y-91384635D01*
X185032827Y-91416223D01*
X185015223Y-91433827D01*
X184983635Y-91472317D01*
X184969803Y-91493018D01*
X184946331Y-91536931D01*
X184936803Y-91559932D01*
X184922349Y-91607581D01*
X184917493Y-91631998D01*
X184912612Y-91681551D01*
X184912000Y-91694000D01*
X184912000Y-92443185D01*
X184892873Y-92424058D01*
X184830471Y-92382362D01*
X184761133Y-92353642D01*
X184687525Y-92339000D01*
X184372250Y-92339000D01*
X184277000Y-92434250D01*
X184277000Y-93218000D01*
X184297000Y-93218000D01*
X184297000Y-93472000D01*
X184277000Y-93472000D01*
X184277000Y-94255750D01*
X184372250Y-94351000D01*
X184687525Y-94351000D01*
X184761133Y-94336358D01*
X184830471Y-94307638D01*
X184892873Y-94265942D01*
X184912000Y-94246815D01*
X184912000Y-98451079D01*
X184876310Y-98227922D01*
X184789369Y-97993347D01*
X184743946Y-97908369D01*
X184561978Y-97811627D01*
X183821605Y-98552000D01*
X184561978Y-99292373D01*
X184743946Y-99195631D01*
X184848339Y-98968284D01*
X184906373Y-98724941D01*
X184911186Y-98597553D01*
X184910331Y-98658785D01*
X184912000Y-98667879D01*
X184912000Y-99329554D01*
X184908957Y-99360446D01*
X184901766Y-99384152D01*
X184890084Y-99406008D01*
X184870396Y-99429998D01*
X184138998Y-100161396D01*
X184115008Y-100181084D01*
X184093152Y-100192766D01*
X184069446Y-100199957D01*
X184038554Y-100203000D01*
X182991446Y-100203000D01*
X182960554Y-100199957D01*
X182936848Y-100192766D01*
X182914992Y-100181084D01*
X182891002Y-100161396D01*
X182413604Y-99683998D01*
X182393916Y-99660008D01*
X182382234Y-99638152D01*
X182375043Y-99614446D01*
X182372000Y-99583554D01*
X182372000Y-99471978D01*
X182901627Y-99471978D01*
X182998369Y-99653946D01*
X183225716Y-99758339D01*
X183469059Y-99816373D01*
X183719049Y-99825818D01*
X183966078Y-99786310D01*
X184200653Y-99699369D01*
X184285631Y-99653946D01*
X184382373Y-99471978D01*
X183642000Y-98731605D01*
X182901627Y-99471978D01*
X182372000Y-99471978D01*
X182372000Y-98652919D01*
X182407690Y-98876078D01*
X182494631Y-99110653D01*
X182540054Y-99195631D01*
X182722022Y-99292373D01*
X183462395Y-98552000D01*
X182722022Y-97811627D01*
X182540054Y-97908369D01*
X182435661Y-98135716D01*
X182377627Y-98379059D01*
X182372000Y-98527989D01*
X182372000Y-98431337D01*
X182372054Y-98427470D01*
X182372000Y-98427197D01*
X182372000Y-97632022D01*
X182901627Y-97632022D01*
X183642000Y-98372395D01*
X184382373Y-97632022D01*
X184285631Y-97450054D01*
X184058284Y-97345661D01*
X183814941Y-97287627D01*
X183564951Y-97278182D01*
X183317922Y-97317690D01*
X183083347Y-97404631D01*
X182998369Y-97450054D01*
X182901627Y-97632022D01*
X182372000Y-97632022D01*
X182372000Y-93567250D01*
X183269000Y-93567250D01*
X183269000Y-94007525D01*
X183283642Y-94081134D01*
X183312362Y-94150471D01*
X183354058Y-94212874D01*
X183407127Y-94265942D01*
X183469529Y-94307638D01*
X183538867Y-94336358D01*
X183612475Y-94351000D01*
X183927750Y-94351000D01*
X184023000Y-94255750D01*
X184023000Y-93472000D01*
X183364250Y-93472000D01*
X183269000Y-93567250D01*
X182372000Y-93567250D01*
X182372000Y-92964000D01*
X182371388Y-92951551D01*
X182366507Y-92901998D01*
X182361651Y-92877581D01*
X182347197Y-92829932D01*
X182337669Y-92806931D01*
X182314197Y-92763018D01*
X182300365Y-92742317D01*
X182268777Y-92703827D01*
X182251173Y-92686223D01*
X182246607Y-92682475D01*
X183269000Y-92682475D01*
X183269000Y-93122750D01*
X183364250Y-93218000D01*
X184023000Y-93218000D01*
X184023000Y-92434250D01*
X183927750Y-92339000D01*
X183612475Y-92339000D01*
X183538867Y-92353642D01*
X183469529Y-92382362D01*
X183407127Y-92424058D01*
X183354058Y-92477126D01*
X183312362Y-92539529D01*
X183283642Y-92608866D01*
X183269000Y-92682475D01*
X182246607Y-92682475D01*
X182212683Y-92654635D01*
X182191982Y-92640803D01*
X182148069Y-92617331D01*
X182125068Y-92607803D01*
X182077419Y-92593349D01*
X182053002Y-92588493D01*
X182003449Y-92583612D01*
X181991000Y-92583000D01*
X180451446Y-92583000D01*
X180420554Y-92579957D01*
X180396848Y-92572766D01*
X180374992Y-92561084D01*
X180351002Y-92541396D01*
X171742104Y-83932498D01*
X171724841Y-83845315D01*
X171665997Y-83702549D01*
X171580544Y-83573932D01*
X171471736Y-83464362D01*
X171343719Y-83378013D01*
X171201367Y-83318174D01*
X171108773Y-83299167D01*
X165903604Y-78093998D01*
X165883916Y-78070008D01*
X165872234Y-78048152D01*
X165865043Y-78024446D01*
X165862000Y-77993554D01*
X165862000Y-77692250D01*
X168799510Y-77692250D01*
X168799510Y-78507015D01*
X168814152Y-78580623D01*
X168842872Y-78649961D01*
X168884568Y-78712363D01*
X168937636Y-78765432D01*
X169000039Y-78807128D01*
X169069376Y-78835848D01*
X169142985Y-78850490D01*
X169957750Y-78850490D01*
X170053000Y-78755240D01*
X170053000Y-77597000D01*
X168894760Y-77597000D01*
X168799510Y-77692250D01*
X165862000Y-77692250D01*
X165862000Y-76432985D01*
X168799510Y-76432985D01*
X168799510Y-77247750D01*
X168894760Y-77343000D01*
X170053000Y-77343000D01*
X170053000Y-76184760D01*
X169957750Y-76089510D01*
X169142985Y-76089510D01*
X169069376Y-76104152D01*
X169000039Y-76132872D01*
X168937636Y-76174568D01*
X168884568Y-76227637D01*
X168842872Y-76290039D01*
X168814152Y-76359377D01*
X168799510Y-76432985D01*
X165862000Y-76432985D01*
X165862000Y-73473150D01*
X167625455Y-73473150D01*
X167706796Y-73642131D01*
X167912439Y-73733803D01*
X168132016Y-73783595D01*
X168357087Y-73789593D01*
X168579004Y-73751566D01*
X168789238Y-73670976D01*
X168843204Y-73642131D01*
X168924545Y-73473150D01*
X168275000Y-72823605D01*
X167625455Y-73473150D01*
X165862000Y-73473150D01*
X165862000Y-72015236D01*
X165865042Y-71984348D01*
X165872237Y-71960631D01*
X165883914Y-71938784D01*
X165899632Y-71919632D01*
X165918784Y-71903914D01*
X165940631Y-71892237D01*
X165964348Y-71885042D01*
X165995236Y-71882000D01*
X167413602Y-71882000D01*
X167373497Y-71922105D01*
X167445848Y-71994456D01*
X167276869Y-72075796D01*
X167185197Y-72281439D01*
X167135405Y-72501016D01*
X167129407Y-72726087D01*
X167167434Y-72948004D01*
X167248024Y-73158238D01*
X167276869Y-73212204D01*
X167445850Y-73293545D01*
X168095395Y-72644000D01*
X168081253Y-72629858D01*
X168260858Y-72450253D01*
X168275000Y-72464395D01*
X168289143Y-72450253D01*
X168468748Y-72629858D01*
X168454605Y-72644000D01*
X169104150Y-73293545D01*
X169273131Y-73212204D01*
X169364803Y-73006561D01*
X169414595Y-72786984D01*
X169418000Y-72659214D01*
X169418000Y-74676000D01*
X169418612Y-74688449D01*
X169423493Y-74738002D01*
X169428349Y-74762419D01*
X169442803Y-74810068D01*
X169452331Y-74833069D01*
X169475803Y-74876982D01*
X169489635Y-74897683D01*
X169521223Y-74936173D01*
X169538827Y-74953777D01*
X169577317Y-74985365D01*
X169598018Y-74999197D01*
X169641931Y-75022669D01*
X169664932Y-75032197D01*
X169712581Y-75046651D01*
X169736998Y-75051507D01*
X169786551Y-75056388D01*
X169799000Y-75057000D01*
X170554764Y-75057000D01*
X170585652Y-75060042D01*
X170609369Y-75067237D01*
X170631216Y-75078914D01*
X170650368Y-75094632D01*
X170666086Y-75113784D01*
X170677763Y-75135631D01*
X170684958Y-75159348D01*
X170688000Y-75190236D01*
X170688000Y-76089510D01*
X170402250Y-76089510D01*
X170307000Y-76184760D01*
X170307000Y-77343000D01*
X170327000Y-77343000D01*
X170327000Y-77597000D01*
X170307000Y-77597000D01*
X170307000Y-78755240D01*
X170402250Y-78850490D01*
X170688000Y-78850490D01*
X170688000Y-79756000D01*
X170688612Y-79768449D01*
X170693493Y-79818002D01*
X170698349Y-79842419D01*
X170712803Y-79890068D01*
X170722331Y-79913069D01*
X170745803Y-79956982D01*
X170759635Y-79977683D01*
X170791223Y-80016173D01*
X170808827Y-80033777D01*
X170847317Y-80065365D01*
X170868018Y-80079197D01*
X170911931Y-80102669D01*
X170934932Y-80112197D01*
X170982581Y-80126651D01*
X171006998Y-80131507D01*
X171056551Y-80136388D01*
X171069000Y-80137000D01*
X190874764Y-80137000D01*
X190905652Y-80140042D01*
X190929369Y-80147237D01*
X190951216Y-80158914D01*
X190970368Y-80174632D01*
X190986086Y-80193784D01*
X190997763Y-80215631D01*
X191004958Y-80239348D01*
X191008000Y-80270236D01*
X191008000Y-112769764D01*
X191004958Y-112800652D01*
X190997763Y-112824369D01*
X190986086Y-112846216D01*
X190970368Y-112865368D01*
X190951216Y-112881086D01*
X190929369Y-112892763D01*
X190905652Y-112899958D01*
X190874764Y-112903000D01*
X103130236Y-112903000D01*
X103099348Y-112899958D01*
X103075631Y-112892763D01*
X103053784Y-112881086D01*
X103034632Y-112865368D01*
X103018914Y-112846216D01*
X103007237Y-112824369D01*
X103000042Y-112800652D01*
X102997000Y-112769764D01*
X102997000Y-80410909D01*
X103912375Y-80410909D01*
X103950591Y-80619132D01*
X104028524Y-80815967D01*
X104143204Y-80993915D01*
X104290263Y-81146200D01*
X104464101Y-81267021D01*
X104658096Y-81351775D01*
X104864858Y-81397235D01*
X105076513Y-81401668D01*
X105284998Y-81364907D01*
X105482371Y-81288350D01*
X105661116Y-81174915D01*
X105814424Y-81028922D01*
X105936455Y-80855932D01*
X106022562Y-80662534D01*
X106069464Y-80456094D01*
X106070094Y-80410909D01*
X111532375Y-80410909D01*
X111570591Y-80619132D01*
X111648524Y-80815967D01*
X111763204Y-80993915D01*
X111910263Y-81146200D01*
X112084101Y-81267021D01*
X112278096Y-81351775D01*
X112484858Y-81397235D01*
X112696513Y-81401668D01*
X112904998Y-81364907D01*
X113102371Y-81288350D01*
X113281116Y-81174915D01*
X113434424Y-81028922D01*
X113556455Y-80855932D01*
X113642562Y-80662534D01*
X113689464Y-80456094D01*
X113692840Y-80214292D01*
X113651720Y-80006623D01*
X113571048Y-79810895D01*
X113453894Y-79634565D01*
X113304722Y-79484349D01*
X113129215Y-79365967D01*
X112934055Y-79283930D01*
X112726678Y-79241361D01*
X112514983Y-79239883D01*
X112307032Y-79279552D01*
X112110746Y-79358857D01*
X111933602Y-79474776D01*
X111782348Y-79622895D01*
X111662744Y-79797573D01*
X111579346Y-79992154D01*
X111535331Y-80199229D01*
X111532375Y-80410909D01*
X106070094Y-80410909D01*
X106072840Y-80214292D01*
X106031720Y-80006623D01*
X105951048Y-79810895D01*
X105833894Y-79634565D01*
X105684722Y-79484349D01*
X105509215Y-79365967D01*
X105314055Y-79283930D01*
X105106678Y-79241361D01*
X104894983Y-79239883D01*
X104687032Y-79279552D01*
X104490746Y-79358857D01*
X104313602Y-79474776D01*
X104162348Y-79622895D01*
X104042744Y-79797573D01*
X103959346Y-79992154D01*
X103915331Y-80199229D01*
X103912375Y-80410909D01*
X102997000Y-80410909D01*
X102997000Y-78077475D01*
X114451000Y-78077475D01*
X114451000Y-78517750D01*
X114546250Y-78613000D01*
X115205000Y-78613000D01*
X115205000Y-77829250D01*
X115109750Y-77734000D01*
X114794475Y-77734000D01*
X114720867Y-77748642D01*
X114651529Y-77777362D01*
X114589127Y-77819058D01*
X114536058Y-77872126D01*
X114494362Y-77934529D01*
X114465642Y-78003866D01*
X114451000Y-78077475D01*
X102997000Y-78077475D01*
X102997000Y-73285236D01*
X103000042Y-73254348D01*
X103007237Y-73230631D01*
X103018914Y-73208784D01*
X103034632Y-73189632D01*
X103053784Y-73173914D01*
X103075631Y-73162237D01*
X103099348Y-73155042D01*
X103130236Y-73152000D01*
X108479790Y-73152000D01*
X108492239Y-73151388D01*
X108541792Y-73146507D01*
X108566209Y-73141650D01*
X108613857Y-73127196D01*
X108636857Y-73117670D01*
X108680771Y-73094198D01*
X108701473Y-73080365D01*
X108739963Y-73048777D01*
X108749198Y-73040408D01*
X110505408Y-71284198D01*
X110513777Y-71274963D01*
X110545365Y-71236473D01*
X110554692Y-71222514D01*
X112444198Y-71222514D01*
X112487359Y-71457683D01*
X112575377Y-71679990D01*
X112704898Y-71880968D01*
X112870989Y-72052960D01*
X113067324Y-72189416D01*
X113286424Y-72285138D01*
X113519943Y-72336481D01*
X113758988Y-72341488D01*
X113994453Y-72299969D01*
X114217370Y-72213506D01*
X114419246Y-72085391D01*
X114592394Y-71920505D01*
X114730217Y-71725128D01*
X114773461Y-71628000D01*
X117062157Y-71628000D01*
X117062157Y-71770000D01*
X117066995Y-71830673D01*
X117098864Y-71933580D01*
X117158140Y-72023535D01*
X117240130Y-72093415D01*
X117338342Y-72137686D01*
X117445000Y-72152843D01*
X118145000Y-72152843D01*
X118205673Y-72148005D01*
X118308580Y-72116136D01*
X118398535Y-72056860D01*
X118468415Y-71974870D01*
X118512686Y-71876658D01*
X118527843Y-71770000D01*
X118527843Y-70470000D01*
X118523005Y-70409327D01*
X118491136Y-70306420D01*
X118431860Y-70216465D01*
X118349870Y-70146585D01*
X118251658Y-70102314D01*
X118145000Y-70087157D01*
X117445000Y-70087157D01*
X117384327Y-70091995D01*
X117281420Y-70123864D01*
X117191465Y-70183140D01*
X117121585Y-70265130D01*
X117077314Y-70363342D01*
X117062157Y-70470000D01*
X117062157Y-70612000D01*
X114774375Y-70612000D01*
X114746698Y-70544851D01*
X114614384Y-70345702D01*
X114445907Y-70176045D01*
X114247687Y-70042343D01*
X114027272Y-69949689D01*
X113793058Y-69901612D01*
X113553966Y-69899943D01*
X113319104Y-69944745D01*
X113097416Y-70034313D01*
X112897348Y-70165234D01*
X112726520Y-70332522D01*
X112591438Y-70529804D01*
X112497247Y-70749567D01*
X112447536Y-70983440D01*
X112444198Y-71222514D01*
X110554692Y-71222514D01*
X110559198Y-71215771D01*
X110582670Y-71171857D01*
X110592196Y-71148857D01*
X110606650Y-71101209D01*
X110611507Y-71076792D01*
X110616388Y-71027239D01*
X110617000Y-71014790D01*
X110617000Y-69463664D01*
X112960942Y-69463664D01*
X113051530Y-69640435D01*
X113270199Y-69739741D01*
X113504039Y-69794478D01*
X113744064Y-69802544D01*
X113981052Y-69763628D01*
X114205894Y-69679226D01*
X114278470Y-69640435D01*
X114369058Y-69463664D01*
X123755942Y-69463664D01*
X123846530Y-69640435D01*
X124065199Y-69739741D01*
X124299039Y-69794478D01*
X124539064Y-69802544D01*
X124776052Y-69763628D01*
X125000894Y-69679226D01*
X125073470Y-69640435D01*
X125164058Y-69463664D01*
X124460000Y-68759605D01*
X123755942Y-69463664D01*
X114369058Y-69463664D01*
X113665000Y-68759605D01*
X112960942Y-69463664D01*
X110617000Y-69463664D01*
X110617000Y-68659064D01*
X112442456Y-68659064D01*
X112481372Y-68896052D01*
X112565774Y-69120894D01*
X112604565Y-69193470D01*
X112781336Y-69284058D01*
X113485395Y-68580000D01*
X113844605Y-68580000D01*
X114548664Y-69284058D01*
X114725435Y-69193470D01*
X114824741Y-68974801D01*
X114879478Y-68740961D01*
X114882230Y-68659064D01*
X123237456Y-68659064D01*
X123276372Y-68896052D01*
X123360774Y-69120894D01*
X123399565Y-69193470D01*
X123576336Y-69284058D01*
X124280395Y-68580000D01*
X124639605Y-68580000D01*
X125343664Y-69284058D01*
X125520435Y-69193470D01*
X125619741Y-68974801D01*
X125637456Y-68899119D01*
X135957001Y-68899119D01*
X136042373Y-69127681D01*
X136170695Y-69335196D01*
X136337036Y-69513689D01*
X136535003Y-69656301D01*
X136756988Y-69757551D01*
X136840882Y-69782993D01*
X137033000Y-69722312D01*
X137033000Y-68707000D01*
X137287000Y-68707000D01*
X137287000Y-69722312D01*
X137479118Y-69782993D01*
X137563012Y-69757551D01*
X137784997Y-69656301D01*
X137982964Y-69513689D01*
X138149305Y-69335196D01*
X138277627Y-69127681D01*
X138362999Y-68899119D01*
X138302859Y-68707000D01*
X137287000Y-68707000D01*
X137033000Y-68707000D01*
X136017141Y-68707000D01*
X135957001Y-68899119D01*
X125637456Y-68899119D01*
X125674478Y-68740961D01*
X125682544Y-68500936D01*
X125643628Y-68263948D01*
X125642477Y-68260881D01*
X135957001Y-68260881D01*
X136017141Y-68453000D01*
X137033000Y-68453000D01*
X137033000Y-67437688D01*
X137287000Y-67437688D01*
X137287000Y-68453000D01*
X138302859Y-68453000D01*
X138362999Y-68260881D01*
X138277627Y-68032319D01*
X138149305Y-67824804D01*
X137982964Y-67646311D01*
X137784997Y-67503699D01*
X137563012Y-67402449D01*
X137479118Y-67377007D01*
X137287000Y-67437688D01*
X137033000Y-67437688D01*
X136840882Y-67377007D01*
X136756988Y-67402449D01*
X136535003Y-67503699D01*
X136337036Y-67646311D01*
X136170695Y-67824804D01*
X136042373Y-68032319D01*
X135957001Y-68260881D01*
X125642477Y-68260881D01*
X125559226Y-68039106D01*
X125520435Y-67966530D01*
X125343664Y-67875942D01*
X124639605Y-68580000D01*
X124280395Y-68580000D01*
X123576336Y-67875942D01*
X123399565Y-67966530D01*
X123300259Y-68185199D01*
X123245522Y-68419039D01*
X123237456Y-68659064D01*
X114882230Y-68659064D01*
X114887544Y-68500936D01*
X114848628Y-68263948D01*
X114764226Y-68039106D01*
X114725435Y-67966530D01*
X114548664Y-67875942D01*
X113844605Y-68580000D01*
X113485395Y-68580000D01*
X112781336Y-67875942D01*
X112604565Y-67966530D01*
X112505259Y-68185199D01*
X112450522Y-68419039D01*
X112442456Y-68659064D01*
X110617000Y-68659064D01*
X110617000Y-67696336D01*
X112960942Y-67696336D01*
X113665000Y-68400395D01*
X114369058Y-67696336D01*
X123755942Y-67696336D01*
X124460000Y-68400395D01*
X125164058Y-67696336D01*
X125073470Y-67519565D01*
X124854801Y-67420259D01*
X124620961Y-67365522D01*
X124380936Y-67357456D01*
X124143948Y-67396372D01*
X123919106Y-67480774D01*
X123846530Y-67519565D01*
X123755942Y-67696336D01*
X114369058Y-67696336D01*
X114278470Y-67519565D01*
X114059801Y-67420259D01*
X113825961Y-67365522D01*
X113585936Y-67357456D01*
X113348948Y-67396372D01*
X113124106Y-67480774D01*
X113051530Y-67519565D01*
X112960942Y-67696336D01*
X110617000Y-67696336D01*
X110617000Y-65665236D01*
X110620042Y-65634348D01*
X110627237Y-65610631D01*
X110638914Y-65588784D01*
X110654632Y-65569632D01*
X110673784Y-65553914D01*
X110695631Y-65542237D01*
X110719348Y-65535042D01*
X110750236Y-65532000D01*
X133089764Y-65532000D01*
X133120652Y-65535042D01*
G36*
X148209000Y-87936606D02*
X148209000Y-89535000D01*
X137160000Y-89535000D01*
X137160000Y-86741000D01*
X147013394Y-86741000D01*
X148209000Y-87936606D01*
X148209000Y-87936606D01*
G37*
X148209000Y-87936606D02*
X148209000Y-89535000D01*
X137160000Y-89535000D01*
X137160000Y-86741000D01*
X147013394Y-86741000D01*
X148209000Y-87936606D01*
M02*
