G04 #@! TF.GenerationSoftware,KiCad,Pcbnew,(2017-02-04 revision 9a6e5734b)-master*
G04 #@! TF.CreationDate,2017-03-24T17:35:15+01:00*
G04 #@! TF.ProjectId,mega-prog,6D6567612D70726F672E6B696361645F,Proto 1*
G04 #@! TF.FileFunction,Paste,Top*
G04 #@! TF.FilePolarity,Positive*
%FSLAX46Y46*%
G04 Gerber Fmt 4.6, Leading zero omitted, Abs format (unit mm)*
G04 Created by KiCad (PCBNEW (2017-02-04 revision 9a6e5734b)-master) date Fri Mar 24 17:35:15 2017*
%MOMM*%
%LPD*%
G01*
G04 APERTURE LIST*
%ADD10C,0.100000*%
%ADD11R,0.500000X1.500000*%
%ADD12R,1.500000X0.500000*%
%ADD13R,1.250000X1.000000*%
%ADD14R,1.000000X1.250000*%
%ADD15R,0.700000X1.300000*%
%ADD16R,1.060000X0.650000*%
G04 APERTURE END LIST*
D10*
D11*
X149256000Y-74904000D03*
X148456000Y-74904000D03*
X147656000Y-74904000D03*
X146856000Y-74904000D03*
X146056000Y-74904000D03*
X145256000Y-74904000D03*
X144456000Y-74904000D03*
X143656000Y-74904000D03*
X142856000Y-74904000D03*
X142056000Y-74904000D03*
X141256000Y-74904000D03*
X140456000Y-74904000D03*
X139656000Y-74904000D03*
X138856000Y-74904000D03*
X138056000Y-74904000D03*
X137256000Y-74904000D03*
D12*
X135356000Y-76804000D03*
X135356000Y-77604000D03*
X135356000Y-78404000D03*
X135356000Y-79204000D03*
X135356000Y-80004000D03*
X135356000Y-80804000D03*
X135356000Y-81604000D03*
X135356000Y-82404000D03*
X135356000Y-83204000D03*
X135356000Y-84004000D03*
X135356000Y-84804000D03*
X135356000Y-85604000D03*
X135356000Y-86404000D03*
X135356000Y-87204000D03*
X135356000Y-88004000D03*
X135356000Y-88804000D03*
D11*
X137256000Y-90704000D03*
X138056000Y-90704000D03*
X138856000Y-90704000D03*
X139656000Y-90704000D03*
X140456000Y-90704000D03*
X141256000Y-90704000D03*
X142056000Y-90704000D03*
X142856000Y-90704000D03*
X143656000Y-90704000D03*
X144456000Y-90704000D03*
X145256000Y-90704000D03*
X146056000Y-90704000D03*
X146856000Y-90704000D03*
X147656000Y-90704000D03*
X148456000Y-90704000D03*
X149256000Y-90704000D03*
D12*
X151156000Y-88804000D03*
X151156000Y-88004000D03*
X151156000Y-87204000D03*
X151156000Y-86404000D03*
X151156000Y-85604000D03*
X151156000Y-84804000D03*
X151156000Y-84004000D03*
X151156000Y-83204000D03*
X151156000Y-82404000D03*
X151156000Y-81604000D03*
X151156000Y-80804000D03*
X151156000Y-80004000D03*
X151156000Y-79204000D03*
X151156000Y-78404000D03*
X151156000Y-77604000D03*
X151156000Y-76804000D03*
D13*
X125095000Y-80121000D03*
X125095000Y-78121000D03*
X145415000Y-72120000D03*
X145415000Y-70120000D03*
X125095000Y-81931000D03*
X125095000Y-83931000D03*
D14*
X153940000Y-77470000D03*
X155940000Y-77470000D03*
X153940000Y-74930000D03*
X155940000Y-74930000D03*
D13*
X147955000Y-72120000D03*
X147955000Y-70120000D03*
X132715000Y-79010000D03*
X132715000Y-81010000D03*
D14*
X109585000Y-93345000D03*
X107585000Y-93345000D03*
X184150000Y-93345000D03*
X186150000Y-93345000D03*
D15*
X152720000Y-70485000D03*
X154620000Y-70485000D03*
X152720000Y-67945000D03*
X154620000Y-67945000D03*
X146873000Y-67818000D03*
X144973000Y-67818000D03*
X131125000Y-71120000D03*
X129225000Y-71120000D03*
X119695000Y-71120000D03*
X117795000Y-71120000D03*
D14*
X115332000Y-78740000D03*
X117332000Y-78740000D03*
X117078000Y-91770200D03*
X115078000Y-91770200D03*
X111268000Y-91770200D03*
X113268000Y-91770200D03*
D16*
X117432000Y-82484000D03*
X117432000Y-81534000D03*
X117432000Y-80584000D03*
X115232000Y-80584000D03*
X115232000Y-82484000D03*
X115232000Y-81534000D03*
D15*
X115382000Y-84455000D03*
X117282000Y-84455000D03*
M02*
